<?xml version="1.0"?>
<svg xmlns:rdf="http://www.w3.org/1999/02/22-rdf-syntax-ns#" xmlns="http://www.w3.org/2000/svg" xmlns:cc="http://web.resource.org/cc/" xmlns:xlink="http://www.w3.org/1999/xlink" xmlns:dc="http://purl.org/dc/elements/1.1/" xmlns:svg="http://www.w3.org/2000/svg" id="Layer_1" xml:space="preserve" overflow="visible" viewBox="0 0 488.646 315.076" version="1.1" enable-background="new 0 0 488.646 315.076">
<g clip-rule="evenodd" fill-rule="evenodd">
	<path d="m480.89 208.18c-1.514 0.154-1.588-1.32-3.104-1.168v-7.605c3.61 0.02 3.17 4.61 3.1 8.78z" fill="#fff"/>
	<path d="m477.79 171.34c-1.812-0.678-2.789-2.303-5.168-2.341-0.402-3.964 0.705-6.219 0.518-9.942 3.22 2.19 5.23 5.78 4.65 12.28z" fill="#fff"/>
	<path d="m473.14 226.9c-3.502-0.5-2.068-6.736-2.068-10.529v-12.867c6.05 2.65 1.91 16.59 2.07 23.4z" fill="#fff"/>
	<path d="m468.48 167.83c-1.719-0.979-2.799-2.683-4.652-3.51 0.379-4.327-0.578-7.145-0.518-11.113 6.08-0.05 5.45 7.48 5.17 14.62z" fill="#fff"/>
	<path d="m467.45 229.83c-0.719 2.301-3.475-2.504-5.17-2.924-0.479-10.572-0.65-21.49-1.033-32.17 9.83 2.9 3.79 23.77 6.2 35.09z" fill="#fff"/>
	<path d="m457.63 173.68v16.377c-2.186-0.646-4.92-0.674-7.756-0.586-0.34-5.266 0.686-12.083-0.516-16.376 2.28-1.57 5.27 1.05 8.28 0.59z" fill="#fff"/>
	<path d="m457.11 221.05h-7.238v-25.15c2.818-0.264 4.25 1.043 7.238 0.584 0.09 6.01-0.06 16.66 0 24.57z" fill="#fff"/>
	<path d="m455.04 149.69v13.453c-2.299-0.907-3.258-3.331-5.686-4.094-0.322-4.122-0.34-8.585-1.033-12.283 1.92 1.34 4.62 1.79 6.72 2.92z" fill="#fff"/>
	<path d="m443.67 151.45c-2.152-0.293-3.016-2.046-5.17-2.339 0.348-2.929-0.479-4.528-0.516-7.02 4.44 0.24 6.75 2.9 5.69 9.36z" fill="#fff"/>
	<path d="m436.95 299.43c0.096 0.498-0.201 0.553-0.516 0.584-11.219 0.051-24.785 0.045-35.672 0.586-4.344 0.217-10.119 2.381-12.408-2.34 14.648-1.365 31.535-0.195 47.045-0.584 0.29 0.84 0.8 1.42 1.55 1.75z"/>
	<path d="m436.43 167.83c-3.963 4.21-19.207 4.413-23.781 0.585 6.9-1.37 16.03-0.2 23.78-0.59z"/>
	<path d="m431.78 284.22c-2.768-12.119 0.512-27.482-0.516-41.529-1.75-7.77-15.863-1.549-21.197-5.264 1.184-3.18 5.875-1.754 9.305-1.754 7.969 0 12.963-1.457 14.477 5.848 1.418 6.848-0.518 19.135-0.518 28.076 0.01 5.48 1.24 11.97-1.54 14.61z"/>
	<path d="m430.75 194.73c1.734 4.666 1.273 11.816 1.551 18.133-5.23-0.906-10.994-1.211-16.543-1.756 0.672-5.727-2.838-14.447 0.518-17.547-6.03-17.96 22.68-10.94 14.47 1.18z"/>
	<path d="m431.78 216.96v5.264h-2.584c-0.277-2.264 0.922-2.855 0.516-5.264h2.06z"/>
	<path d="m426.61 278.96c-1.578-0.422-1.883 0.6-3.102 0.586v10.527c-3.904-0.324-6.902 0.379-10.34 0.586 0.545-3.539-0.129-5.701-3.617-4.68-0.516-8.014-0.775-18.494-1.035-26.904-0.115-3.727-1.561-7.801 1.551-9.943 1.043 2.523 0.695 6.623 3.102 7.604 0.402 2.014-0.287 2.793-2.066 2.34v19.885c1.129 0.859 2.895-2.551 4.652-2.924 0.902-8.531-1.1-20.35 2.586-25.734-0.297-1.455-2.902-3.301-2.068-4.096 3.115-0.016 6.363-0.182 8.789 0.586 2.45 8.51 1.3 21.11 1.55 32.14z"/>
	<path d="m402.31 284.81c-2.863-1.131-1.537-6.051-1.551-8.773-0.051-10.76 0.857-22.109 0.516-33.924-3.287-7.979-20.77 0.105-26.363-5.264 8.668 0.137 25.834-4.273 28.434 4.678 0 14.81-0.2 29.4-1.04 43.27z"/>
	<path d="m400.76 212.87c-2.85-1.061-1.539-6.127-1.551-8.773-0.043-8.959 0.031-20.498 0-29.832-2.4-8.202-18.566-0.83-23.781-5.849 9.121 0.406 24.688-4.481 26.883 4.095 1.396 5.455-0.207 14.537-0.516 22.226-0.27 6.81 1.02 13.46-1.03 18.12z"/>
	<path d="m402.31 216.37c0.398 2.791-0.809 3.766-0.516 6.436h-3.621c-0.289-2.67 0.916-3.645 0.518-6.436h3.62z"/>
	<path d="m398.18 261.41v23.396c-2.055 0.988-5.453 0.461-8.27 0.586 0.277-8.654 0.754-17.084 1.033-25.736-1.998-0.115-3.811-0.021-5.17 0.584-3.602 5.48-2.367 16.432-2.586 25.736h-6.721v-24.566c-0.789-2.648 3.377 0.311 2.586-2.338 1.346-3.668-2.844-1.074-2.586-3.51 1.521-12.93 19.418-12.18 21.197 0-0.51 2.346-2.148 3.418-2.586 5.848h3.11z"/>
	<path d="m396.11 212.28h-20.162c-1.578-6.531 0.555-13.75 0-21.057-0.496-2.119 2.232-0.596 2.586-1.756-3.121-4.508 1.695-8.934 3.617-12.867 17.9-6.93 13.66 19.03 13.95 35.69zm-7.24-31.59c-1.555-0.578-2.307-2.068-4.652-1.754-2.805 2.092-1.947 8.324-2.584 12.869 4.145 2.135 0.912 12.613 2.584 17.547 2.76-0.201 4.262 2.141 6.721 0.584 0.95-12.4-3.44-17.67-2.07-29.25z"/>
	<path d="m390.94 209.94c-2.459 1.557-3.961-0.785-6.721-0.584-1.672-4.934 1.561-15.412-2.584-17.547 0.637-4.545-0.221-10.777 2.584-12.869 2.346-0.314 3.098 1.176 4.652 1.754-1.37 11.58 3.02 16.85 2.07 29.25z" fill="#fff"/>
	<path d="m368.71 287.15c-2.941-13.633 0.549-34.545-3.102-47.377-8.459-1.602-20.004 3.219-24.814-1.754 7.297-1.689 16.65-1.049 25.332-1.17 5.4 3.248 3.617 16.414 3.617 28.66-0.01 8.09 0.79 16.42-1.04 21.64z"/>
	<path d="m368.19 143.26c-2.328-1.047-1.934-7.74-2.068-11.113-0.396-9.841 1.215-22.717-2.586-29.245-8.455-0.765-19.629 1.542-26.365-1.17 0.195-3.171 4.115-1.681 5.688-1.754 9.396-0.436 24.334-2.532 26.365 5.849 2.4 9.9-0.99 28.22-1.03 37.44z"/>
	<path d="m369.23 171.34c-0.684 13.849 1.369 30.794-1.033 42.697-2.875-1.215-1.539-6.023-1.553-8.773-0.049-10.395-0.803-22.039-0.516-32.753-4.307-6.438-19.766-0.255-26.365-4.095 8.16-1.81 24.85-3.18 29.47 2.92z"/>
	<path d="m367.68 216.96c0.404 2.408-0.795 3-0.518 5.264h-2.584v-5.264h3.1z"/>
	<path d="m366.64 75.998c-0.338 3.322 0.68 8.178-0.516 10.528h-1.035c-2.305-1.291-0.422-7.321-1.033-10.528h2.59z"/>
	<path d="m366.64 148.52v5.849h-2.584v-6.433c1.46-0.48 1.34 0.82 2.58 0.58z"/>
	<path d="m362.51 288.32h-2.068c-1.338-2.387 0.938-7.623 1.035-11.697 0.139-5.842-1.803-11.787-2.068-16.963-11.352 0.889-7.867 17.215-8.789 28.66-4.094-1.023-1.117-10.045-7.238-8.773-1.408 2.209 1.838 7.248 1.035 8.773-3.762 0.553-1.887-5.273-4.137-6.434 0.691-7.799-1.762-19.152 2.068-23.396-6.428-11.854 11.686-18.111 19.129-11.113 0.713 3.803 3.123 7.344 1.033 11.113 3.94 6.65 2.12 22.72 0 29.83z"/>
	<path d="m362.51 144.43c-3.059-5.313 1.361-19.088-3.102-22.812 0.375-1.332 0.461-2.988 1.033-4.095-1.238-8.684-13.75-7.364-18.094-4.679 0.59-8.633 19.006-6.044 20.162 1.755-0.37 9.6 2.3 21.93 0 29.83z"/>
	<path d="m361.99 211.69c-1.963-3.625-1.168-10.375-1.551-15.791-1.105-2.062-5.115-0.84-7.754-1.17-3.303 2.111-1.688 9.787-2.068 15.207 1.072 1.322 4.484-0.004 5.17 1.754-2.494 3.889-10.156-0.24-15.51 1.172v-22.227c-0.422-2.234 1.102-2.266 2.068-2.926-0.109-1.102-2.072-3.039-1.033-3.508 1.521-4.242 4.246-7.448 7.754-8.191 17.78-3.75 15.08 19.44 12.92 35.69z"/>
	<path d="m335.1 16.337v1.754c0.531 1.965-1.607 0.911-2.584 1.17 0.693 15.397 1.332 30.857 2.068 46.207-2.361 0.838-1.346 5.497-3.104 7.018-3.982-3.329 0.336-6.524 1.035-9.357 1.473-5.966-1.998-13.623-0.516-21.057h-8.791c-0.33-2.162 0.67-5.827-0.516-7.018 1.906-1.354 6.023-0.205 8.787-0.586 0.383-4.721-0.84-7.628-0.516-12.283 0.234-2.801-3.518-1.09-2.584-4.679 0.36-2.524 4.7-0.537 6.72-1.169zm-8.78 21.642c-0.072 2.422 3.598 0.609 5.17 1.169v-2.339c-1.58 0.56-5.25-1.253-5.17 1.17z"/>
	<path d="m332.01 288.32c-1.832-0.465-0.994-3.947-1.553-5.848-0.828-2.303 2.232-0.205 2.068-1.756-0.564-12.426-0.988-25.008-1.551-37.434-4.246-6.699-20.283-0.059-26.883-4.094 2.299-3.07 7.357-1.756 11.891-1.756h12.924c1.094 1.494 2.539 2.586 4.135 3.51-0.83 15.44 4.38 36.06-1.03 47.38z"/>
	<path d="m333.04 144.43c-4.41-2.709-2.584-11.275-2.584-18.133v-20.472c-5.477-7.255-24.693 1.034-31.018-5.264 10.066 0.31 28.82-4.143 34.119 3.51 0.36 14.05-0.87 26.31-0.52 40.35z"/>
	<path d="m333.04 8.733c-0.641 2.215-6.797 1.255-8.27 0.584v-1.17c0.66-2.565 5.408-0.507 7.754-1.169-0.04 0.831-0.08 1.657 0.52 1.755z"/>
	<path d="m331.49 214.03c-2.402-10.93-0.352-26.896-1.033-39.773-4.09-7.988-21.273-0.351-27.916-4.094 1.297-3.136 7.666-1.755 11.891-1.755 8.895 0 16.568-0.872 18.609 5.849-0.34 12.63 0.49 27.58-1.55 39.76z"/>
	<path d="m331.49 36.809v2.339c-1.572-0.561-5.242 1.252-5.17-1.169-0.08-2.423 3.59-0.61 5.17-1.17z" fill="#fff"/>
	<path d="m329.94 92.375c-10.334 2.173-24.459 1.896-34.119 0-3.051-0.8 0.162 2.265-2.068 1.754-13.516 2.221-29.43-4.43-38.256 1.754-7.709-1.689-18.691 3.368-22.746-1.754 28.518-5.792 64.811-5.738 97.707-4.679 0.17 1.356-0.08 2.246-0.51 2.925z"/>
	<path d="m329.94 75.412c-19.475 1.57-45.393 2.661-64.104 1.17 6.598-4.037 18.869-1.656 28.434-2.339 1.426-10-0.744-20.992 0-32.17-0.541-1.922-5.607 1.275-4.652-2.34-0.977-3.639 2.719-1.991 4.652-2.34-1.342-5.109 0.613-13.952-1.553-18.131 1.486-0.682 5.861-1.14 6.205-1.17 0.562 2.391-0.553 2.884-1.551 3.51 0.73 16.916 1.375 33.927 2.068 50.886h29.984c-0.43 1.652 0.73 1.515 0.52 2.924z"/>
	<path d="m329.42 154.37h-2.068c0.412-2.651-0.301-6.578 1.551-7.603 1.92 0.19 1.14 6.48 0.52 7.6z"/>
	<path d="m329.94 218.13v5.264h-2.584v-5.264h2.58z"/>
	<path d="m327.35 287.73c-2.574-6.055-1.168-16.617-2.068-24.566h-3.617c-0.822 7.062-1.01 14.844-1.035 22.811 0.01 1.746 3.832-0.824 3.102 1.756-4.711 2.543-12.732-1.148-19.645 0 1.074-9.182-2.965-21.164 1.551-26.906 0.828-2.303-2.232-0.203-2.066-1.754 0.617-14.846 22.215-15.434 24.297-2.926 0.98 5.87 1.1 22.22-0.51 31.59z"/>
	<path d="m324.77 146.77c-2.77 0.793-1.602-2.868-3.102-3.51-2.303 0.127-2.309 2.849-3.619 4.095h-5.688c-0.277-2.417-0.758-4.603-1.033-7.019h-5.688v-5.849h19.645c1.045-3.623-2.686-9.536 1.033-10.529 2.89 6.91 1.42 17.63-1.54 22.81z"/>
	<path d="m326.32 214.62c-2.357-1.078-1.904-6.32-2.066-9.943-0.113-2.527 0.086-5.301 0-7.604-5.908 0.92-3.846 10.857-4.652 17.547h-16.025c0.373-6.662-0.852-11.516-0.52-18.133-1.607-2.275-5.012-2.516-5.168-6.434 4.619-1.521 4.178 2.682 7.754 2.34-0.365 2.168 0.883 2.51 0.518 4.68 1.678-0.34 2.404 0.396 3.619 0.584 1.58-2.979-0.658-6.65 0-10.527-3.605-0.33-3.092 2.803-6.723 1.168 0.016-11.183 12.535-15.291 21.715-10.527 3.99 5.43 3.09 27.24 1.54 36.84z"/>
	<path d="m326.32 119.28c-2.984 0.649-2.451-2.686-3.617-4.094-3.492-3.97-10.734-3.149-14.992-0.585 3.27-9.12 21.04-6.6 18.61 4.68z"/>
	<path d="m321.67 6.394v3.509c-2.424-0.378-6.191 0.765-7.756-0.585v-1.17c1.18-2.17 5.23-1.098 7.76-1.754z"/>
	<path d="m321.67 85.355h-3.104c0.254-1.846-0.932-2.065-0.516-4.095h-4.137c-0.605-0.875-0.643-2.392-1.551-2.924 1.906-1.353 6.023-0.204 8.787-0.584-0.4 3.176 0.82 4.532 0.52 7.603z"/>
	<path d="m318.56 36.224c0.277 2.263-0.922 2.855-0.516 5.264h-6.205v-5.264h6.72z"/>
	<path d="m310.81 8.147c-0.643 2.216-6.799 1.257-8.271 0.586v-1.17c0.66-2.566 5.408-0.509 7.756-1.17-0.05 0.831-0.09 1.657 0.51 1.754z"/>
	<path d="m307.71 35.639c0.404 2.603-0.689 3.51-0.518 5.849h-5.688c0.365-1.927 0.832-3.739 1.035-5.849h5.17z"/>
	<path d="m304.6 121.62c-0.666 1.975 0.115 5.588-2.066 5.849-2.141 0.083-0.539-4.07-1.035-5.849h3.1z"/>
	<path d="m298.92 7.563v2.924c-2.422-0.378-6.189 0.765-7.754-0.585v-1.169c0.65-2.566 5.4-0.508 7.75-1.17z"/>
	<path d="m296.33 147.36c-3.059-12.504 2.352-26.527-0.516-37.434-3.129-11.902-21.783-0.785-28.434-8.774 10.342-0.587 26.996-3.25 31.018 5.264v21.641c0 7.1 1.33 15.13-2.07 19.3z"/>
	<path d="m298.4 288.32c-3.111-2.172-2.379-8.344-2.584-13.453-0.447-11.117 1.273-26.326-3.104-33.34-8.447-1.385-19.248 2.658-24.814-1.17 9.641-0.182 26.756-3.754 30.502 4.68-0.01 14.42-0.01 28.85-0.01 43.28z"/>
	<path d="m296.85 214.62c-2.812-1.135-1.803-7.729-2.066-12.283-0.451-7.77-1.137-16.561-1.551-25.151-1.447-1.678-2.297-4.033-4.137-5.265-6.928-0.936-17.482 2.232-21.197-2.339 8.658-0.239 24.291-3.306 28.434 3.509-0.17 13.46 2.48 30.28 0.53 41.53z"/>
	<path d="m293.75 148.52c0.031 2.569-0.207 4.835-1.035 6.435-1.811-0.679-1.129-4.18-1.549-6.435h2.58z"/>
	<path d="m293.75 224.56h-2.584c0.264-2.822-1.057-7.434 2.068-7.02-0.37 2.95 0.87 4.08 0.51 7.02z"/>
	<path d="m293.23 273.11c0.375 6.273-0.85 10.736-0.52 16.961h-24.297c3.104-6.43 0.883-18.889 1.553-28.074 0.908-0.336 3.037 0.707 3.102-0.586 0.373-2.566-1.725-2.338-3.619-2.338 1.076-16.102 25.461-14.863 22.746 4.094-3.451-2.918-2.967-10.289-8.789-10.529-2.404 7.602-0.826 23.775-0.516 33.924 2.633 0.641 2.459-1.895 2.586-4.092 2.492-0.301 6.568 1.193 6.203-2.34-1.789-1.795-3.223 1.787-6.203 0.584v-8.189c2.99-0.25 5.3 0.26 7.76 0.6z"/>
	<path d="m292.71 120.45c-1.221-1.737-2.195-3.754-3.1-5.849-3.17-1.319-8.385-2.681-12.408-1.17-2.816 1.494-2.342 6.709-7.236 5.849 1.38-13.62 22.46-13.49 22.75 1.17z"/>
	<path d="m292.2 145.6c-4.85 2.7-14.111 0.411-20.678 1.17 0.357-4.498-0.875-7.2-0.518-11.698h19.645c0.62 3.4 0.88 7.2 1.56 10.53z"/>
	<path d="m290.65 200.58v14.037h-21.195c0.355-7.227-0.873-12.66-0.518-19.887-0.477-1.021-1.617-1.291-3.102-1.17 0.826-1.016 2.328-1.268 4.137-1.17-4.566-16.609 21.246-21.377 20.16-2.926-5.049-1.381-12.078-2.135-14.475 2.342 2.863 3.75-0.926 10.729 1.033 16.961 4.8-2.55 6.97-8.09 13.96-8.18z"/>
	<path d="m288.58 42.073v18.716h-13.959c0.357-6.836-0.871-11.879-0.516-18.716h3.619c1.014-0.811-1.086-3.021-1.035-4.68h7.756c0.459 1.43 1.205 2.537 1.035 4.68h3.1zm-12.41 2.924c0.164 4.298 0.783 8.083 1.033 12.283h8.273c-0.324-4.655 0.896-7.562 0.516-12.283-3.97-0.404-5.48-0.002-9.82 0z"/>
	<path d="m287.54 9.318c-0.641 2.214-6.799 1.256-8.271 0.585v-1.169c0.66-2.567 5.408-0.509 7.754-1.17-0.04 0.83-0.08 1.656 0.52 1.754z"/>
	<path d="m285.99 44.997c0.381 4.721-0.84 7.628-0.516 12.283h-8.273c-0.25-4.201-0.869-7.985-1.033-12.283 4.34-0.002 5.85-0.404 9.82 0z" fill="#fff"/>
	<path d="m276.17 11.658h-8.273c-0.902-5.116 4.529-3.064 7.756-3.51-0.38 1.79 0.89 1.72 0.51 3.51z"/>
	<path d="m272.04 37.979v5.263h-5.17c0.277-2.262-0.922-2.854-0.516-5.263h5.69z"/>
	<path d="m269.45 123.37v7.019c-1.246 0.24-1.125-1.068-2.586-0.585 0.4-2.791-0.809-3.764-0.516-6.434h3.11z"/>
	<path d="m266.86 19.846c0.422 3.011-3.275 1.364-4.652 2.34-0.361 18.347 0.865 34.896 0.518 53.226-3.381-1.479-2.068-7.256-2.068-11.698 0-6.665 0.096-13.446-0.518-19.302h-6.719v-5.849c2.277-0.151 3.998-0.935 6.719-0.584 1.648-8.935-2.576-15.957-1.033-21.057 2.277-0.823 1.4 1.925 1.551 3.51 1.93-0.241 4.36-2.101 6.2-0.586zm-10.34 19.887c-0.799 2.282 4.561 2.884 3.619 0h-3.62z"/>
	<path d="m263.25 8.733v3.509c-2.424-0.379-6.191 0.765-7.756-0.585v-1.17c1.19-2.17 5.24-1.097 7.76-1.754z"/>
	<path d="m261.7 216.96c-3.545 0.092-2.031-5.572-2.066-8.189-0.152-10.711 1.742-31.016-2.584-36.263-7.572-1.042-16.148 1.965-21.715-0.586 7.689-1.36 22.02-4.437 26.365 2.34-0.44 14.02 2.17 30.62 0 42.7z"/>
	<path d="m262.21 146.19c-3.652-1.961-2.891-8.224-3.102-13.454-0.361-9.035-0.002-17.57-0.518-26.906-8.98-2.833-20.365 3.714-27.398-0.584 9.086-1.176 24.777-7.457 31.018 0.584v40.36z"/>
	<path d="m260.66 291.24c-2.867-1.6-1.551-6.795-1.551-9.943v-33.34c-3.111-8.57-19.508-2.105-26.883-5.85 1.961-2.766 7.305-1.824 11.373-1.756 8.672 0.15 15.836 0.533 18.094 7.02-0.354 11.561 0.518 22.133 0.518 33.926 0 3.38 1.29 8.51-1.55 9.94z"/>
	<path d="m259.63 157.3c-2.207-0.233-0.494-4.901-1.035-7.019 3.89-1.04 2.81 6.19 1.03 7.02z"/>
	<path d="m260.66 78.336c-8.934 1.005-18.783 0.976-27.916 1.755-0.34-6.246 6.855-4.094 11.373-4.094h14.992c0.53 0.777 0.5 2.176 1.56 2.339z"/>
	<path d="m260.14 39.733c0.941 2.884-4.418 2.282-3.619 0h3.62z" fill="#fff"/>
	<path d="m258.08 219.88v5.85h-2.584v-5.85h2.58z"/>
	<path d="m257.56 136.83c1.342 5.807-3.178 4.982-2.068 10.529-3.182-4.176-11.984-1.782-17.576-1.755v-8.188c6.37-0.39 12.73-0.81 19.65-0.58z"/>
	<path d="m257.04 119.87c-1.256 1.041-7.217-8.281-12.926-3.511-1.031 3.513-4.26 4.54-6.721 6.435-2.68-13.69 18.52-16.69 19.65-2.93z"/>
	<path d="m257.04 257.32c0.197 2.176-2.49 1.082-2.586 2.924 0.004 1.557 1.438 1.494 2.066 2.342-0.324 9.92 0.896 18.094 0.52 28.074-6.658 1.244-15.262 0.283-22.748 0.586 0.775-0.684 1.264-1.691 2.584-1.756 0.566-9.498-0.812-21.195 2.068-28.076-1.248-1.797-1.512-6.184-4.652-4.094 0.98-11.83 22.62-14.1 22.75 0.01z"/>
	<path d="m252.39 81.847v4.679c-2.666 0.87-2.559-1.396-4.135-1.754-1.219 0.573-0.465 3.375-1.551 4.094h-1.035c-2.207-0.232-0.492-4.901-1.033-7.018 2.57-0.001 5.15-0.001 7.74-0.001z"/>
	<path d="m251.36 10.488v3.509c-2.422-0.378-6.191 0.765-7.756-0.584-0.51-4.48 4.75-2.431 7.76-2.925z"/>
	<path d="m248.77 39.733c-0.375 1.331-0.461 2.988-1.033 4.095h-5.17v-4.095h6.2z"/>
	<path d="m239.46 15.752h-8.27v-2.924c3.156 0.453 4.836-0.766 7.754-0.585-0.37 1.788 0.9 1.72 0.52 3.509z"/>
	<path d="m238.95 44.997c-2.279-0.151-3.998-0.935-6.721-0.585v-4.679h6.205c-0.41 2.409 0.79 3.001 0.51 5.264z"/>
	<path d="m236.36 126.3c0.338 2.72-1.213 3.307-3.617 2.924-0.54-2.96 1.46-3.04 3.62-2.92z"/>
	<path d="m233.78 193.56c-1.195 2.35-1.131 6.129-1.033 9.943h-2.585c-0.314-3.865 0.904-5.996 0.517-9.943h3.1z"/>
	<path d="m233.26 262.58v15.791c-4.72-0.898-1.766-10.48-2.584-15.791h2.58z"/>
	<path d="m230.68 26.281v1.169c0.654 2.301-1.219 1.74-2.584 1.755-0.773 16.867 1.702 37.41-1.551 51.472-10.126 0.047-18.461 2.12-27.917 2.924 0.804-4.4 8.495-4.306 12.924-4.679 5.072-0.428 9.798-1.398 13.958-2.34-0.396-9.69-0.345-19.886-1.034-29.245h-4.653c-0.386 7.261 0.829 12.71 0.517 19.887-5.457-0.13-9.078 1.817-13.959 2.339v-21.056c-0.075-1.646 1.267-1.688 2.585-1.754 0.276-2.264-0.923-2.856-0.518-5.265 3.123-0.218 5.714 0.165 8.272 0.585 0.283 0.849-0.604 3.023 0.517 2.924 1.737 0.601 0.805-1.819 1.034-2.924 2.203-0.043 3.616-0.979 6.204-0.585 0.301-5.995-0.908-10.282-0.518-16.377 3.17-0.671 3.37 2.033 6.72 1.17zm-9.31 16.377c-0.06 2.019 1.043 2.719 3.103 2.339v-2.339h-3.1zm-5.17 5.264c-1.552 0.778-3.955 0.595-6.203 0.585v17.547c2.363-0.25 4.383-0.889 7.237-0.585-0.36-5.829-0.4-12.027-1.04-17.547zm-5.68-4.094c0.403 0.129 0.602 0.49 0.517 1.169 1.48 0.115 2.822 0.072 2.585-1.755-0.91 0.337-3.04-0.706-3.1 0.586z"/>
	<path d="m228.61 15.752c-0.642 2.214-6.797 1.256-8.271 0.585v-1.17c0.661-2.565 5.409-0.508 7.754-1.17-0.04 0.831-0.08 1.656 0.52 1.755z"/>
	<path d="m214.65 97.639c0.176-5.518 8.844-4.335 12.924-3.51 1.43 5.749-9.31 1.629-12.92 3.51z"/>
	<path d="m226.54 151.45c-2.88-0.938-1.519-5.817-1.552-8.188-0.157-11.193-0.001-25.475-1.551-35.094-9.412-1.477-20.259 5.219-26.365 0 8.853-0.495 28.226-7.228 30.501 3.509-0.69 12.87 1.36 28.84-1.04 39.77z"/>
	<path d="m226.54 219.88c-2.418-1.236-1.955-5.992-2.068-8.773-0.388-9.561-0.415-20.691-1.035-29.83-1.222-2.127-2.533-4.152-4.135-5.849-7.372-0.94-15.227 2.255-20.162-1.17 9.247-0.517 25.025-3.359 27.917 5.265-1.01 13.64 2.26 28.62-0.52 40.36z"/>
	<path d="m225.51 292.41c-3.047-14.342 4.036-42.385-4.653-49.131-7.597-0.764-17.902 1.537-23.781-1.17 8.737-1.428 27.698-4.486 29.984 5.264-0.371 11.469 0.575 23 0.517 35.096-0.02 3.7 1.03 8.59-2.07 9.94z"/>
	<path d="m224.48 42.658v2.339c-2.059 0.38-3.163-0.32-3.103-2.339h3.1z" fill="#fff"/>
	<path d="m223.96 160.22c-3.396 0.333-1.645-5.157-2.068-8.188 2.98 0.15 1.89 4.88 2.07 8.19z"/>
	<path d="m223.44 220.47c-0.203 2.109 0.192 4.896-1.55 5.266-2.096 0.227-0.568-3.646-1.034-5.266h2.58z"/>
	<path d="m222.92 140.92v10.528c-3.825 0.428-6.986 0.106-7.754-2.925-3.751-0.345-6.001 1.011-9.306 1.17v-8.773h17.06z"/>
	<path d="m221.89 218.13c-6.084-0.256-11.509 0.234-17.06 0.584-0.372-7.439 0.853-13.072 0.516-20.473-0.363-2.164 2.21-1.008 2.585-2.338-1.859-2.742-2.258-9.016 0-11.697-1.793 0.504-2.868 1.822-4.135 2.924-0.438-10.069 17.783-9.631 17.577 1.754 0.531 1.965-1.607 0.912-2.585 1.17 3.59 6.47 2.84 17.85 3.09 28.09z"/>
	<path d="m217.75 15.752v2.925c-2.423-0.379-6.191 0.764-7.754-0.585v-1.17c0.66-2.566 5.41-0.508 7.75-1.17z"/>
	<path d="m217.24 65.469c-2.854-0.304-4.874 0.335-7.237 0.585v-17.547c2.249 0.01 4.651 0.193 6.203-0.585 0.64 5.52 0.68 11.718 1.04 17.547z" fill="#fff"/>
	<path d="m213.62 43.242c0.237 1.828-1.104 1.871-2.585 1.755 0.084-0.68-0.114-1.041-0.517-1.169 0.06-1.292 2.19-0.249 3.1-0.586z" fill="#fff"/>
	<path d="m209.48 25.111c-2.02 1.036-8.616 1.943-12.407 2.924 0.375-1.789-0.892-1.72-0.517-3.51 4.05 0.493 8.29 0.764 12.93 0.586z"/>
	<path d="m198.62 21.016c-0.404-4.746 3.882-4.187 7.238-4.679 3.31 5.074-4.29 3.331-7.24 4.679z"/>
	<path d="m205.86 221.05v1.756c-4.553-1.254-4.428 2.787-8.789 1.754v-3.51h8.79z"/>
	<path d="m204.83 48.507c-2.692-0.317-3.833 1.123-6.204 1.17-0.365-1.927-0.831-3.74-1.034-5.849 2.481-0.117 3.787-1.566 6.721-1.17-0.18 2.339 0.91 3.246 0.51 5.849z"/>
	<path d="m202.24 194.15c-1.484 2.221-2.258 5.246-2.584 8.775-1.88-1.383-1.146-5.725-1.551-8.775 1.38 0.01 2.76 0.01 4.13 0.01z"/>
	<path d="m197.08 263.17c-0.608 7.307 1.462 17.641-1.551 22.227-0.505-6.645-1.734-15.582-0.517-22.227h2.07z"/>
	<path d="m193.97 82.431c-2.363 0.642-3.769 2.364-5.687 3.51-7.284-0.796-15.555 3.409-20.679 1.169 6.438-3.44 17.131-2.065 23.781-5.263v-28.661c-1.224-1.345-4.641-0.209-6.721-0.584v-5.265c2.279-0.151 4-0.935 6.721-0.584 0.403-7.476-0.175-13.84-1.551-19.303 6.791-0.123 5.471 7.879 5.17 15.208-0.51 12.489-0.35 28.775-1.03 39.773zm-5.68-32.754c0.284 1.027 4.172 1.267 3.102-1.17-0.29-1.027-4.17-1.267-3.1 1.17z"/>
	<path d="m194.49 21.016c-3.226-0.334-5.051 0.914-7.755 1.17 0.212-1.41-0.945-1.271-0.517-2.924 2.71 0.132 8.5-3.67 8.27 1.754z"/>
	<path d="m193.46 152.62c-2.88-1.009-1.516-5.728-1.551-8.188-0.145-10.27-0.721-21.613-0.517-32.171h-21.196c0.011 4.549 2.783 11.954 0 15.792-2.636-0.858 0.274-4.462-0.518-7.018-1.203-2.733-1.954-5.978-1.55-10.529 8.618-0.387 16.594-1.501 25.848-1.169-1.02 14.63 2.26 30.58-0.51 43.29z"/>
	<path d="m193.46 219.88c-3.027 2.424-9.802 0.607-14.475 1.17-0.769 0.887-0.833 2.568-1.034 4.094-4.055-0.828-8.702 2.516-9.822-1.754 1.393-1.348 4.986-0.207 7.237-0.584 1.596-7.27-0.461-15.465 0-23.398-0.262-2.244 3.105-0.385 3.102-2.338 0.583-2.805-1.972-2.061-2.585-3.51-0.142-4.645 2.391-6.264 4.135-8.773-4.8-1.23-5.161 5.322-8.271 4.094-0.408-11.802 19.243-8.385 18.094 3.51-1.403 0.361-4.102-0.744-4.653 0.586v1.754c-0.414 2.223 2.445 0.744 3.619 1.17 0.343 6.631-0.687 14.814 0.517 20.471h1.034c0.826-9.602 3.874-34.014-2.585-38.604-7.164-1.645-16.504 5.094-19.645-1.169 7.234-1.088 21.171-3.469 25.332 2.339-0.68 14.02 1.56 27.83-0.01 40.94z"/>
	<path d="m193.46 292.41h-19.128c-2.611-0.449 1.629-1.617 1.034-3.508-0.524-15.104-2.198-31.717 6.204-38.02-6.078-0.049-10.009 5.438-10.856 9.357-3.245-0.48 0.23-4.562 0-7.018 4.192-3.055 7.262-7.381 14.993-6.434 3.294 2.902 2.615 10.299 2.584 16.961h2.068c2.771-4.773-0.433-12.709 0.517-19.301-6.668-1.691-14.366 0.512-21.196 0.584 0.967 5.082 0.462 8.691-2.584 10.529-1.12-3.609-0.126-9.605-1.034-13.453 8.8-0.377 17.537-0.824 26.882-0.586-0.34 17.56 0.89 33.32 0.53 50.89z"/>
	<path d="m191.9 161.39c-3.832 1.351-3.028-5.575-1.035-5.849 0.94 1.29 0.46 4.17 1.04 5.85z"/>
	<path d="m191.9 229.24h-3.102v-5.264h2.585c-0.4 2.41 0.8 3 0.52 5.26z"/>
	<path d="m191.39 48.507c1.07 2.437-2.818 2.197-3.102 1.17-1.07-2.437 2.81-2.197 3.1-1.17z" fill="#fff"/>
	<path d="m190.35 143.26c1.401 5.68-2.518 5.34-2.068 9.943-4.05-0.293-7.306 0.312-10.856 0.585-0.687-4.459-0.087-6.469 1.551-9.357 3.11-1.16 7.11-1.32 11.38-1.16z"/>
	<path d="m189.84 122.2c-6.269-0.403-11.219 1.45-12.407 8.189-2.129-0.905-2.431-3.877-4.135-5.264 1.43-7.29 12.8-9.47 16.54-2.93z"/>
	<path d="m186.22 27.45c-2.306 5.97-11.192 4.496-16.543 7.019v-3.509c5.75-0.9 10.38-3.063 16.54-3.51z"/>
	<path d="m185.18 89.45v4.679c-2.322-0.288-3.874 0.297-5.687 0.585v-4.679c1.82-0.289 3.37-0.872 5.69-0.585z"/>
	<path d="m183.63 23.356c-3.226-0.335-5.051 0.914-7.755 1.169 0.146-0.944-0.489-1.007-0.517-1.755 1.12-2.632 4.542-2.66 7.754-2.925-0.37 1.79 0.9 1.722 0.52 3.511z"/>
	<path d="m183.12 52.016c-0.623 2.219-4.398 0.874-6.204 1.755v-5.264c1.629 0.054 3.9-2.172 5.17-0.585 0.728 2.577-1.7 1.584-3.101 1.755-0.51 2.9 3.26 0.982 4.13 2.339z"/>
	<path d="m175.36 132.73c-2.232 2.934-3.145 7.361-3.619 12.284-4.278-0.035-1.078-8.529-2.068-12.284 1.57-0.79 4.13-0.79 5.69 0z"/>
	<path d="m174.33 54.356c-2.691-0.317-3.832 1.123-6.203 1.17-0.365-1.927-0.831-3.741-1.034-5.849 2.481-0.117 3.787-1.566 6.721-1.17-0.18 2.339 0.91 3.246 0.51 5.849z"/>
	<path d="m163.47 26.281c0.146-0.945-0.489-1.007-0.517-1.755 1.09-2.47 4.097-2.773 7.238-2.924 3.24 4.91-3.86 3.362-6.72 4.679z"/>
	<path d="m167.09 278.96c-0.846-4.695-1.049-10.121-1.034-15.791h3.101c0.74 6.65 0.59 11.81-2.07 15.79z"/>
	<path d="m168.64 191.22c-3.855-0.123-1.359-7.432-2.068-11.113 3.7 1.29 2.22 6.57 2.07 11.11z"/>
	<path d="m169.16 195.32c-0.911 5.012 0.492 12.645-2.067 15.793-3.827-2.207 0.168-9.648-1.034-14.623 1.51 0.15 1.58-1.33 3.1-1.17z"/>
	<path d="m167.09 32.13c-4.281 14.264 1.533 39.947-3.619 53.226h-2.584c-0.511-3.893 0.49-6.074 2.067-7.604v-19.301c-0.385-1.32-2.9-0.229-4.136-0.586-0.332 6.225 0.893 10.689 0.518 16.963-4.574-0.302-7.927 0.779-11.891 1.17 0.323-4.655-0.898-7.562-0.517-12.284 1.257-0.722 3.355-0.493 3.619-2.339 0.654-2.301-1.219-1.741-2.585-1.755 0.366-2.169-0.883-2.51-0.517-4.68 2.481-0.118 3.786-1.565 6.721-1.169 0.498 2.708-2.139 1.869-3.102 2.925 0.223 1.308 2.548 0.237 3.619 0.585-0.36 2.942 0.877 4.077 0.517 7.02h-3.102v8.187c0.885 1.339 3.946 0.216 5.687 0.586-0.748-7.343-1.611-14.556-2.068-22.227h7.237c1.2-3.321 0.177-9.158 0.517-13.453-0.476-1.021-1.616-1.291-3.102-1.169 0.75-4.298 3.47-2.743 6.71-4.095zm-8.27 22.81c0.742 0.989 4.514 0.462 4.653-1.169-1.43 0.525-4.85-1.203-4.65 1.169z"/>
	<path d="m164.5 153.79c-4.996 0.196-7.382 3.346-12.924 2.925-0.436-2.822-0.708-5.828-1.034-8.773 3.669-0.333 7.178-0.849 11.373-0.585-0.776-4.386 0.062-10.599-2.584-12.867 0.268-2.037 3.106-1.165 2.584-4.096-1.12-5.868-7.107-4.664-11.373-2.924-0.333 2.354 0.672 6.22-0.517 7.604h-1.551c-2.221-0.995 0.279-7.334-3.618-6.434 0.607-8.861 13.498-8.25 17.06-2.924 1.298-4.323-0.259-7.023-2.068-9.359-6.467-0.297-11.212 1.353-17.06 1.755-0.646 4.535 1.317 12.02-1.034 14.623-3.458-2.131-0.634-11.371-1.551-16.377 6.634 0.065 13.965-4.779 19.645-3.509 6.949 1.553 4.949 10.146 5.17 19.887 0.455 1.88-1.704 0.803-1.551 2.34 0.27 6.31 0.75 12.4 1.02 18.71z"/>
	<path d="m163.47 53.771c-0.139 1.631-3.912 2.159-4.653 1.169-0.2-2.372 3.22-0.644 4.65-1.169z" fill="#fff"/>
	<path d="m160.37 294.17h-13.958c5.709-5.625-2.944-23.594 3.619-28.076-0.59-2.258-2.228-3.328-2.585-5.85 1.197-1.959 2.455-3.85 3.619-5.85-4.605-1.492-6.549 3.105-8.271 2.926-1.065-5.199 5.084-6.803 8.788-5.85 5.703 1.469 6.597 10.135 6.204 18.133h2.584c0.861-6.438-0.869-15-1.034-22.227-6.61 1.295-18.134-2.969-20.679 2.926-0.826-1.602-1.064-3.865-1.033-6.436h22.229c1.57 14.57 4.25 37.16 0.52 50.31z"/>
	<path d="m161.92 222.22h-12.407c0.897-8.561-2.732-19.344 1.551-24.566 0.531-1.965-1.608-0.91-2.585-1.17v-7.02c-3.863-0.082-2.699 5.527-6.203 5.85-1.667-6.416 10.968-15.535 16.026-6.434-0.307-2.771-0.423-5.76-1.551-7.604h-15.509c-1.482 3.197 0.259 10.041-2.067 12.283-3.361-0.877-0.703-8.564-1.55-12.283 3.222-3.26 22.428-5.633 24.297 0.584 2.95 9.83-2.2 28.9-0.01 40.36z"/>
	<path d="m160.89 87.696c0.375 1.789-0.893 1.72-0.518 3.509-6.932-0.626-13.627 2.125-19.128 1.17-0.863-3.6 2.574-1.939 4.137-2.34 4.192-1.076 8.716-2.132 13.958-2.339h1.55z"/>
	<path d="m160.37 229.83c-3.544 0.891-3.299-2.506-4.136-4.68h3.619c-0.36 2.17 0.89 2.51 0.52 4.68z"/>
	<path d="m159.85 28.62c-3.225-0.334-5.05 0.914-7.754 1.17 0.146-0.945-0.488-1.007-0.517-1.754 1.12-2.632 4.542-2.66 7.755-2.924-0.38 1.787 0.89 1.719 0.51 3.508z"/>
	<path d="m157.27 35.055v2.338c-5.034-1.059-10.754 3.955-13.441 0 3.73-1.63 8.38-2.215 13.44-2.338z"/>
	<path d="m150.03 30.375c-3.225-0.335-5.051 0.915-7.754 1.169 0.146-0.944-0.489-1.007-0.517-1.754 1.12-2.633 4.542-2.66 7.754-2.925-0.37 1.788 0.9 1.72 0.52 3.51z"/>
	<path d="m149 226.32c-2.077 1.354-6.369 0.203-9.305 0.586-3.655-5.031-1.958-19.229-1.552-26.906h2.069c2.784 6.131-0.431 15.459 0.517 23.396 2.61 1.12 6.91 0.34 8.26 2.92z"/>
	<path d="m146.93 59.62v2.925h-6.721v-5.849c1.792-0.253 5.337-1.623 6.203 0.585-0.07 1.675-3.548-0.506-3.618 1.17-0.31 2.305 2.84 0.687 4.14 1.169z"/>
	<path d="m146.93 138c-0.634 2.987-3.588 3.35-4.653 5.85-0.705 5.052 0.175 11.895-2.068 15.207-0.661-6.017-1.536-17.332 1.033-21.641 1.9 0.18 4.58-0.51 5.69 0.58z"/>
	<path d="m140.21 265.51c0.003 7.217 0.624 15.133-2.069 19.301-0.885-4.906-0.828-13.799 0-18.717 0.93 0.07 1.09-0.71 2.07-0.58z"/>
	<path d="m139.17 33.884c-3.225-0.334-5.051 0.914-7.754 1.171 0.146-0.945-0.489-1.007-0.518-1.756 1.186-2.559 4.36-2.866 7.755-2.924-0.38 1.789 0.89 1.72 0.51 3.509z"/>
	<path d="m132.45 223.39c-3.382-0.316-5.885 0.361-8.789 0.586-0.632-9.812 1.301-22.529-1.034-30.416-4.206-1.055-0.577 6.756-5.169 5.264-1.673-2.021 1.598-8.236 3.619-9.943 3.548-0.115 6.192 0.793 8.789 1.756 0.69-1.201-1.61-4.006-2.068-5.85h-13.958c0.03 6.664-0.166 13.07-1.034 18.717-2.781-0.99-1.55-6.207-1.55-9.943v-11.113c6.454-0.146 13.67-2.416 20.162-0.586 2.27 11.66 0.45 27.95 1.03 41.52z"/>
	<path d="m129.87 225.73c-0.328 1.969 0.666 5.432-0.517 6.434-2.335-0.283-1.271-4.412-2.068-6.434h2.59z"/>
	<path d="m127.8 99.394v5.263h-4.653v-4.679c1.7-0.028 2.57-0.99 4.65-0.587z"/>
	<path d="m126.77 64.884c-2.201-0.346-3.419 0.421-5.17 0.585v-4.68c1.702-0.025 2.574-0.987 4.653-0.584-0.11 1.883 0.91 2.475 0.52 4.679z"/>
	<path d="m125.73 162.56c-1.495 2.412-5.654 4.899-9.305 2.925v-1.17c1.47-2.44 5.91-1.5 9.31-1.75z"/>
	<path d="m123.15 145.02c-1.138 1.05-3.684 0.51-5.169 1.17-0.383 4.634 1.119 11.402-1.551 13.452-1.202-4.294-0.175-11.11-0.517-16.378 2.74-1.03 6.34-0.91 7.24 1.76z"/>
	<path d="m121.08 226.32c-2.882 1.223-5.654 2.572-8.789 3.51 0.375-1.789-0.891-1.721-0.517-3.51h9.31z"/>
	<path d="m119.53 62.544v4.679c-1.948-0.45-2.472 0.714-4.136 0.585 0.277-2.263-0.923-2.855-0.517-5.264h4.66z"/>
	<path d="m119.01 202.34c0.415 2.029-0.771 2.248-0.517 4.094h-2.585v-4.094h3.11z"/>
	<path d="m113.84 223.39h-1.551c-2.048-3.576-0.823-13.344 0.517-16.963 1.64 3.8 1.89 12.29 1.03 16.96z"/>
	<path d="m113.33 267.26c-0.179 5.258 0.916 11.955-2.068 14.039-1.201-3.518-0.177-9.551-0.518-14.039h2.59z"/>
	<path d="m109.19 224.56c-2.988-0.262-5.297 0.246-7.754 0.584-0.794-9.045 0.019-19.908-2.068-27.49-3.698-0.285-2.436 5.043-3.619 7.604-3.696-1.158-2.202-10.758 0-12.281 2.076-0.576 4.536-0.717 7.237-0.586-0.386-2.293-2.017-3.178-2.585-5.264-3.339-0.316-7.837 0.678-10.339-0.586 4.555-3.156 11.118-0.701 17.577-1.17 0.48 13.11 1.1 26.06 1.55 39.2z"/>
	<path d="m108.16 97.639c0.375 1.79-0.893 1.721-0.518 3.509-5.714 0.748-9.73 3.419-14.992 4.679 1.294-7.115 9.752-6.129 15.512-8.191z"/>
	<path d="m106.6 72.487v14.039c-1.514-0.153-1.589 1.322-3.102 1.17v-12.868c-5.662-0.362-0.3 11.749-3.619 14.037-1.97-3.425-1.201-9.949-1.551-15.208 2.83-0.311 4.97-1.399 8.27-1.17z"/>
	<path d="m105.57 227.49v6.434h-2.585c0.234-2.799-0.374-4.646-1.551-5.85 0.39-1.32 2.9-0.23 4.14-0.58z"/>
	<path d="m101.44 66.638v4.095h-3.102v-3.509c1.213 0.013 1.517-1.008 3.102-0.586z"/>
	<path d="m99.884 228.07c-2.117 1.701-4.212 3.424-8.271 2.926-0.375-1.789 0.892-1.721 0.517-3.51 2.987-0.26 5.296 0.24 7.754 0.58z"/>
	<path d="m99.367 145.02v3.508c-1.666-0.26-2.801-1.119-4.653-1.169-1.197 2.544-0.179 7.596-0.517 11.113-1.58-0.423-1.884 0.598-3.102 0.585 0.254-4.977 0.854-9.562 1.034-14.622 2.819-0.27 4.248 1.03 7.238 0.58z"/>
	<path d="m96.265 72.487c-1.58-0.422-1.884 0.599-3.102 0.586v-3.51c2.3-0.458 3.305 0.551 3.102 2.924z"/>
	<path d="m93.681 140.92h-1.034c-1.917-0.194-1.137-6.48-0.517-7.603h1.034c1.916 0.19 1.137 6.48 0.517 7.6z"/>
	<path d="m92.129 270.19v19.301c-1.678-0.338-2.405 0.398-3.618 0.584-0.357-7.227 0.872-12.658 0.516-19.885 1.035 0.01 2.069 0.01 3.102 0.01z"/>
	<path d="m89.027 105.83c-2.871-1.622-1.551-6.833-1.551-9.943 0-12.212 0.875-25.475 0.517-38.019-5.984-1.299-8.879 6.438-12.924 3.51 0.103-2.633 5.177-5.15 9.305-5.849 1.897-0.321 4.178 0.242 6.204 0-0.995 16.462 3.892 38.095-1.551 50.301z"/>
	<path d="m90.579 225.73c-2.849-0.352-1.387-5.25-1.551-8.189-0.229-4.125-1.754-9.553 0.517-11.697 2.869 0.719 1.404 6.449 1.551 9.943 0.151 3.61 1.836 8.2-0.517 9.95z"/>
	<path d="m91.096 201.17c-1.461-0.482-1.339 0.824-2.584 0.586-0.358-4.109 0.874-6.42 0.516-10.529 2.198 1.6 1.734 6.22 2.068 9.94z"/>
	<path d="m86.442 75.998h-2.068c0.176-1.814-1.197-2.795 0-4.095 2.141-0.276 1.374 2.735 2.068 4.095z"/>
	<path d="m85.409 105.24c-1.35 4.906-7.374 4.526-10.856 7.018 0.253-1.846-0.932-2.065-0.518-4.094 3.868-0.89 7.16-2.43 11.374-2.93z"/>
	<path d="m84.375 135.07c-3.182 0.885-7.615 0.353-9.305 2.925-0.022-1.926-0.873-2.911-0.517-5.265 2.704-0.255 4.529-1.504 7.754-1.169 0.852 0.98 1.123 2.62 2.068 3.5z" fill="#fff"/>
	<path d="m83.858 49.091c0.414 2.03-0.77 2.249-0.517 4.095-7.262-0.807-10.016 3.487-14.993 5.265-1.197-1.301 0.176-2.282 0-4.095 4.064 1.284 3.354-2.835 5.169-4.095 2.564-0.755 2.54 1.416 4.653 1.17 1.121 0.098 0.233-2.074 0.517-2.924 2.202-0.346 3.42 0.421 5.171 0.584z"/>
	<path d="m83.341 111.09v4.679h-4.653v-4.095c1.702-0.03 2.574-0.99 4.653-0.59z"/>
	<path d="m82.307 229.83c-0.618 2.225 1.476 7.518-1.551 7.02-2.039 0.357-0.609-3.211-1.034-4.68-4.59-1.295-3.682 3.633-8.271 2.34 0.366-2.17-0.883-2.51-0.518-4.68h11.374z"/>
	<path d="m81.79 77.752c-1.58-0.423-1.884 0.597-3.102 0.584-0.337-2.721 0.182-4.474 2.584-4.094-0.011 1.379 0.892 1.723 0.518 3.51z"/>
	<path d="m80.239 169.58c0.375 1.788-0.892 1.721-0.517 3.509-2.588-0.394-4.001 0.542-6.204 0.585v-4.094c2.241-0.01 4.481-0.01 6.721-0.01z"/>
	<path d="m76.62 209.94c-0.385 1.318-2.899 0.229-4.135 0.584-0.813 5.711 1.953 15.469-2.068 17.547-0.833-6.465-1.028-13.652-1.034-21.055 2.249-0.01 4.651-0.193 6.204 0.584 0.07 1.09 0.339 1.96 1.033 2.34z"/>
	<path d="m76.103 77.167v2.924c-2.139 0.471-2.653-0.897-2.585-2.924h2.585z"/>
	<path d="m70.417 293c-0.531-7.232-1.533-20.059 0.516-26.322 1.425 2.838 1.354 8.627 1.552 13.455 0.204 4.95 1.066 11.1-2.068 12.86z"/>
	<path d="m67.832 78.336v3.51c-2.219-0.562-3.08 0.414-2.584 2.924-1.366 0.015-3.24-0.546-2.585 1.754h-5.169c-0.212-1.409 0.944-1.271 0.516-2.924h3.102c0.427-1.653-0.729-1.515-0.517-2.924 1.862 0.158 3.576 0.146 3.102-2.34h4.135z"/>
	<path d="m65.764 56.11c-0.375 1.332-0.461 2.988-1.034 4.095-4.813-1.547-3.755 3.55-7.237 3.509-1.442-2.376-1.581-3.652 0-5.849 4.364 1.235 4.569-2.239 8.271-1.755z"/>
	<path d="m64.213 173.09v3.51c-2.692-0.315-3.832 1.123-6.204 1.169 0.375-1.789-0.891-1.72-0.516-3.509 2.481-0.12 3.785-1.56 6.72-1.17z"/>
	<path d="m62.662 193.56v4.094c-4.043 0.301-4.439 4.727-7.238 6.436-2.283-0.928-0.438-6.523-1.034-9.359 2.535-0.64 5.917-0.32 8.272-1.17z" fill="#fff"/>
	<path d="m62.662 254.98c-0.002 5.262-2.677 7.5-4.136 11.113-0.343 10.916 0.884 20.057 0.517 31-13.684 0.342-28.689 1.541-41.358 1.17-0.98-12.734-1.321-26.191-2.068-39.188h5.687v34.508c1.373-0.004 2.952 0.223 3.619-0.584 1.205-9.945 0.172-22.42 0.517-33.34h4.652v33.34c0.717 1.334 3.599 0.219 5.17 0.584-0.355-12.686 0.873-23.578 0.518-36.264 2.711 0.441 7.161-1.082 8.271 1.17-3.413 0.82-3.822 5.033-4.653 8.773 0.55 1.328 3.25 0.223 4.653 0.586v24.564c0.717 1.336 3.598 0.219 5.169 0.586-0.278-12.553-0.756-24.881-1.034-37.434 1.644-0.09 2.274-1.326 4.136-1.172 0.344 12.09-0.689 25.736 0.517 36.852 2.772-1.361 1.551-8.412 1.551-12.869v-14.037c1.566-1.932 4.169-2.691 5.169-5.264-2.663-0.869-2.223 1.773-4.652 1.168v-5.264c2.586-0.01 5.171-0.01 7.755-0.01zm-22.23 16.38c-0.114-0.457-0.433-0.682-1.034-0.586 0.343 6.438-0.686 14.424 0.517 19.887 2.263-3.34 2.346-15.21 0.517-19.3z" fill="#fff"/>
	<path d="m60.594 154.96c-4.014 1.698-0.91 11.449-3.102 15.208-2.595-0.135-1.66-5.606-1.551-8.774 0.115-3.349-0.21-7.293 1.551-8.188 2-0.51 1.84 1.42 3.102 1.75z"/>
	<path d="m54.908 66.054c-1.118 0.49-1.763 1.515-3.619 1.17 0.375-1.79-0.893-1.721-0.518-3.51 1.552-1.708 4.787-1.498 4.137 2.34z"/>
	<path d="m41.466 91.205c0.189-4.699 0.236-9.236-2.584-10.528 3.519-2.063 6.043-5.252 11.89-4.679-0.339 3.71 0.682 8.96-0.517 11.698-2.817 1.296-5.632 2.596-8.789 3.509z" fill="#fff"/>
	<path d="m50.771 117.52c-3.116 0.017-6.365 0.183-8.788-0.584 0.115-7.539-0.657-14.076-1.034-21.058 1.8-3.812 6.531-4.31 8.789-7.604 2.395 7.43 0.357 19.872 1.033 29.242z" fill="#fff"/>
	<path d="m50.771 123.96c-2.026 1.411-3.881 3.018-6.203 4.094-0.52-0.776-0.489-2.175-1.551-2.338 1.873-1.34 5.592-4.32 7.754-1.75z"/>
	<path d="m46.636 136.83v2.341h-4.137c1.082-1.12 2.469-1.89 4.137-2.34z" fill="#fff"/>
	<path d="m43.534 123.37c-3.074 1.608-5.759 6.061-9.822 4.679 2.679-2.05 5.174-6.72 9.822-4.68z"/>
	<path d="m39.915 290.66c-1.203-5.463-0.174-13.449-0.517-19.887 0.601-0.096 0.919 0.129 1.034 0.586 1.829 4.09 1.746 15.96-0.517 19.3z"/>
	<path d="m40.949 147.94c-0.542 13.425 1.218 29.453-4.135 37.433-3.524-0.477-5.14 1.205-7.755 1.756 0.791-4.76 6.771-3.648 8.271-7.604-3.525-1.066-1.331-6.039-1.55-9.944-0.411-2.061-2.43 1.771-2.585 0-0.139-5.941 1.91-13.178-1.55-16.378 2.711-2.2 5.142-4.72 9.304-5.27z"/>
	<path d="m20.271 245.03c-0.114-1.883 0.915-2.475 0.517-4.68 2.109-0.148 2.553-2.18 5.17-1.754 1.191 3.71-2.191 6.2-5.687 6.43z"/>
	<path d="m25.957 186.54c0.415 2.029-0.77 2.25-0.517 4.096-1.607-0.521-2.408-1.955-4.135-2.342 1.43-0.72 2.767-1.55 4.652-1.76z"/>
	<path d="m19.236 188.3c0.844 0.807-0.362 4.236-0.516 5.85-1.232-0.945-2.279-2.102-3.619-2.924 1.342-1.02 4.243-0.28 4.135-2.93z"/>
	<path d="m17.168 241.52c-0.186 2.326-0.556 4.441-2.068 5.266-2.899-1.57-0.73-5.27 2.068-5.27z"/>
	<path d="m11.481 233.34c-1.367-5.863-1.154-13.512-1.551-20.471 1.294-0.488 2.03-1.604 3.619-1.756-0.967 7.62 3.169 18.72-2.068 22.23z" fill="#fff"/>
	<path d="m14.066 297.09h-3.618c0.64-10.67-1.596-21.197 0-31 3.751 2.35 2.338 9.768 2.584 15.209 0.251 5.52 0.825 11.21 1.034 15.79z" fill="#fff"/>
	<path d="m14.583 147.94c21.754-13.896 47.847-22.413 74.961-30.416 36.631-10.81 72.863-19.911 118.39-20.471-10.327 1.99-18.571 4.082-29.984 4.679-23.024 1.206-45.314 9.369-66.689 14.623-21.92 5.389-42.789 11.875-62.554 19.302 4.054 0.177 10.633-0.514 16.026-2.339 1.674-0.567 3.163-2.315 4.653-2.926 5.973-2.444 11.443-0.46 18.611-1.754 6.351-1.147 13.876-5.708 21.712-3.51 4.219 14.781-0.967 31.315-1.034 46.792 7.626-1.119 14.889-2.651 22.747-3.509v-8.189c-1.223-1.345-4.64-0.208-6.721-0.584 0.292-2.671-0.917-3.643-0.517-6.435 3.551-0.271 6.806-0.878 10.856-0.585-1.31-7.319 1.197-21.295-4.653-22.227-3.697-0.589-7.324 5.197-5.687 11.698-10.705-3.59-4.353-20.262 7.237-14.038 1.179-0.81 0.193-4.07 0.518-5.849-6.163-0.147-10.451 1.826-16.026 2.341 0.004 5.659 0.475 11.844-1.551 15.207-0.846-5.085-1.048-10.901-1.034-16.961 7.589-1.357 14.083-3.954 22.229-4.68-0.365 12.891 0.862 23.981 0.517 36.849 0.531 1.966-1.607 0.911-2.585 1.17 0.434 3.799 0.3 8.239 1.034 11.698 7.474-0.708 14.517-1.902 22.23-2.34 1.477-1.129-2.131-7.025 0.517-7.603 3.458-0.6 1.807 4.582 2.584 7.018 35.308-2.205 73.988-2.408 111.15-5.849 19.805-1.834 42.963 0 65.137 0 23.631 0 47.881-0.462 68.24 0.585 10.08 0.517 20.09-2.617 29.469 2.924-5.777 0.087-11.678 1.707-17.578 1.171-2.65-0.242-5.309-2.041-7.236-2.341-14.266-2.221-33.861 0-52.73 0-54.031 0-100.84 2.662-151.48 5.265-34.177 1.756-65.777 7.628-96.673 11.699-7.903 1.041-15.217 1.178-22.747 2.924-6.916 1.604-13.825 3.838-20.678 5.264-13.835 2.881-27.583 4.504-39.291 9.943-3.13 1.455-8.236 2.621-8.789 7.605 16.349-9.773 42.302-13.752 67.206-15.795 4.476 9.863 0.568 25.977 1.551 39.189h-6.721c-0.135-8.312-2.581-18.35 1.551-23.395-0.595-2.059-2.932-2.143-3.619-4.096-1.142 0.072-0.219 2.48-0.517 3.51-1.607-0.521-2.408-1.955-4.135-2.34 0.66-4.127 3.817-5.43 7.237-6.434-0.002-5.684-5.509-2.674-8.789-2.34-1.217 0.666 1.85 6.92-0.516 7.018-3.749 1.123 0.646-6.969-3.102-5.848-3.302 1.596-1.161 6.797-1.034 9.943 0.339 8.432-0.047 18.332 0.517 26.32 0.49 2.113-2.036 0.816-3.102 1.17v5.85c-2.169-1.445-6.723-0.193-8.271-2.34-0.666-3.873 5.299-0.244 6.204-2.34 0.967-2.654-2.054-0.797-1.55-2.924-1.096-4.611 2.362-14.373-2.069-15.209-3.265 2.789 3.021 13.898-2.067 15.209-2.387-5.488-0.364-15.967-1.034-23.396 0.233-1.629-2.817 0.459-2.585-1.17v-9.359c-6.394-0.656-3.325 14.334-3.102 19.887 0.239 5.947-0.185 11.621 0 16.377-2.373 0.541-2.498-1.463-4.652-1.168 0.956 3.217 5.799 5.125 3.619 9.941-3.953 0.379-1.481-6.512-5.688-5.848 1.803-9.488 0.491-19.746 0.518-30.414-5.406 4.021 0.961 21.363-3.619 26.32-0.871-9.566-1.386-23.793 1.551-31.002-1.638-2.08-4.721-0.727-6.72 0 5 10.66-0.421 29.271 1.033 41.529-3.298-1.625-3.08-1.791-5.687 0.584-1.964-4.113 1.198-4.002 3.619-4.678 0.147-2.506-1.85-2.586-3.619-2.926 4.256-6.688-1.392-24.58 3.619-30.414-1.726-0.957-7.253-1.203-8.271 0.586-0.941 3.207 2.154 1.852 2.067 4.092-1.213 9.352 2.169 23.902-4.136 27.492-2.71-7.268 0.291-20.996-1.55-29.246-6.064 1.668-3.809 12.633-4.136 21.057-0.139 3.584-0.936 6.988-0.517 9.943-2.931 0.314-4.008 0.695-6.203-0.584-0.357 5.277 0.874 8.76 0.517 14.037 24.562-4.305 49.172-10.486 75.477-12.283 12.171-0.83 24.637-2.279 37.222-2.924 49.258-2.531 100.81-3.691 149.41-8.189 26.934-2.494 55.793 0.857 84.783-0.584 28.578-1.422 57.207-0.963 82.197-0.586-1.066-1.521-3.342-1.678-4.652-2.924 0.373-7.051-0.852-12.295-0.518-19.301 5.324 0.02 2.33 9.451 3.104 14.621 1.389 3.525 3.744 2.676 4.652 5.85 1.111 3.887-3.215 8.295 1.033 10.527-7.383 6.428-4.111 22.004 0.518 28.66 2.061-5.061-1.686-11.084-1.551-14.037 0.635-0.256 1.061-0.748 1.033-1.754 3.799-1.639 8.537 0.387 10.34 2.924 0.238 12.793 0.947 25.055 1.033 38.02-2.959 4.449-10.637 3.561-17.576 3.508 1.154-3.178 5.957-2.229 9.822-2.34 3.695-14.98-6.611-21.689-9.305-32.754-1.273-5.23-2.357-19.529 2.066-21.055-0.893-2.74-2.123-4.705-0.516-7.605-145.88-0.115-288.19 3.832-416.16 23.98 7.082 3.65 14.067 0.275 21.196-0.584 7.241-0.873 14.712 0.197 22.229-0.586 21.555-2.242 43.798-6.002 65.656-6.434-0.348 16.381 0.88 30.98 0.517 47.377h-10.856c1.346-12.123-2.42-30.031 4.135-36.264-3.972-6.686-6.798 2.551-8.789 5.264-5.25-8.742 10.575-14.266 12.408-5.264v-8.188c-5.024-0.227-9.491 0.18-13.958 0.584-2.635 1.699-1.53 7.627-2.584 11.113-3.254-0.607-0.797-7.678-2.585-9.943h-2.584c-0.835 14.068-1.027 28.863-1.034 43.867h-7.238v-23.395c-0.31-1.521 0.208-2.105 1.551-1.756-2.179-2.871-3.714-10.109 2.068-11.697-4.991-3.342-8.333 1.229-10.339 4.678-1.052-5.49 4.753-7.729 9.305-8.773-2.492-1.049-8.52-1.07-10.339 0.586-1.061 3.09-0.294 8.244-1.551 11.113-1.935-2.49-1.158-8.049-1.551-12.283-1.678-0.34-2.405 0.398-3.618 0.584-1.459 12.777-0.902 27.836-1.551 41.529h-6.203c1.109-8.383-0.387-18.283 1.033-25.736 0.604-3.164 3.329-5.275 1.551-8.189-0.789-1.838-3.964-0.973-6.204-1.168 0.913-3.391 5.846-3.559 8.272-3.51 0.375-4.908-5.921-2.27-9.305-2.926-1.805 2.248 0.059 8.646-2.585 9.945-2.935-0.902 1.143-6.268-1.034-8.191-4.517-0.473-2.43 8.863-2.585 12.869-0.365 9.389-1.295 20.699-1.55 29.246 54.723 2.377 115.46 2.275 171.12-0.586 19.732-1.014 40.889-0.168 61.004-1.168 38.387-1.91 76.479-3.896 113.73-2.342-76.463 5.832-155.51 3.639-235.22 7.604-45.257 2.252-90.33-1.641-134.41 1.756 41.653 2.904 83.463 5.963 128.21 8.188 25.465 1.268 60.062-2.158 87.886 0-2.523-0.195 0.029 1.441 2.584 0.586-4.516 1.512-7.834-1.232-11.373 0-48.642 4.158-101.65 6.518-152.51 2.34-23.762-1.953-49.952-1.832-71.859-5.264-6.635-1.041-13.409-4.203-20.162-4.094-4.767-8.236-0.195-22.564 1.551-32.17-1.072-2.111-4.484 1.086-5.17-0.586-0.74-5.906 4.229-5.354 2.585-12.283-0.564-2.068-2.538 2.068-3.102 0-0.768-4.377 2.773-3.881 3.102-7.02 0.49-4.164-0.991-8.281-0.518-12.281 0.244-2.066 1.709-3.424 2.068-5.266 1.011-5.195 1.355-13.6 0.517-18.131-0.411-2.225-2.931-4.354-3.102-7.02-0.148-2.318 1.56-4.232 2.068-7.018 0.999-5.477 0.203-15.559 0.517-23.396 0.162-4.028 0.932-7.539 0.517-9.944-0.612-3.548-3.163-4.922-2.067-8.189 0.786-2.349 3.116-2.984 5.686-4.094-0.417-2.062-3.155-1.499-3.101-4.094 1.156-9.222-0.901-22.077 3.101-28.076-2.56-2.951-2.372-9.014-2.584-14.623 0.803-2.467-2.87 0.128-2.068-2.339 5.013-14.168 15.304-24.58 24.815-34.51 9.595-10.018 21.773-16.578 33.086-24.565 6.721 1.223 9.853-4.253 15.509-2.339 2.712-0.05 2.02-3.954 4.652-4.095 6.059 0.943 8.153 6.373 12.924 8.773 4.922-2.425 14.07-0.068 16.027-5.849 10.766 1.848 12.99-5.97 11.89-17.547 18.407-8.691 39.644-11.939 61.52-15.792 47.312-8.332 100.23-14.11 156.13-9.358 1.658 3.852-1.086 4.587-2.584 6.433 1.734 3.498 4.793 5.496 7.754 7.604 6.084 15.732 10.672 33.158 16.025 49.717 4.105 2.959 9.277 4.71 11.891 9.359 2.479 23.138 3.561 48.666 11.373 68.433h16.025c1.318-2.995 1.012-7.826 1.035-12.283 4.711-0.455 8.469 0.168 10.855 2.341 28.957 0.578 50.854 9.144 67.725 23.396 5.664 10.13 4.396 28.738 5.17 47.962 1.035 25.809 1.418 50.107 2.584 74.867-6.387 3.691-14.17 5.805-21.713 8.189-1.146 0.846-1.367 2.742-1.551 4.678-4.73-2.965-3.102-11.232-3.102-18.717v-22.227c-0.303-2.289 2.127-1.492 2.586-2.924 0.186-2.744-2.715-1.998-2.586-4.68-0.582-2.607 3.762 0.355 2.586-2.924-0.41-3.242-3.963-2.926-5.172-5.264-0.422-3.811-0.824-7.645-1.551-11.113h-10.855c-5-3.701-2.533-15.85-3.102-24.566-0.244-3.088 1.391 1.359 1.551-0.586 0.912-4.346-2.17-4.172-2.584-7.018-1-8.641 1.939-14.117 0.516-20.472-1.453-6.492-9.898-8.535-9.305-16.377-5.08-0.489-9.439-1.8-14.994-1.755-1.867 0.554-0.719-2.305-1.031-3.509h-7.756c0.16-2.131-0.082-3.807-0.518-5.264h-5.17c-1.578 1.08 0.598 2.778 0 4.678-5.484-2.566-14.166-1.517-21.713-1.754-3.465-8.556-4.395-19.982-10.34-25.737 0.35-1.359 2.715-0.44 2.07-2.924-0.766-8.494-0.664-17.966-1.553-26.321-12.34-0.315-23.377 0.847-35.152 1.17 0.434-0.679 0.682-1.568 0.516-2.924 3.223-3.169 10.707-1.755 16.543-1.755h17.576c-0.91-9.498-3.195-17.439-11.889-18.132-3.521-14.195-12-26.966-15.51-41.528-0.611-2.536-0.127-5.657-1.033-8.188-1.982-5.533-9.918-6.751-8.271-14.623-6.5-3.851-21.125-2.34-33.088-2.34-64.129 0-127.3 8.443-177.84 23.396v11.698c3.833 0.047 7.7 0.133 10.856-0.585 2.187 2.122 3.673 1.801 6.721 2.34 0.735 2.977-2.604 1.344-4.136 1.754-0.882 18.843 1.922 42.438-5.17 52.642-6.045-0.016-10.66 1.587-16.026 2.34 1.418-6.001 11.708-1.962 15.509-5.265 0.946-9.652 3.099-17.94 2.584-29.245-1.572-2.117-5.539 1.09-6.72-0.584-1.432-5.324 3.841-3.063 6.72-3.51 0.376-6.274-0.849-10.737-0.517-16.962-9.981-3.881-13.938 4.115-21.196 5.264v49.132c-2.079-0.403-2.951 0.561-4.653 0.585-0.003-9.751-0.179-19.7 0.517-28.66-0.788-2.351-4.244 1.952-4.135-1.17-0.515-3.312 2.175-2.999 4.135-3.509v-13.454c-6.215-2.891-11.27 2.438-16.025 1.756-5.075-0.73-6.048-6.949-10.857-8.774-1.935 0.345-1.6 3.259-3.102 4.094-9.789-0.509-16.492 3.197-23.781 7.604-10.069 6.087-18.25 13.368-25.332 22.226 4.394 1.266 4.152-2.71 6.204-4.095 2.686-0.28 3.071 4.114 5.169 1.17 3.147-1.538-3.849-2.732-0.517-4.679-0.415-2.225 2.444-0.744 3.619-1.17 1.237-0.746-0.516-4.873 2.584-3.51 2.651 1.025-0.215 4.951 0.518 7.604 5.604-6.528 16.208-7.397 23.264-12.284-0.719 17.516 5.119 40.661-2.585 52.057-4.433 0.443-7.753 2.145-11.373 3.509-0.535-3.15 5.447-3.966 8.788-4.679 0.173-9.371-4.034-14.943-1.551-25.735 1.665 0.128 2.188-1.035 4.135-0.585 0.721-8.772-3.591-11.129-1.033-19.302-4.82 2.213-7.611 2.869-11.891 3.509-2.874 15.287 4.253 39.003-3.619 49.132-3.38 0.661-5.973 2.211-8.789 3.509-2.455-0.537-4.16-1.921-7.238-1.754 0.625-7.906-3.144-18.931 0.518-24.566 2.164 0.087 0.205 4.837 2.068 5.265 1.35-1.201 0.782-4.574 1.55-6.434-1.401-1.729-3.262-2.938-3.102-6.434-2.804 0.336-3.929 2.574-6.203 3.51-0.664 10.037 1.258 23.597 0.517 33.339-0.347 4.561-0.902 9.62-4.653 11.114-2.078-3.733 2.179-5.32 3.102-7.604-0.916-0.134-2.588 0.59-2.067-1.17 0.377-5.885-0.848-9.96-0.517-15.793 0.62-3.234-2.676-2.04-2.584-4.679 1.954-1.699 2.897-7.628 1.551-11.114-3.549 1.68-2.896 8.3-3.102 13.453-0.349 8.682 1.349 19.519-3.102 23.396-7.124-3.557-6.114-19.708-0.517-23.981-5.761-0.278-5.004 6.817-8.272 9.358 2.633 5.924 2.259 19.388-1.033 23.981 4.154-2.318 8.11-4.861 11.89-7.603 0.131 1.142-2.973 3.638-4.652 4.679 1.556 3.08-0.775 5.72-3.117 8.74zm463.21 51.47v7.605c1.516-0.152 1.59 1.322 3.104 1.168 0.07-4.18 0.51-8.77-3.1-8.78zm-4.65-40.36c0.188 3.724-0.92 5.979-0.518 9.942 2.379 0.038 3.355 1.663 5.168 2.341 0.58-6.49-1.43-10.08-4.65-12.28zm-2.07 44.46v12.867c0 3.793-1.434 10.029 2.068 10.529-0.16-6.82 3.98-20.76-2.07-23.4zm-7.76-50.31c-0.061 3.969 0.896 6.786 0.518 11.113 1.854 0.827 2.934 2.53 4.652 3.51 0.28-7.13 0.91-14.66-5.17-14.62zm-2.06 41.53c0.383 10.68 0.555 21.598 1.033 32.17 1.695 0.42 4.451 5.225 5.17 2.924-2.41-11.31 3.63-32.18-6.2-35.09zm-11.89-21.64c1.201 4.293 0.176 11.111 0.516 16.376 2.836-0.088 5.57-0.061 7.756 0.586v-16.377c-3.02 0.46-6.01-2.16-8.28-0.59zm7.75 23.4c-2.988 0.459-4.42-0.848-7.238-0.584v25.15h7.238c-0.06-7.92 0.09-18.57 0-24.57zm-8.79-49.72c0.693 3.698 0.711 8.161 1.033 12.283 2.428 0.763 3.387 3.187 5.686 4.094v-13.453c-2.1-1.13-4.8-1.58-6.72-2.92zm-10.34-4.68c0.037 2.491 0.863 4.091 0.516 7.02 2.154 0.293 3.018 2.046 5.17 2.339 1.06-6.46-1.25-9.12-5.69-9.36zm-428.57 50.89c-0.311-0.355 3.578-0.596 3.102 1.168 1.077 3.949-4.105 0.816-2.585 5.264 20.666-9.957 48.071-17.359 74.444-22.81-1.345-0.343-3.144-7.163 0-7.019 1.187 1.191 0.188 4.857 0.518 7.019 7.055-1.181 13.802-2.712 20.679-4.094v-5.85c-5.39-2.105-6.953 6.042-10.856 1.755 3-2.455 8.336-2.268 6.721-9.943 10.241 1.279 6.422-11.657 6.721-20.472h-5.17c-1.13 2.019-1.345 4.842-1.551 6.435-3.814-1.038-5.286-4.822-4.136-9.943 2.381-1.415 5.988-2.503 9.306-1.17 0.011-1.379-0.891-1.723-0.517-3.511-5.721-1.919-11.446 1.038-17.061 1.17-1.101 10.843-1.391 22.604-2.067 33.925-2.262 0.561-3.399 2.394-6.721 1.755v-15.208h-4.136c-1.675 4.733-0.15 13.089-4.136 15.208-0.695-5.082-0.527-14.24 2.585-16.963 2.026-0.631 6.367 1.355 6.72-1.17 0.415-2.223-2.444-0.743-3.618-1.169-0.293-1.813 0.14-4.448-1.552-4.681-1.099 2.268-2.085 4.661-3.618 6.436-0.287-5.331 0.792-12.204-1.552-15.208h-1.55c-2.011 10.788-1.457 24.478-3.102 35.68-1.948-0.45-2.471 0.713-4.135 0.585 0.309-5.694-0.84-13.038 1.033-16.963-0.792-3.004-4.636-2.553-7.237-3.51 0.498-2.75-0.332-7.004 1.551-8.188 1.599 0.141-0.809 4.813 1.551 4.095 1.784-2.895 8.334-4.501 5.687-8.774-3.042-0.506-8.032 1.825-11.891 2.341-0.662 15.443 2.83 33.136-2.585 43.867-1.432-1.889-5.029-1.328-7.237-2.34-0.059-3.186 4.415-1.242 5.17-3.508-2.35-7.221 0.5-21.927-1.034-31.585-4.846 3.485-0.856 16.969-5.169 21.057-0.342-8.771 0.593-16.097 1.034-23.982-4.097-1.123-3.705 2.829-5.687 4.096-3.335 1.686-6.199 3.904-9.822 5.265v4.679c-0.37 1.588 2.438-0.419 2.068 1.171 0.34 8.571-0.886 15.372-0.517 23.979-1.599-0.02-3.206 2.959-4.136 1.756-0.575-9.684 0.649-21.402-2.068-28.661-0.821 1.997-3.556 1.825-4.652 3.51 1.036 0.973 2.403 1.57 2.584 3.509 0.435 3.794-0.342 8.526-0.517 12.867-0.178 4.443 1.446 10.142-2.585 11.115-0.861-7.02 2.522-18.841-3.619-19.887-0.338 8.181 0.888 14.592 0.517 22.811h-4.653c0.044 1.22-1.417 3.73-0.519 4.04zm72.893-61.42c-3.226-0.335-5.051 0.914-7.754 1.169-0.356 2.354 0.495 3.339 0.517 5.265 1.69-2.572 6.124-2.04 9.305-2.925-0.945-0.89-1.216-2.53-2.068-3.52zm-27.916 63.17c0.595 2.836-1.249 8.432 1.034 9.359 2.799-1.709 3.195-6.135 7.238-6.436v-4.094c-2.356 0.85-5.738 0.53-8.272 1.17zm0.517 60.25v5.264c2.429 0.605 1.99-2.037 4.652-1.168-1 2.572-3.603 3.332-5.169 5.264v14.037c0 4.457 1.221 11.508-1.551 12.869-1.206-11.115-0.172-24.762-0.517-36.852-1.861-0.154-2.492 1.082-4.136 1.172 0.278 12.553 0.755 24.881 1.034 37.434-1.571-0.367-4.453 0.75-5.169-0.586v-24.564c-1.403-0.363-4.103 0.742-4.653-0.586 0.831-3.74 1.24-7.953 4.653-8.773-1.111-2.252-5.56-0.729-8.271-1.17 0.355 12.686-0.873 23.578-0.518 36.264-1.571-0.365-4.453 0.75-5.17-0.584v-33.34h-4.652c-0.344 10.92 0.688 23.395-0.517 33.34-0.667 0.807-2.246 0.58-3.619 0.584v-34.508h-5.687c0.747 12.996 1.088 26.453 2.068 39.188 12.669 0.371 27.674-0.828 41.358-1.17 0.367-10.943-0.86-20.084-0.517-31 1.458-3.613 4.134-5.852 4.136-11.113-2.585 0.01-5.17 0.01-7.755 0.01zm-5.17-166.7c-2.258 3.294-6.989 3.792-8.789 7.604 0.377 6.981 1.149 13.519 1.034 21.058 2.423 0.767 5.672 0.601 8.788 0.584-0.676-9.37 1.362-21.812-1.033-29.24zm0.516-0.584c1.199-2.738 0.178-7.988 0.517-11.698-5.847-0.573-8.371 2.616-11.89 4.679 2.82 1.292 2.773 5.829 2.584 10.528 3.158-0.913 5.973-2.213 8.789-3.509zm-7.754 51.474h4.137v-2.341c-1.669 0.45-3.056 1.22-4.137 2.34zm-28.95 71.94c-1.589 0.152-2.325 1.268-3.619 1.756 0.397 6.959 0.184 14.607 1.551 20.471 5.236-3.51 1.1-14.61 2.068-22.23zm-0.517 70.19c-0.247-5.441 1.167-12.859-2.584-15.209-1.596 9.803 0.64 20.33 0 31h3.618c-0.21-4.58-0.784-10.27-1.034-15.79z"/>
	<path d="m234.81 182.45c5.799-6.576 19.789-5.983 22.746 2.924v31c-7.367-0.342-13.441 0.781-20.162 1.17-0.299-6.873-0.684-13.654-1.035-20.471 0.123-1.814 1.836-1.826 3.102-2.34-2.133-1.486-2.35-5.139-2.066-9.359-0.916-1.557-2.188 1.381-3.102 1.756-0.94-0.55 0.8-2.95 0.52-4.68z"/>
	<path d="m204.31 128.05c-11.585-14.778 19.484-21.48 19.127-4.679-6.762-10.059-18.451-3.709-19.127 8.773h-5.17v-4.095c1.73 0.01 3.45 0.01 5.17 0.01z"/>
	<path d="m222.41 291.24c-7.067-0.389-15.508 0.777-21.713-0.586 0.271-2.227 3.044-1.625 5.17-1.754 0.383-8.037-0.833-14.264-0.518-22.229-0.796-2.461 2.676-0.092 2.585-1.754 0.828-3.275-1.444-3.045-2.585-4.094 0.012-2.912 0.805-4.939 1.552-7.02-2.967 0.154-3.928 2.574-5.687 4.096 0.871-5.777 6.206-11.584 12.924-9.943 6.367 1.553 5.742 10.094 8.789 15.791 0.33 9.74-0.89 17.71-0.52 27.48z"/>
	<path d="m9.931 188.88h4.653c0.371-8.219-0.855-14.63-0.517-22.811 6.142 1.046 2.758 12.868 3.619 19.887 4.031-0.973 2.407-6.672 2.585-11.115 0.174-4.341 0.951-9.073 0.517-12.867-0.182-1.938-1.548-2.536-2.584-3.509 1.096-1.685 3.832-1.513 4.652-3.51 2.718 7.259 1.494 18.977 2.068 28.661 0.93 1.203 2.537-1.775 4.136-1.756-0.37-8.607 0.856-15.408 0.517-23.979 0.37-1.59-2.438 0.417-2.068-1.171v-4.679c3.623-1.36 6.487-3.579 9.822-5.265 1.982-1.267 1.59-5.219 5.687-4.096-0.441 7.886-1.376 15.212-1.034 23.982 4.313-4.088 0.323-17.571 5.169-21.057 1.534 9.658-1.316 24.364 1.034 31.585-0.755 2.266-5.229 0.323-5.17 3.508 2.208 1.012 5.806 0.451 7.237 2.34 5.415-10.731 1.923-28.423 2.585-43.867 3.859-0.516 8.849-2.847 11.891-2.341 2.648 4.273-3.902 5.88-5.687 8.774-2.359 0.719 0.048-3.954-1.551-4.095-1.883 1.185-1.053 5.438-1.551 8.188 2.601 0.957 6.445 0.506 7.237 3.51-1.874 3.925-0.724 11.269-1.033 16.963 1.665 0.128 2.187-1.035 4.135-0.585 1.646-11.202 1.091-24.892 3.102-35.68h1.55c2.343 3.004 1.265 9.877 1.552 15.208 1.533-1.774 2.52-4.168 3.618-6.436 1.692 0.232 1.259 2.867 1.552 4.681 1.174 0.426 4.033-1.054 3.618 1.169-0.353 2.525-4.693 0.539-6.72 1.17-3.112 2.723-3.28 11.881-2.585 16.963 3.985-2.119 2.461-10.475 4.136-15.208h4.136v15.208c3.322 0.639 4.458-1.194 6.721-1.755 0.677-11.321 0.967-23.082 2.067-33.925 5.614-0.132 11.34-3.089 17.061-1.17-0.374 1.788 0.528 2.132 0.517 3.511-3.318-1.333-6.925-0.245-9.306 1.17-1.149 5.121 0.322 8.905 4.136 9.943 0.206-1.593 0.421-4.416 1.551-6.435h5.17c-0.298 8.814 3.521 21.751-6.721 20.472 1.616 7.676-3.72 7.488-6.721 9.943 3.903 4.287 5.467-3.86 10.856-1.755v5.85c-6.877 1.382-13.624 2.913-20.679 4.094-0.33-2.161 0.669-5.827-0.518-7.019-3.144-0.145-1.345 6.676 0 7.019-26.373 5.451-53.778 12.853-74.444 22.81-1.52-4.447 3.663-1.314 2.585-5.264 0.476-1.764-3.413-1.523-3.102-1.168-0.906-0.29 0.555-2.8 0.509-4.08zm82.198-44.45c-0.18 5.06-0.78 9.646-1.034 14.622 1.217 0.013 1.522-1.008 3.102-0.585 0.338-3.518-0.68-8.569 0.517-11.113 1.852 0.05 2.987 0.909 4.653 1.169v-3.508c-2.99 0.46-4.419-0.84-7.238-0.58zm1.035-11.11h-1.034c-0.62 1.122-1.399 7.408 0.517 7.603h1.034c0.62-1.12 1.399-7.41-0.517-7.6zm-19.646 36.26v4.094c2.203-0.043 3.616-0.979 6.204-0.585-0.375-1.788 0.892-1.721 0.517-3.509-2.24 0.01-4.48 0.01-6.721 0.01zm-16.025 4.68c-0.375 1.789 0.891 1.721 0.516 3.509 2.372-0.047 3.512-1.485 6.204-1.169v-3.51c-2.935-0.39-4.239 1.05-6.72 1.17zm0-21.06c-1.761 0.896-1.437 4.84-1.551 8.188-0.108 3.168-1.043 8.64 1.551 8.774 2.192-3.759-0.913-13.51 3.102-15.208-1.263-0.32-1.103-2.25-3.102-1.75zm-25.849 0c3.46 3.2 1.411 10.437 1.55 16.378 0.155 1.771 2.175-2.061 2.585 0 0.219 3.905-1.975 8.877 1.55 9.944-1.5 3.955-7.48 2.844-8.271 7.604 2.615-0.551 4.231-2.232 7.755-1.756 5.354-7.98 3.594-24.008 4.135-37.433-4.161 0.56-6.592 3.08-9.304 5.27zm-10.339 35.1c1.728 0.387 2.528 1.82 4.135 2.342-0.253-1.846 0.932-2.066 0.517-4.096-1.885 0.21-3.222 1.04-4.652 1.76zm-6.204 2.92c1.34 0.822 2.387 1.979 3.619 2.924 0.154-1.613 1.36-5.043 0.516-5.85 0.108 2.66-2.793 1.92-4.135 2.93z" fill="#fff"/>
</g>
<metadata><rdf:RDF><cc:Work><dc:format>image/svg+xml</dc:format><dc:type rdf:resource="http://purl.org/dc/dcmitype/StillImage"/><cc:license rdf:resource="http://creativecommons.org/licenses/publicdomain/"/><dc:publisher><cc:Agent rdf:about="http://openclipart.org/"><dc:title>Openclipart</dc:title></cc:Agent></dc:publisher><dc:title>roman coliseum</dc:title><dc:date>2006-10-03T19:45:54</dc:date><dc:description>black and white drawing of the coliseum in Rome.</dc:description><dc:source>http://openclipart.org/detail/323/roman-coliseum-by-johnny_automatic</dc:source><dc:creator><cc:Agent><dc:title>johnny_automatic</dc:title></cc:Agent></dc:creator><dc:subject><rdf:Bag><rdf:li>black &amp; white</rdf:li><rdf:li>building</rdf:li><rdf:li>clip art</rdf:li><rdf:li>clipart</rdf:li><rdf:li>coliseum</rdf:li><rdf:li>colosseum</rdf:li><rdf:li>history</rdf:li><rdf:li>italy</rdf:li><rdf:li>landmark</rdf:li><rdf:li>remix problem</rdf:li><rdf:li>roman</rdf:li><rdf:li>rome</rdf:li><rdf:li>vintage</rdf:li></rdf:Bag></dc:subject></cc:Work><cc:License rdf:about="http://creativecommons.org/licenses/publicdomain/"><cc:permits rdf:resource="http://creativecommons.org/ns#Reproduction"/><cc:permits rdf:resource="http://creativecommons.org/ns#Distribution"/><cc:permits rdf:resource="http://creativecommons.org/ns#DerivativeWorks"/></cc:License></rdf:RDF></metadata></svg>
