<?xml version="1.0" encoding="UTF-8" standalone="no"?>
<svg xmlns:inkscape="http://www.inkscape.org/namespaces/inkscape" xmlns:rdf="http://www.w3.org/1999/02/22-rdf-syntax-ns#" xmlns="http://www.w3.org/2000/svg" xmlns:cc="http://creativecommons.org/ns#" xmlns:dc="http://purl.org/dc/elements/1.1/" xmlns:sodipodi="http://sodipodi.sourceforge.net/DTD/sodipodi-0.dtd" id="svg2" font-size="12" text-rendering="auto" color-rendering="auto" sodipodi:docname="_svgclean2.svg" viewBox="0 0 640 480" style="font-size:12px;stroke:#000000;stroke-linecap:square;stroke-miterlimit:10;font-family:Dialog;fill:#000000" shape-rendering="auto" color-interpolation="auto" version="1.1" stroke-miterlimit="10" image-rendering="auto" inkscape:version="0.48.3.1 r9886">
  <sodipodi:namedview id="namedview288" bordercolor="#666666" inkscape:pageshadow="2" guidetolerance="10" pagecolor="#ffffff" gridtolerance="10" inkscape:window-maximized="0" inkscape:zoom="0.22425739" objecttolerance="10" borderopacity="1" inkscape:current-layer="svg2" inkscape:cx="372.04724" inkscape:cy="-46.181091" inkscape:window-y="0" inkscape:window-x="0" inkscape:window-width="743" showgrid="false" inkscape:pageopacity="0" inkscape:window-height="484"/>
  <!--Generated by Tech4Learning SVG Exporter-->
  <g id="g4" text-rendering="geometricPrecision">
    <g id="g6" style="stroke:#ffffff;fill:#ffffff" image-rendering="optimizeQuality" color-rendering="optimizeQuality" color-interpolation="linearRGB">
      <rect id="rect8" height="480" width="640" y="0" x="0"/>
    </g>
    <g id="g10" style="stroke:#4dc7ff;fill:#4dc7ff" image-rendering="optimizeQuality" color-rendering="optimizeQuality" color-interpolation="linearRGB">
      <path id="path12" inkscape:connector-curvature="0" d="m17.141 22.054 611.38 79.256-14.15 258.98-587.32 5.67-9.909-343.91z"/>
    </g>
    <g id="g14" style="stroke:#999999;fill:#999999" image-rendering="optimizeQuality" color-rendering="optimizeQuality" color-interpolation="linearRGB">
      <path id="path16" inkscape:connector-curvature="0" d="m24.217 361.71 588.73-4.25 26.89 106.15h-638.27l22.647-101.9z"/>
    </g>
    <g id="g18" style="stroke:#ffefb3;fill:#ffefb3" image-rendering="optimizeQuality" color-rendering="optimizeQuality" color-interpolation="linearRGB">
      <path id="path20" inkscape:connector-curvature="0" d="m73.754 213.47s97.426-26.09 255.77-25.35c158.33 0.74 258.13 32.98 258.13 32.98l23.8 200.51s-127.7 14.67-286.69 14.67-289.07-14.67-289.07-14.67l38.068-208.14z"/>
    </g>
    <g id="g22" style="stroke:#884000;fill:#884000" image-rendering="optimizeQuality" color-rendering="optimizeQuality" color-interpolation="linearRGB">
      <path id="path24" inkscape:connector-curvature="0" d="m350.94 373.5s-2.3-17.12-24.89-17.5c-22.58-0.37-23.5 17.5-23.5 17.5v63.94l48.39-1.14v-62.8z"/>
    </g>
    <g id="g26" style="stroke:#884000;fill:#884000" image-rendering="optimizeQuality" color-rendering="optimizeQuality" color-interpolation="linearRGB">
      <path id="path28" inkscape:connector-curvature="0" d="m236.94 284.27s1.97-14.81 20.59-15.68c18.61-0.87 19.31 14.5 19.31 14.5l-0.24 55.09-39.89 0.2 0.23-54.11z"/>
    </g>
    <g id="g30" style="stroke:#ffd94d;fill:#ffd94d" image-rendering="optimizeQuality" color-rendering="optimizeQuality" color-interpolation="linearRGB">
      <path id="path32" style="opacity:0.82" inkscape:connector-curvature="0" d="m368.12 128.2c0 10.16-8.56 18.39-19.11 18.39s-19.1-8.23-19.1-18.39 8.55-18.4 19.1-18.4 19.11 8.24 19.11 18.4z"/>
    </g>
    <g id="g34" style="stroke:#ffffff;fill:#ffffff" image-rendering="optimizeQuality" color-rendering="optimizeQuality" color-interpolation="linearRGB">
      <path id="path36" style="opacity:0.82" inkscape:connector-curvature="0" d="m209.47 157.4c2.83 13.23 31.07-4.31 118.5 5.89s121.13-8.94 118.29-22.17c-2.82-13.22-22.2 4.6-123.52-15.79s-116.1 18.85-113.27 32.07z"/>
    </g>
    <g id="g38" style="stroke:#f5e5ac;fill:#f5e5ac" image-rendering="optimizeQuality" color-rendering="optimizeQuality" color-interpolation="linearRGB">
      <path id="path40" inkscape:connector-curvature="0" d="m57.1 159.11c11.052-32.48 32.485-64.958 66.95-73.569 14.65 3.285 11.95 8.614 11.95 8.614l15.42 46.445 18.32 5.77 5.51 21.63 24.21 58.87 33.4 0.04 1.18 22.78 27.1 83.14 32.69 1.15v24.98l20.22 79.33s-74-2.25-151.04-6.74c-77.032-4.49-127.93-9.52-127.93-9.52-0.001 0 19.257-254.8 22.02-262.92z"/>
    </g>
    <g id="g42" style="stroke:#f5d59f;fill:#f5d59f" image-rendering="optimizeQuality" color-rendering="optimizeQuality" color-interpolation="linearRGB">
      <path id="path44" inkscape:connector-curvature="0" d="m124.67 95.79-14.17 10.23-0.99 49.56 15.16-5.9v-53.89z"/>
    </g>
    <g id="g46" style="stroke:#f5d59f;fill:#f5d59f" image-rendering="optimizeQuality" color-rendering="optimizeQuality" color-interpolation="linearRGB">
      <path id="path48" inkscape:connector-curvature="0" d="m105.22 109.36-12.936 8.82-0.902 42.76 13.838-5.09v-46.49z"/>
    </g>
    <g id="g50" style="stroke:#f5d59f;fill:#f5d59f" image-rendering="optimizeQuality" color-rendering="optimizeQuality" color-interpolation="linearRGB">
      <path id="path52" inkscape:connector-curvature="0" d="m86.108 123.08-11.708 13.28-0.817 32.94 12.525-4.44v-41.78z"/>
    </g>
    <g id="g54" style="stroke:#f5d59f;fill:#f5d59f" image-rendering="optimizeQuality" color-rendering="optimizeQuality" color-interpolation="linearRGB">
      <path id="path56" inkscape:connector-curvature="0" d="m69.56 143.8-7.883 13.27-0.948 18.52 9.49-3.06-0.659-28.73z"/>
    </g>
    <g id="g58" style="stroke:#f5d59f;fill:#f5d59f" image-rendering="optimizeQuality" color-rendering="optimizeQuality" color-interpolation="linearRGB">
      <path id="path60" inkscape:connector-curvature="0" d="m292.86 333.26s-2.38-3.46-6.62-3.44c-16.98 0.05-65.04 0.46-122.03 4.01-71.243 4.43-125.11 10.72-125.11 10.72l-1.057 7.52s55.935-6.54 127.18-9.3c53.43-2.06 101.02-3.61 120.44-3.4 6.47 0.08 7.97 3.63 7.97 3.63l-0.77-9.74z"/>
    </g>
    <g id="g62" style="stroke:#f5ca78;fill:#f5ca78" image-rendering="optimizeQuality" color-rendering="optimizeQuality" color-interpolation="linearRGB">
      <path id="path64" inkscape:connector-curvature="0" d="m293.16 340.48s-4.25-3.13-6.85-3.12c-14.7 0.01-60.16 1.21-128.86 5.19-68.697 3.98-119.92 9.22-119.92 9.22l-1.067 7.01 122.01-8.55s109.42-4.29 127.84-4.32c4.61-0.01 7.05 3.81 7.05 3.81l-0.2-9.24z"/>
    </g>
    <g id="g66" style="stroke:#f5ca78;fill:#f5ca78" image-rendering="optimizeQuality" color-rendering="optimizeQuality" color-interpolation="linearRGB">
      <path id="path68" inkscape:connector-curvature="0" d="m233.82 241.69s-8.29-3.46-13.87-2.81c-13.04 1.5-30.71 4.22-68.77 8.04-54.363 5.44-105.65 18.17-105.65 18.17l-1.108 6.81s43.196-11.92 97.558-17.36c38.06-3.82 60.82-6.47 77.09-8.01 6.97-0.65 15.44 4.49 15.44 4.49l-0.69-9.33z"/>
    </g>
    <g id="g70" style="stroke:#f5d59f;fill:#f5d59f" image-rendering="optimizeQuality" color-rendering="optimizeQuality" color-interpolation="linearRGB">
      <path id="path72" inkscape:connector-curvature="0" d="m133.52 81.589s-6.49-3.102-9.2-1.904c-10.82 4.791-29.088 16.806-42.406 29.945-16.648 16.42-18.71 20.49-18.71 20.49l-3.616 11.99s14.523-21.34 31.526-34.48c12.756-9.857 35.206-22.521 35.206-22.521l8.95 1.853-1.75-5.373z"/>
    </g>
    <g id="g74" style="stroke:#f5ca78;fill:#f5ca78" image-rendering="optimizeQuality" color-rendering="optimizeQuality" color-interpolation="linearRGB">
      <path id="path76" inkscape:connector-curvature="0" d="m135.34 86.655s-7.66-3.377-10.16-1.832c-9.99 6.18-32.291 20.007-45.798 32.047-13.506 12.05-18.913 23.65-18.913 23.65l-2.048 15.07s6.96-19.8 23.785-34.58c11.778-10.35 34.114-25.668 45.544-32.667 4.9 0.818 8.83 4.094 8.83 4.094l-1.24-5.782z"/>
    </g>
    <g id="g78" style="stroke:#884000;fill:#884000" image-rendering="optimizeQuality" color-rendering="optimizeQuality" color-interpolation="linearRGB">
      <path id="path80" inkscape:connector-curvature="0" d="m227.37 372.91s1.97-17.12 21.27-17.49 20.09 17.49 20.09 17.49v63.94l-41.36-1.13v-62.81z"/>
    </g>
    <g id="g82" style="stroke:#884000;fill:#884000" image-rendering="optimizeQuality" color-rendering="optimizeQuality" color-interpolation="linearRGB">
      <path id="path84" inkscape:connector-curvature="0" d="m171.82 374.31s1.8-16.7 19.45-17.06c17.65-0.37 18.37 17.06 18.37 17.06v60.8l-37.82-1.75v-59.05z"/>
    </g>
    <g id="g86" style="stroke:#884000;fill:#884000" image-rendering="optimizeQuality" color-rendering="optimizeQuality" color-interpolation="linearRGB">
      <path id="path88" inkscape:connector-curvature="0" d="m122.54 375.25s1.79-15.93 16.69-16.03c14.89-0.09 15.21 16.58 15.21 16.58l-0.98 56.45-31.87-2.28 0.95-54.72z"/>
    </g>
    <g id="g90" style="stroke:#884000;fill:#884000" image-rendering="optimizeQuality" color-rendering="optimizeQuality" color-interpolation="linearRGB">
      <path id="path92" inkscape:connector-curvature="0" d="m89.611 376.9s1.344-14.05 10.729-14.1c9.37-0.04 9.35 14.67 9.35 14.67l-1.41 51.57-20.054-1.15 1.385-50.99z"/>
    </g>
    <g id="g94" style="stroke:#884000;fill:#884000" image-rendering="optimizeQuality" color-rendering="optimizeQuality" color-interpolation="linearRGB">
      <path id="path96" inkscape:connector-curvature="0" d="m64.893 377.12s1.179-13.05 8.345-13.09c7.165-0.04 6.991 13.62 6.991 13.62l-1.642 47.99-15.897-1.12 2.203-47.4z"/>
    </g>
    <g id="g98" style="stroke:#884000;fill:#884000" image-rendering="optimizeQuality" color-rendering="optimizeQuality" color-interpolation="linearRGB">
      <path id="path100" inkscape:connector-curvature="0" d="m46.469 378.78s0.873-12.24 5.571-12.35 4.478 12.67 4.478 12.67l-1.433 44.48-10.631-0.34 2.015-44.46z"/>
    </g>
    <g id="g102" style="stroke:#884000;fill:#884000" image-rendering="optimizeQuality" color-rendering="optimizeQuality" color-interpolation="linearRGB">
      <path id="path104" inkscape:connector-curvature="0" d="m210.13 270s-1.63-14.86-18.78-15.2-17.99 15.16-17.99 15.16l-0.47 54.1 36.78-1.52 0.46-52.54z"/>
    </g>
    <g id="g106" style="stroke:#884000;fill:#884000" image-rendering="optimizeQuality" color-rendering="optimizeQuality" color-interpolation="linearRGB">
      <path id="path108" inkscape:connector-curvature="0" d="m156.24 277.76s-1.15-14.23-15.62-14.8c-14.47-0.58-15.4 14.22-15.4 14.22l-1.14 50.22 31.05-0.97 1.11-48.67z"/>
    </g>
    <g id="g110" style="stroke:#884000;fill:#884000" image-rendering="optimizeQuality" color-rendering="optimizeQuality" color-interpolation="linearRGB">
      <path id="path112" inkscape:connector-curvature="0" d="m113.21 282.78s-0.79-12.54-9.9-12.89-9.636 12.73-9.636 12.73l-0.536 45.89 19.522-0.36 0.55-45.37z"/>
    </g>
    <g id="g114" style="stroke:#884000;fill:#884000" image-rendering="optimizeQuality" color-rendering="optimizeQuality" color-interpolation="linearRGB">
      <path id="path116" inkscape:connector-curvature="0" d="m82.416 287.88s-0.661-11.64-7.622-11.91c-6.961-0.28-7.298 11.87-7.298 11.87l-0.186 42.72 15.488-0.47-0.382-42.21z"/>
    </g>
    <g id="g118" style="stroke:#884000;fill:#884000" image-rendering="optimizeQuality" color-rendering="optimizeQuality" color-interpolation="linearRGB">
      <path id="path120" inkscape:connector-curvature="0" d="m59.294 292.6s-0.395-10.9-4.955-11.16-4.821 11.12-4.821 11.12l-0.258 39.58 10.341 0.05-0.307-39.59z"/>
    </g>
    <g id="g122" style="stroke:#f5d59f;fill:#f5d59f" image-rendering="optimizeQuality" color-rendering="optimizeQuality" color-interpolation="linearRGB">
      <path id="path124" inkscape:connector-curvature="0" d="m292.86 318.47s-2.38-3.46-6.62-3.45c-16.98 0.06-65.04 0.47-122.03 4.01-71.243 4.43-125.11 10.73-125.11 10.73l-1.057 7.51s55.935-8.31 127.18-11.06c53.43-2.07 101.02-1.85 120.44-1.63 6.47 0.07 7.97 3.63 7.97 3.63l-0.77-9.74z"/>
    </g>
    <g id="g126" style="stroke:#f5ca78;fill:#f5ca78" image-rendering="optimizeQuality" color-rendering="optimizeQuality" color-interpolation="linearRGB">
      <path id="path128" inkscape:connector-curvature="0" d="m293.16 324.68s-4.25-3.12-6.85-3.12c-14.7 0.01-60.16 1.22-128.86 5.2-68.697 3.98-119.92 9.21-119.92 9.21l-1.067 7.02 122.01-8.55s109.42-4.3 127.84-4.33c4.61-0.01 7.05 3.81 7.05 3.81l-0.2-9.24z"/>
    </g>
    <g id="g130" style="stroke:#884000;fill:#884000" image-rendering="optimizeQuality" color-rendering="optimizeQuality" color-interpolation="linearRGB">
      <path id="path132" inkscape:connector-curvature="0" d="m158.52 183.48s-1.15-12.51-15.62-11.05c-14.46 1.47-15.39 14.78-15.39 14.78l-1.15 44.88 31.06-5.1 1.1-43.51z"/>
    </g>
    <g id="g134" style="stroke:#884000;fill:#884000" image-rendering="optimizeQuality" color-rendering="optimizeQuality" color-interpolation="linearRGB">
      <path id="path136" inkscape:connector-curvature="0" d="m115.49 193.83s-0.78-11.06-9.89-10.13c-9.117 0.94-9.643 12.66-9.643 12.66l-0.536 40.94 19.519-2.98 0.55-40.49z"/>
    </g>
    <g id="g138" style="stroke:#884000;fill:#884000" image-rendering="optimizeQuality" color-rendering="optimizeQuality" color-interpolation="linearRGB">
      <path id="path140" inkscape:connector-curvature="0" d="m84.699 202.58s-0.66-10.28-7.621-9.57-7.299 11.57-7.299 11.57l-0.185 38.08 15.487-2.54-0.382-37.54z"/>
    </g>
    <g id="g142" style="stroke:#884000;fill:#884000" image-rendering="optimizeQuality" color-rendering="optimizeQuality" color-interpolation="linearRGB">
      <path id="path144" inkscape:connector-curvature="0" d="m63.688 210.29s-0.108-9.69-4.68-9.61c-4.572 0.07-5.135 10.22-5.135 10.22l-1.307 35.28 10.382-0.65 0.74-35.24z"/>
    </g>
    <g id="g146" style="stroke:#884000;fill:#884000" image-rendering="optimizeQuality" color-rendering="optimizeQuality" color-interpolation="linearRGB">
      <path id="path148" inkscape:connector-curvature="0" d="m414.19 374.18s-1.91-16.62-20.59-16.98c-18.69-0.36-19.45 16.98-19.45 16.98v62.06l40.04-1.1v-60.96z"/>
    </g>
    <g id="g150" style="stroke:#884000;fill:#884000" image-rendering="optimizeQuality" color-rendering="optimizeQuality" color-interpolation="linearRGB">
      <path id="path152" inkscape:connector-curvature="0" d="m471.54 375.53s-1.75-16.21-18.83-16.56-17.78 16.56-17.78 16.56v59.02l36.61-1.69v-57.33z"/>
    </g>
    <g id="g154" style="stroke:#884000;fill:#884000" image-rendering="optimizeQuality" color-rendering="optimizeQuality" color-interpolation="linearRGB">
      <path id="path156" inkscape:connector-curvature="0" d="m519.25 376.45s-1.74-15.47-16.16-15.56c-14.41-0.09-14.72 16.09-14.72 16.09l0.94 54.79 30.86-2.21-0.92-53.11z"/>
    </g>
    <g id="g158" style="stroke:#884000;fill:#884000" image-rendering="optimizeQuality" color-rendering="optimizeQuality" color-interpolation="linearRGB">
      <path id="path160" inkscape:connector-curvature="0" d="m552.32 378.05s-1.3-13.65-10.38-13.69-9.06 14.24-9.06 14.24l1.37 50.06 19.41-1.12-1.34-49.49z"/>
    </g>
    <g id="g162" style="stroke:#884000;fill:#884000" image-rendering="optimizeQuality" color-rendering="optimizeQuality" color-interpolation="linearRGB">
      <path id="path164" inkscape:connector-curvature="0" d="m576.25 379.64s-1.14-12.68-8.08-12.71c-6.94-0.04-6.77 13.21-6.77 13.21l1.59 46.6 15.39-1.1-2.13-46z"/>
    </g>
    <g id="g166" style="stroke:#884000;fill:#884000" image-rendering="optimizeQuality" color-rendering="optimizeQuality" color-interpolation="linearRGB">
      <path id="path168" inkscape:connector-curvature="0" d="m594.08 381.24s-0.84-11.87-5.39-11.98c-4.55-0.12-4.33 12.3-4.33 12.3l1.38 43.17 10.29-0.33-1.95-43.16z"/>
    </g>
    <g id="g170" style="stroke:#884000;fill:#884000" image-rendering="optimizeQuality" color-rendering="optimizeQuality" color-interpolation="linearRGB">
      <path id="path172" inkscape:connector-curvature="0" d="m349.63 282.95s-2.36-15.26-24.87-16.26c-22.5-0.99-23.35 14.84-23.35 14.84l0.25 56.75 48.21 0.42-0.24-55.75z"/>
    </g>
    <g id="g174" style="stroke:#884000;fill:#884000" image-rendering="optimizeQuality" color-rendering="optimizeQuality" color-interpolation="linearRGB">
      <path id="path176" inkscape:connector-curvature="0" d="m412.65 285.41s-1.97-14.81-20.59-15.68c-18.61-0.86-19.31 14.5-19.31 14.5l0.24 55.1 39.89 0.2-0.23-54.12z"/>
    </g>
    <g id="g178" style="stroke:#884000;fill:#884000" image-rendering="optimizeQuality" color-rendering="optimizeQuality" color-interpolation="linearRGB">
      <path id="path180" inkscape:connector-curvature="0" d="m466.77 288.51s-2.31-14.38-19.37-15.19c-17.05-0.81-17.14 14.12-17.14 14.12l2.09 52.17 36.46-0.43-2.04-50.67z"/>
    </g>
    <g id="g182" style="stroke:#884000;fill:#884000" image-rendering="optimizeQuality" color-rendering="optimizeQuality" color-interpolation="linearRGB">
      <path id="path184" inkscape:connector-curvature="0" d="m514.39 291.65s-2.29-13.45-16.67-13.94-14.12 13.51-14.12 13.51l2.89 47.49 30.7 0.09-2.8-47.15z"/>
    </g>
    <g id="g186" style="stroke:#884000;fill:#884000" image-rendering="optimizeQuality" color-rendering="optimizeQuality" color-interpolation="linearRGB">
      <path id="path188" inkscape:connector-curvature="0" d="m547.43 293.71s-1.79-12.23-10.84-12.53c-9.06-0.31-8.53 12.44-8.53 12.44l3.14 44.76 19.32-0.42-3.09-44.25z"/>
    </g>
    <g id="g190" style="stroke:#884000;fill:#884000" image-rendering="optimizeQuality" color-rendering="optimizeQuality" color-interpolation="linearRGB">
      <path id="path192" inkscape:connector-curvature="0" d="m571.35 297.11s-1.59-11.32-8.51-11.56-6.28 11.58-6.28 11.58l3.24 41.55 15.31-0.52-3.76-41.05z"/>
    </g>
    <g id="g194" style="stroke:#884000;fill:#884000" image-rendering="optimizeQuality" color-rendering="optimizeQuality" color-interpolation="linearRGB">
      <path id="path196" inkscape:connector-curvature="0" d="m589.2 301.17s-1.27-10.34-5.81-10.57-3.89 10.56-3.89 10.56l2.92 37.55 10.25 0.01-3.47-37.55z"/>
    </g>
    <g id="g198" style="stroke:#f5ca78;fill:#f5ca78" image-rendering="optimizeQuality" color-rendering="optimizeQuality" color-interpolation="linearRGB">
      <path id="path200" inkscape:connector-curvature="0" d="m241.7 214.56s1.84-12.06 19.2-12.77c17.37-0.71 18.02 11.82 18.02 11.82l-0.22 44.89-37.22 0.16 0.22-44.1z"/>
    </g>
    <g id="g202" style="stroke:#f5ca78;fill:#f5ca78" image-rendering="optimizeQuality" color-rendering="optimizeQuality" color-interpolation="linearRGB">
      <path id="path204" inkscape:connector-curvature="0" d="m347.1 213.49s-2.11-12.43-22.11-13.24-20.76 12.09-20.76 12.09l0.22 46.24 42.86 0.34-0.21-45.43z"/>
    </g>
    <g id="g206" style="stroke:#f5ca78;fill:#f5ca78" image-rendering="optimizeQuality" color-rendering="optimizeQuality" color-interpolation="linearRGB">
      <path id="path208" inkscape:connector-curvature="0" d="m410.4 215.5s-1.84-12.07-19.21-12.78c-17.37-0.7-18.01 11.82-18.01 11.82l0.22 44.89 37.21 0.16-0.21-44.09z"/>
    </g>
    <g id="g210" style="stroke:#f5ca78;fill:#f5ca78" image-rendering="optimizeQuality" color-rendering="optimizeQuality" color-interpolation="linearRGB">
      <path id="path212" inkscape:connector-curvature="0" d="m462.08 220.23s-2.16-11.76-18.06-12.43c-15.91-0.66-16 11.56-16 11.56l1.96 42.68 34 2.04-1.9-43.85z"/>
    </g>
    <g id="g214" style="stroke:#f5ca78;fill:#f5ca78" image-rendering="optimizeQuality" color-rendering="optimizeQuality" color-interpolation="linearRGB">
      <path id="path216" inkscape:connector-curvature="0" d="m508.9 226.75s-2.13-11.29-15.55-12.09-13.17 10.9-13.17 10.9l2.69 38.54 28.64 2.09-2.61-39.44z"/>
    </g>
    <g id="g218" style="stroke:#f5ca78;fill:#f5ca78" image-rendering="optimizeQuality" color-rendering="optimizeQuality" color-interpolation="linearRGB">
      <path id="path220" inkscape:connector-curvature="0" d="m540.91 232.64s-1.66-9.94-10.11-10.44c-8.45-0.49-7.96 9.85-7.96 9.85l2.94 35.73 18.02 0.78-2.89-35.92z"/>
    </g>
    <g id="g222" style="stroke:#f5ca78;fill:#f5ca78" image-rendering="optimizeQuality" color-rendering="optimizeQuality" color-interpolation="linearRGB">
      <path id="path224" inkscape:connector-curvature="0" d="m564.13 236.84s-1.48-9.24-7.94-9.62-5.86 9.23-5.86 9.23l3.32 32.63 13.99 1.18-3.51-33.42z"/>
    </g>
    <g id="g226" style="stroke:#f5ca78;fill:#f5ca78" image-rendering="optimizeQuality" color-rendering="optimizeQuality" color-interpolation="linearRGB">
      <path id="path228" inkscape:connector-curvature="0" d="m582.27 241.03s-1.18-8.64-5.42-8.95c-4.23-0.31-3.62 8.68-3.62 8.68l2.72 31.05 9.56 0.58-3.24-31.36z"/>
    </g>
    <g id="g230" style="stroke:#4dc7ff;fill:#4dc7ff" image-rendering="optimizeQuality" color-rendering="optimizeQuality" color-interpolation="linearRGB">
      <path id="path232" inkscape:connector-curvature="0" d="m158.52 183.48s-1.15-12.51-15.62-11.05c-14.46 1.47-15.39 14.78-15.39 14.78l-0.81 13.99 31.74-4.02 0.08-13.7z"/>
    </g>
    <g id="g234" style="stroke:#4dc7ff;fill:#4dc7ff" image-rendering="optimizeQuality" color-rendering="optimizeQuality" color-interpolation="linearRGB">
      <path id="path236" inkscape:connector-curvature="0" d="m115.49 193.83s-0.78-11.06-9.89-10.13c-9.117 0.94-9.643 12.66-9.643 12.66l0.146 11.5 19.187-4.08 0.2-9.95z"/>
    </g>
    <g id="g238" style="stroke:#4dc7ff;fill:#4dc7ff" image-rendering="optimizeQuality" color-rendering="optimizeQuality" color-interpolation="linearRGB">
      <path id="path240" inkscape:connector-curvature="0" d="m84.699 202.58s-0.66-10.28-7.621-9.57-7.299 11.57-7.299 11.57l0.156 9.73 15.146-3.27-0.382-8.46z"/>
    </g>
    <g id="g242" style="stroke:#4dc7ff;fill:#4dc7ff" image-rendering="optimizeQuality" color-rendering="optimizeQuality" color-interpolation="linearRGB">
      <path id="path244" inkscape:connector-curvature="0" d="m63.688 210.29s-0.108-9.69-4.68-9.61c-4.572 0.07-5.135 10.22-5.135 10.22l-0.285 7.29 10.042-2.1 0.058-5.8z"/>
    </g>
    <g id="g246" style="stroke:#4dc7ff;fill:#4dc7ff" image-rendering="optimizeQuality" color-rendering="optimizeQuality" color-interpolation="linearRGB">
      <path id="path248" inkscape:connector-curvature="0" d="m96.636 127.49 3.434-1.37v11.93l-3.434 1.02v-11.58z"/>
    </g>
    <g id="g250" style="stroke:#4dc7ff;fill:#4dc7ff" image-rendering="optimizeQuality" color-rendering="optimizeQuality" color-interpolation="linearRGB">
      <path id="path252" inkscape:connector-curvature="0" d="m64.931 153.98 1.486-0.92v8.09l-1.486 0.69v-7.86z"/>
    </g>
    <g id="g254" style="stroke:#f5ca78;fill:#f5ca78" image-rendering="optimizeQuality" color-rendering="optimizeQuality" color-interpolation="linearRGB">
      <path id="path256" inkscape:connector-curvature="0" d="m174.4 149.01s-10.31-2.28-16.24-3.01c-11.03 2.19-12.93 3.62-43.93 12.72-31 9.11-61.515 21.68-61.515 21.68l-0.046 5.62s30.085-12.48 61.271-21.25c31.2-8.77 38.06-8.53 50.73-9.99 6.82-0.79 10.26 0.26 10.26 0.26l-0.53-6.03z"/>
    </g>
    <g id="g258" style="stroke:#f5d59f;fill:#f5d59f" image-rendering="optimizeQuality" color-rendering="optimizeQuality" color-interpolation="linearRGB">
      <path id="path260" inkscape:connector-curvature="0" d="m174.95 154.16s-11.73-3.59-14.16-3.05c-8.83 1.77-13.06 2.85-44.44 11.72-31.376 8.87-63.496 23.14-63.496 23.14l0.352 6.8s30.144-14.65 61.594-23.53c31.44-8.89 41.6-8.45 52.29-10.46 5.75-1.09 8.17 2.98 8.17 2.98l-0.31-7.6z"/>
    </g>
    <g id="g262" style="stroke:#f5ca78;fill:#f5ca78" image-rendering="optimizeQuality" color-rendering="optimizeQuality" color-interpolation="linearRGB">
      <path id="path264" inkscape:connector-curvature="0" d="m175.27 161.02s-10.31-5.72-16.24-4.54c-11.02 2.19-10.93 2.71-41.94 11.82-30.998 9.1-64.125 23.93-64.125 23.93l0.139 4.22s30.19-12.68 61.386-21.45c31.19-8.77 32.81-9.43 45.48-10.89 6.83-0.79 15.84 4.27 15.84 4.27l-0.54-7.36z"/>
    </g>
    <g id="g266" style="stroke:#ffffff;fill:#ffffff" image-rendering="optimizeQuality" color-rendering="optimizeQuality" color-interpolation="linearRGB">
      <path id="path268" style="opacity:0.82" inkscape:connector-curvature="0" d="m578.85 174.02c-1.93 15.91-46.39 22.18-99.93 1.42-53.54-20.75-63.45-5.1-61.52-21 1.93-15.91-10.59-11.5 84.22-19.01s79.16 22.69 77.23 38.59z"/>
    </g>
    <g id="g270" style="stroke:#f5d59f;fill:#f5d59f" image-rendering="optimizeQuality" color-rendering="optimizeQuality" color-interpolation="linearRGB">
      <path id="path272" inkscape:connector-curvature="0" d="m232.97 224s-15.31-4.43-22.84-3.56c-13.99 1.6-26.53 3.53-61.87 7.07-54.36 5.45-105.57 18.88-105.57 18.88l1.246 7.4s40.765-13.21 95.134-18.66c32.62-3.27 53.97-6.15 71.78-7.84 11.87-1.12 22.71 3.92 22.71 3.92l-0.59-7.21z"/>
    </g>
    <g id="g274" style="stroke:#f5ca78;fill:#f5ca78" image-rendering="optimizeQuality" color-rendering="optimizeQuality" color-interpolation="linearRGB">
      <path id="path276" inkscape:connector-curvature="0" d="m233.45 229.43s-10.89-3.85-16.47-3.21c-13.04 1.5-29.11 3.83-67.17 7.64-54.366 5.45-105.65 18.17-105.65 18.17l-1.112 6.81s43.197-11.91 97.562-17.36c38.06-3.81 61.41-6.47 77.69-8 6.97-0.66 15.43 4.49 15.43 4.49l-0.28-8.54z"/>
    </g>
    <g id="g278" style="stroke:#f5d59f;fill:#f5d59f" image-rendering="optimizeQuality" color-rendering="optimizeQuality" color-interpolation="linearRGB">
      <path id="path280" inkscape:connector-curvature="0" d="m233.34 236.86s-11.91-4.43-19.44-3.57c-14 1.6-28.92 3.73-64.26 7.27-54.367 5.45-105.58 18.88-105.58 18.88l1.25 7.41s40.765-13.22 95.13-18.67c32.62-3.26 53.98-6.14 71.78-7.83 11.87-1.13 21.51 2.32 21.51 2.32l-0.39-5.81z"/>
    </g>
    <g id="g282" style="stroke:#f5d59f;fill:#f5d59f" image-rendering="optimizeQuality" color-rendering="optimizeQuality" color-interpolation="linearRGB">
      <path id="path284" inkscape:connector-curvature="0" d="m173.85 144.99s-14.99-5.31-17.42-4.77c-8.83 1.77-8.7 2.59-40.08 11.46-31.375 8.87-63.462 23.94-63.462 23.94l0.165 4.54s2.766-0.76 4.914-1.59c8.593-3.33 31.01-12.05 56.173-19.16 31.44-8.89 41.93-7.79 52.62-9.8 5.75-1.09 7.79-0.27 7.79-0.27l-0.7-4.35z"/>
    </g>
  </g>
  <metadata id="metadata286">
    <rdf:RDF>
      <cc:Work>
        <dc:format>image/svg+xml</dc:format>
        <dc:type rdf:resource="http://purl.org/dc/dcmitype/StillImage"/>
        <cc:license rdf:resource="http://creativecommons.org/licenses/publicdomain/"/>
        <dc:publisher>
          <cc:Agent rdf:about="http://openclipart.org/">
            <dc:title>Openclipart</dc:title>
          </cc:Agent>
        </dc:publisher>
      </cc:Work>
      <cc:License rdf:about="http://creativecommons.org/licenses/publicdomain/">
        <cc:permits rdf:resource="http://creativecommons.org/ns#Reproduction"/>
        <cc:permits rdf:resource="http://creativecommons.org/ns#Distribution"/>
        <cc:permits rdf:resource="http://creativecommons.org/ns#DerivativeWorks"/>
      </cc:License>
    </rdf:RDF>
  </metadata>
</svg>
