<?xml version="1.0"?>
<svg xmlns:rdf="http://www.w3.org/1999/02/22-rdf-syntax-ns#" xmlns="http://www.w3.org/2000/svg" xmlns:cc="http://web.resource.org/cc/" xmlns:dc="http://purl.org/dc/elements/1.1/" xmlns:svg="http://www.w3.org/2000/svg" id="svg2" viewBox="0 0 219.77 726.95" version="1.0">
  <g id="layer1" transform="translate(-217.25 -157.21)">
    <path id="path2717" d="m220.02 882.74c-2.37-1.84-2.41-2.02-0.76-3.69 1.66-1.67 1.8-1.67 3.04 0.02 0.94 1.29 2.97 1.85 7.5 2.07 3.42 0.17 6.22-0.09 6.22-0.58s1.9-0.77 4.23-0.62c3.01 0.19 4.23-0.12 4.25-1.09 0.01-0.75 1.6-2.1 3.52-3.01 1.93-0.91 3.5-2.17 3.5-2.81s0.34-1.49 0.75-1.91c0.41-0.41 0.75 0.29 0.75 1.56 0 2.21 0.24 2.28 5.73 1.71 3.64-0.37 5.19-0.25 4.25 0.33-1.73 1.07-1.99 3.17-0.51 4.22 0.57 0.41 0.08 0.74-1.11 0.75-1.43 0.01-2.09-0.56-2-1.73 0.12-1.5-0.71-1.74-5.72-1.63-3.77 0.08-6.17 0.61-6.71 1.49-1.4 2.27 0.24 2.85 10.03 3.54 6.99 0.5 9.18 0.37 8.64-0.49-0.43-0.69-0.09-1.16 0.84-1.16 0.86 0 1.56 0.45 1.56 1 0 1.09 6.71 1.15 11.5 0.11 2.4-0.52 2.7-0.85 1.5-1.63-1.16-0.75-0.71-1.08 2-1.48 2.93-0.42 3.5-0.91 3.5-3 0-2-0.56-2.57-2.83-2.83-2.08-0.24-2.67-0.73-2.23-1.87 0.34-0.89-0.17-2.14-1.17-2.9-1.65-1.25-1.62-1.34 0.41-1.37 1.51-0.02 2.29 0.66 2.53 2.22 0.19 1.23 0.78 2.18 1.32 2.09 0.53-0.09 2.41-0.38 4.16-0.65 4.01-0.63 5.31-1.42 5.31-3.25 0-0.95-1.12-1.47-3.25-1.51-2.72-0.06-2.92-0.21-1.25-0.93 3.85-1.66 6.11-1.18 5.92 1.25-0.28 3.62-1.57 6.77-2.54 6.17-1.45-0.9-3.88 2.23-3.88 5.01 0 2.07-0.48 2.57-2.5 2.57-1.37 0-2.5 0.45-2.5 1s1.34 1 2.97 1c2.5 0 3.13-0.53 3.91-3.25l0.94-3.25 0.09 3.25c0.09 3.22 0.14 3.25 5.09 3.25 4.87 0 5-0.08 5-2.94 0-1.62 0.42-3.21 0.94-3.52 0.51-0.32 0.89 0.82 0.84 2.53-0.05 1.72 0.54 3.52 1.32 4.01 1.98 1.25 15.18 1.18 14.4-0.08-0.34-0.55 0.09-1 0.94-1 0.86 0 1.56 0.45 1.56 1 0 0.56 2.86 1 6.58 1h6.57l-0.32-14.5c-0.29-12.67-0.13-14.51 1.25-14.5 0.86 0 6.49 0.87 12.5 1.93 14.54 2.57 23.84 3.49 20.42 2.02-1.37-0.6-5.2-1.45-8.5-1.89-12.88-1.73-26.5-4.41-26.5-5.22 0-1.05-2.33-1.34 18.52 2.25 9.89 1.7 21.36 3.46 25.48 3.92 4.13 0.45 13.13 1.79 20 2.96 16.13 2.76 30.92 5.03 32.83 5.03 1.96 0 0.98-0.96-1.44-1.42-6.99-1.32-24.62-4.12-40.35-6.4l-18.45-2.68-0.05-4.5c-0.03-3.85-0.35-4.55-2.22-4.81-1.4-0.2-2.58 0.43-3.29 1.75-1.41 2.63-4.03 2.67-4.03 0.06 0-1.1-0.5-2-1.12-2s-4.5-2.14-8.62-4.75l-7.5-4.75 38.18-0.67c21-0.36 38.76-0.89 39.46-1.16 2.53-0.97 3.3 1.02 5.54 14.33 1.25 7.42 2.34 13.5 2.42 13.5s1.15 0.56 2.38 1.25c1.23 0.68 2.92 1.25 3.75 1.25s1.51 0.4 1.51 0.89c0 1.1-5.65 2.12-9 1.62-11.17-1.69-12.27-1.77-11.67-0.8 0.71 1.15 9.88 2.43 16.42 2.3l4.25-0.09v7.54c0 7.52 0 7.54-2.75 7.66-9.84 0.46-21.37 0.51-25 0.12-3.88-0.41-4.25-0.7-4.25-3.27 0-4.11-0.97-5.97-3.1-5.97-1.58 0-1.9 0.75-1.9 4.5v4.5h-30.81l0.54-3.99c0.57-4.27-0.93-7.26-3.2-6.39-0.73 0.28-1.62 0.03-1.99-0.56-0.82-1.33-6.56-1.38-9.97-0.09-2.29 0.87-2.57 1.53-2.57 6.03 0 3.15-0.47 5.22-1.25 5.49-1.59 0.56-81.61 1.64-100.25 1.36-19.85-0.29-24.79-0.2-26.5 0.5-0.82 0.33-2.62-0.26-4-1.32zm196.27-7.03c0.34 0.82 0.81 2.4 1.06 3.5 0.33 1.51 0.47 1.34 0.56-0.67 0.15-3.48-0.79-5.83-2.34-5.83-0.68 0-2.07-0.92-3.09-2.05-1.93-2.13-6.5-2.37-7.16-0.37-0.21 0.66 0.73 0.92 2.45 0.67 3.75-0.55 7.12 2.78 4.78 4.73-1.29 1.06-1.53 0.93-1.53-0.86 0-2.95-2.43-2.66-3.85 0.45-1.61 3.53-0.57 4.73 3.47 3.97 2.4-0.45 3.42-0.26 3.51 0.66 0.08 0.71 0.45-0.28 0.83-2.2 0.45-2.25 0.92-2.97 1.31-2zm11.19-0.71c-0.02-2.86-0.25-5.41-0.5-5.66s-2.01-0.6-3.9-0.79l-3.44-0.34 0.14 6c0.07 3.3 0.16 6.14 0.19 6.31s1.74 0.17 3.8 0l3.75-0.31-0.04-5.21zm7.54-0.79c0-4.23-0.35-5.5-1.5-5.5-1.12 0-1.5 1.2-1.5 4.83 0 2.66 0.3 5.13 0.67 5.5 1.66 1.66 2.33 0.26 2.33-4.83zm-26-11.38c0-0.48-1.46-1.17-3.25-1.53-4.56-0.92-24.84-3.58-27.25-3.57-4.06 0.01 0.78 1.81 6.74 2.5 3.23 0.38 9.11 1.27 13.07 1.99 8.92 1.62 10.69 1.72 10.69 0.61zm-55.33 19.21c-1.06-1.06-0.77-8.33 0.33-8.33 0.55 0 1 2.02 1 4.5 0 4.57-0.15 5.01-1.33 3.83zm3.34-1.48c0-2.05 0.51-2.37 4-2.5 3.31-0.13 3.99 0.17 3.99 1.75 0 1.34-0.71 1.9-2.42 1.9-1.33 0-3.13 0.27-4 0.6-1.16 0.45-1.58-0.01-1.57-1.75zm10.26-2.85c0-2.48 0.2-3.49 0.44-2.25 0.24 1.23 0.24 3.26 0 4.5-0.24 1.23-0.44 0.22-0.44-2.25zm34.73 0.33c0-4.29 0.47-4.14 1.33 0.42 0.36 1.86 0.21 3.25-0.35 3.25-0.54 0-0.98-1.65-0.98-3.67zm-90.6 0.39c2.1-1.56 1.44-3.66-1.21-3.84-1.94-0.14 3.32-1.6 6.31-1.75 1.64-0.08 1.73 0.07 0.5 0.85-0.82 0.53-1.5 1.98-1.5 3.24 0 1.79-0.64 2.34-3 2.6-2.79 0.3-2.87 0.22-1.1-1.1zm16.36 0.57c1.25-0.24 3.05-0.23 4 0.02 0.96 0.25-0.06 0.45-2.26 0.43-2.2-0.01-2.98-0.21-1.74-0.45zm-91.76-1.29c0-0.55 0.45-1 1-1s1 0.45 1 1-0.45 1-1 1-1-0.45-1-1zm38.34-1.96c0-1.63 0.37-2.72 0.83-2.44s0.83 1.61 0.83 2.96c0 1.34-0.37 2.44-0.83 2.44s-0.83-1.33-0.83-2.96zm-56.88 0.69c-1-2.57 1.45-7.69 3.92-8.21 1.17-0.25 5.05-0.89 8.62-1.42 6.1-0.91 19.25-3.3 64-11.61 25.41-4.72 35.45-6.49 36.83-6.49 1.87 0 1.35 1.56-0.58 1.72-0.96 0.08-7.82 1.31-15.25 2.73-7.42 1.41-17.32 3.26-22 4.11-4.67 0.84-10.52 1.92-13 2.4-2.47 0.47-8.55 1.6-13.5 2.49s-12.37 2.26-16.5 3.05c-4.12 0.78-10.42 1.91-14 2.5-3.57 0.59-8.86 1.54-11.75 2.11-6.21 1.22-7.26 3.42-1.25 2.61 4.9-0.65 5.35 0.8 0.53 1.71-1.91 0.35-3.91 1.42-4.43 2.36-0.9 1.6-1.01 1.6-1.64-0.06zm5.54 0.21c0-1.64 13.51-3.55 14.44-2.05 0.38 0.62 0.11 0.88-0.64 0.61-0.71-0.26-4.11 0.12-7.55 0.84-3.44 0.73-6.25 0.99-6.25 0.6zm139.88-0.74c-0.38-3.61-0.29-4.22 0.62-4.38 1.44-0.26 1.89 3.19 0.6 4.48-0.8 0.79-1.13 0.77-1.22-0.1zm-66.63-1.7c-1.55-1.76-1.63-2.86-0.14-1.94 0.74 0.46 0.89-0.01 0.43-1.44-0.58-1.84-0.28-2.12 2.34-2.12 3.13 0 4.9 1.4 3.14 2.49-0.56 0.34-1.02 1.5-1.02 2.57 0 2.29-2.89 2.56-4.75 0.44zm-29.75-3c0-1.38 0.34-2.5 0.75-2.5s0.75 0.65 0.75 1.45c0 0.79 0.79 1.91 1.75 2.47 1.53 0.89 1.43 1.02-0.75 1.05-2.01 0.02-2.5-0.47-2.5-2.47zm63 1.5c-1.77-0.77-1.68-0.87 0.75-0.93 1.51-0.04 2.75 0.38 2.75 0.93 0 1.17-0.77 1.17-3.5 0zm27.5-0.44c0-0.86 0.45-1.56 1-1.56s1 0.42 1 0.94c0 0.51-0.45 1.22-1 1.56s-1-0.09-1-0.94zm-123.52-0.42c-1.07-1.07 0.95-2.14 4.05-2.14 2.63 0 3.28 0.34 2.83 1.5-0.52 1.36-5.68 1.84-6.88 0.64zm86.52-0.7c0-0.86 0.45-1.28 1-0.94s1 1.04 1 1.56c0 0.51-0.45 0.94-1 0.94s-1-0.71-1-1.56zm-63.64-2.94c-0.17-2.96 2.17-3.41 2.92-0.56 0.55 2.1 0.02 3.06-1.69 3.06-0.6 0-1.15-1.13-1.23-2.5zm47.19 0.57c-0.64-1.04 0.97-1.62 7.2-2.59 2.8-0.43 4.25-0.29 4.25 0.43 0 0.6-1.6 1.09-3.56 1.09s-4.41 0.45-5.44 1c-1.14 0.61-2.1 0.64-2.45 0.07zm15.31-1.16c-0.72-0.44-1.09-1.01-0.83-1.27 0.86-0.83 10.49-1.92 9.7-1.09-1.44 1.53-7.57 3.16-8.87 2.36zm-44.49-1.52c-0.37-1.04-0.86-2.23-1.08-2.64-0.22-0.42 0.02-0.75 0.54-0.75 0.99 0 2.4 4.1 1.66 4.85-0.24 0.24-0.75-0.42-1.12-1.46zm55.82-0.46c0.24-0.72 1.03-1.51 1.75-1.75 0.75-0.25 1.12 0.13 0.87 0.88-0.24 0.72-1.02 1.51-1.75 1.75-0.75 0.25-1.12-0.13-0.87-0.88zm-99.72-2.62c0.24-1.55 0.97-8.54 1.62-15.54l1.18-12.73 39.12-0.27c39.82-0.28 44.63-0.17 44.58 1.04-0.04 1.05-10.56 7.19-12.3 7.19-0.84 0-1.82 0.9-2.17 2-0.75 2.36-4.5 2.72-4.5 0.43 0-1.06-0.73-1.47-2.25-1.25-1.95 0.27-2.25 0.91-2.25 4.82v4.5l-5 1.13c-2.75 0.62-11.52 2.33-19.5 3.79-22.46 4.13-35.33 6.61-37.24 7.18-1.42 0.43-1.65 0.02-1.29-2.29zm66.97-0.41c-0.3-0.5-0.03-0.9 0.61-0.9s0.91-0.66 0.6-1.47-0.1-1.75 0.46-2.1c1.23-0.76 1.45-0.55 2.3 2.19 0.49 1.61 0.15 2.26-1.38 2.66-1.11 0.29-2.28 0.12-2.59-0.38zm16.74-2.85c1.93-1.56 2.06-2.06 0.92-3.44-1.16-1.39-1.08-1.61 0.53-1.61 1.5 0.01 5.07 4.81 4.11 5.53-0.13 0.1-1.94 0.45-4.03 0.77l-3.79 0.58 2.26-1.83zm16.32-3.05c1-1.1 1.97-2 2.16-2s0.34 0.9 0.34 2c0 1.38-0.66 2-2.15 2-2.09 0-2.1-0.06-0.35-2zm-34.4-7.75c0.09-3.35 0.19-3.48 0.9-1.25 1.15 3.57 1.15 5 0 5-0.55 0-0.95-1.69-0.9-3.75zm72.15 0.25c0.02-2.2 0.22-2.99 0.46-1.74 0.24 1.24 0.23 3.04-0.02 4-0.25 0.95-0.45-0.06-0.44-2.26zm-63.02-0.5c0-1.93 0.21-2.72 0.46-1.75 0.25 0.96 0.25 2.53 0 3.5-0.25 0.96-0.46 0.17-0.46-1.75zm54.02-0.5c0.02-2.2 0.22-2.99 0.46-1.74 0.24 1.24 0.23 3.04-0.02 4-0.25 0.95-0.45-0.06-0.44-2.26zm-60.25 1.5c0-0.55 0.68-1 1.5-1 0.83 0 1.5 0.45 1.5 1s-0.67 1-1.5 1c-0.82 0-1.5-0.45-1.5-1zm8.01-2.12c0.01-3.03 0.63-3.78 5.92-7.19 3.89-2.51 6.27-4.82 6.94-6.75l1.03-2.94h9.93c8.87 0 9.99 0.2 10.43 1.87 0.27 1.02 3.69 3.94 7.61 6.48 3.92 2.53 7.13 5.28 7.13 6.1 0 1.93-14.55-6.74-16.06-9.57-0.94-1.75-1.97-1.93-9.74-1.67-7.86 0.26-8.73 0.48-8.99 2.31-0.18 1.24-2.66 3.52-6.35 5.82-3.33 2.08-5.8 4.05-5.49 4.36 0.84 0.84 11.65-5.9 12.76-7.95 0.76-1.41 2.3-1.75 7.82-1.75 3.79 0 7.04 0.33 7.22 0.75 0.48 1.07 7.56 5.57 13.56 8.61 7.5 3.8 7.81 5.09 1.01 4.29-3.06-0.36-8.37-1.37-11.79-2.25-5.73-1.46-6.98-1.46-15.83 0.08-18.49 3.22-17.12 3.27-17.11-0.6zm55.49 2.12c0.34-0.55 0.82-1 1.06-1s0.44 0.45 0.44 1-0.47 1-1.06 1c-0.58 0-0.78-0.45-0.44-1zm-124.31-19.77l0.31-2.73 37.25-0.27c31.89-0.22 37.25-0.05 37.25 1.18 0 0.8-0.69 2.14-1.54 2.98-1.32 1.33-6.49 1.54-37.56 1.55l-36.03 0.02 0.32-2.73zm77.98-2.68c-0.09-4.33 0.02-4.52 1.96-3.48 1.13 0.6 3.14 0.82 4.47 0.49 1.7-0.43 2.4-0.18 2.4 0.84 0 3.07-1.3 4.6-3.9 4.6-1.49 0-3.18 0.48-3.77 1.07-0.76 0.76-1.1-0.25-1.16-3.52zm29.82 2.42c-0.63-1.18-0.96-2.34-0.72-2.57 0.23-0.24 13.66-0.65 29.83-0.92s32.61-0.73 36.54-1.02c7.06-0.52 7.14-0.5 7.79 2.12 0.37 1.46 0.54 2.77 0.37 2.91-0.16 0.14-16.58 0.56-36.48 0.94l-36.18 0.69-1.15-2.15zm-6.99 0.08c-3.2-0.51-3.52-0.87-3.81-4.3-0.29-3.57 0.94-4.98 2.35-2.69 0.36 0.58 1.85 0.92 3.3 0.75 2.4-0.28 2.65 0 2.66 3.03 0 3.94 0.01 3.93-4.5 3.21zm-100.47-4.85c-0.16-0.17-0.14-1.74 0.04-3.5 0.81-7.62 1.76-21.33 1.58-22.71-0.1-0.82 1.17-2.99 2.83-4.81 3.53-3.86 4.06-9.25 1.3-13.21l-1.73-2.47 2.92 1.89c2.82 1.84 5.54 1.89 82.4 1.37 75.15-0.5 79.56-0.63 80.81-2.34 1.97-2.7 1.63-3.42-1.62-3.42-1.83 0-3.49-0.78-4.37-2.04l-1.43-2.05-0.54 2.05c-0.42 1.63-1.34 2.04-4.59 2.04h-4.06l0.41-4.12c0.27-2.69 1.12-4.61 2.47-5.56 1.13-0.79 2.05-2.54 2.05-3.88 0-2.18 0.43-2.44 3.97-2.44 2.78 0 4.25 0.53 4.92 1.79 0.53 0.98 2.12 2.41 3.53 3.17 2.21 1.18 2.58 2.03 2.54 5.96-0.03 2.51-0.69 6.38-1.49 8.58-2.28 6.33-1.88 10.23 1.36 13.48 2.51 2.51 3.06 4.29 4.93 16.15 1.16 7.33 2.03 13.4 1.93 13.47-0.11 0.08-14.09 0.45-31.09 0.82-16.99 0.37-31.16 0.71-31.5 0.74-0.33 0.04-3 0.02-5.93-0.05l-5.32-0.11 0.22-3.25c0.12-1.79 0.16-5.92 0.08-9.18-0.14-5.7-0.33-6.11-4.77-10.24-3.11-2.9-4.17-4.46-3.25-4.78 0.75-0.26 17.57-0.7 37.37-0.97s36.14-0.51 36.31-0.54c0.17-0.02 0.03-0.49-0.31-1.04s-2.91-1-5.71-1c-5.03 0-5.08-0.03-3.29-2 1.77-1.96 1.75-2-0.82-2-1.99 0-2.8-0.63-3.28-2.55-0.85-3.38-2.82-2.59-3.2 1.29-0.25 2.42 0.15 3.23 1.82 3.76 1.17 0.37 1.94 0.87 1.71 1.11-0.24 0.23-20.86 0.7-45.83 1.03-37.64 0.5-45.18 0.38-44.15-0.72 2.07-2.19 1.48-3.69-1.25-3.17-2.07 0.4-2.73-0.08-3.88-2.8-1.32-3.15-1.42-3.19-2.5-1.18-1.67 3.12-1.37 4.94 1.1 6.67 2.11 1.47 1.86 1.56-4.65 1.56-6.6 0-6.81-0.08-5.22-1.83 2.07-2.29 2.12-3.29 0.11-2.52-1.9 0.73-5.71-2.55-5.02-4.34 0.63-1.64-0.64-1.71-2.24-0.11-1.91 1.91-1.39 5.42 1.05 7.12 2.19 1.52 2.1 1.58-2.75 1.77-14.43 0.58-18.87 0.71-28.31 0.8-7.25 0.08-10.1 0.43-9.62 1.21 0.49 0.79 11.56 0.95 39.06 0.56 23.86-0.35 38.37-0.2 38.37 0.39 0 0.52-0.37 0.95-0.82 0.95s-2.71 1.62-5.03 3.6l-4.22 3.61 0.48 9.45c0.34 6.77 0.14 9.57-0.72 9.88-1.34 0.48-72.69 1.12-73.16 0.66zm21.27-33.4c1.69-1.7 1.5-3.3-0.22-1.87-1.13 0.94-1.96 0.72-4-1.05-1.42-1.24-2.58-2.89-2.58-3.69 0-1.12-0.31-1.18-1.39-0.28-1.44 1.19-1.11 4.57 0.66 6.84 1.24 1.59 5.96 1.62 7.53 0.05zm16 0c1.87-1.87 1.43-2.57-1.3-2.05-2.05 0.39-2.73-0.07-3.8-2.63-1.02-2.41-1.58-2.84-2.5-1.92-1.47 1.47-1.52 3.32-0.16 5.86 1.17 2.19 5.86 2.64 7.76 0.74zm47.27 0.16c2.66-1.42 2.6-4.31-0.07-3.46-2.14 0.68-4.97-1.4-5.03-3.68-0.02-0.83-0.58-0.6-1.5 0.62-1.92 2.53-1.86 3.17 0.53 5.56 2.27 2.26 3.32 2.43 6.07 0.96zm16.18-0.36c2.41-1.82 2.2-2.42-0.97-2.79-1.61-0.18-3.18-1.22-3.83-2.54-0.84-1.69-1.38-1.94-2.28-1.05-1.7 1.71-1.44 3.5 0.83 5.78 2.32 2.31 3.81 2.46 6.25 0.6zm14.82 0.36c2.87-1.53 2.47-3.79-0.57-3.21-1.86 0.36-2.5 0.05-2.5-1.2 0-0.92-0.44-1.4-0.99-1.06-0.58 0.36-0.72-0.08-0.34-1.08 0.45-1.17 0.22-1.55-0.76-1.22-1.83 0.6-2.4 5.51-0.86 7.37 1.41 1.7 3.35 1.83 6.02 0.4zm15.73-1.16c1.77-1.77 1.47-2.8-0.8-2.8-1.1 0-2-0.45-2-1s-0.7-1-1.56-1c-0.9 0-1.26-0.48-0.86-1.13 0.43-0.69 0.15-0.95-0.69-0.67-1.83 0.6-2.36 4.53-0.84 6.35 1.45 1.76 5.11 1.89 6.75 0.25zm14.62 0.59c2.3-0.88 1.94-2.09-0.85-2.79-1.34-0.33-2.73-1.53-3.09-2.66-0.79-2.52-2.87-2.04-3.28 0.76-0.54 3.66 3.33 6.18 7.22 4.69zm-64.85 28.07c-0.91-1.39-2.11-2.24-2.67-1.9-0.65 0.4-0.91-0.95-0.71-3.72l0.31-4.34h4c3.93 0 4.01 0.07 4.32 3.9 0.66 8.09-1.95 11.1-5.25 6.06zm21.51 1.58c-0.75-0.46-1.09-1.56-0.75-2.44 0.67-1.77-1.78-2.29-2.83-0.6-1.37 2.22-1.98 0.73-1.65-4.06l0.35-5.05 3.49 0.3c3.43 0.3 3.49 0.39 3.83 5.36 0.38 5.7-0.39 7.76-2.44 6.49zm-19.83-13.79c-2.89-0.2-5.25-0.67-5.24-1.06 0-1.43 11.83-10.19 13.76-10.19 1.98 0 13.23 8.68 13.23 10.21 0 0.43-3.11 0.79-6.92 0.79-3.8 0-7.51 0.13-8.25 0.3-0.73 0.17-3.69 0.15-6.58-0.05zm-79.25-35.21c0-4.12 0.47-5.39 2.74-7.5 1.86-1.73 3.88-2.54 6.28-2.54 3.52 0 3.53 0.01 3.15 4-0.36 3.85-0.51 4-4.02 4.06-3.55 0.07-3.58 0.1-1.15 1.23 6.14 2.83 5.39 5.71-1.5 5.71h-5.5v-4.96zm13 1.53c0-2.42 0.7-3.98 2.39-5.31 1.32-1.03 2.56-2.75 2.76-3.82 0.33-1.7 1.48-2.01 9.36-2.47 4.95-0.29 9.17-0.41 9.38-0.27 0.22 0.13-0.07 0.82-0.65 1.52s-1.2 2.4-1.39 3.78c-0.28 2-1 2.56-3.6 2.81-3.96 0.38-4.29 1.93-0.5 2.37 1.97 0.23 2.84 0.96 3.07 2.57 0.3 2.07-0.07 2.25-4.56 2.25-4.38 0-4.98-0.28-5.96-2.75l-1.09-2.75-0.1 2.75c-0.1 2.57-0.39 2.75-4.61 2.75-4.46 0-4.5-0.04-4.5-3.43zm23.4 1.84c0.33-0.87 0.6-2.84 0.6-4.39 0-2.16 0.58-2.95 2.5-3.43 1.83-0.46 2.5-1.3 2.5-3.11 0-2.19 0.45-2.49 3.75-2.55 2.06-0.04 5.95-0.3 8.64-0.58 4.26-0.45 4.8-0.3 4.25 1.15-0.35 0.91-0.64 2.72-0.64 4.02 0 2.06-0.53 2.4-4.25 2.67-2.34 0.17-4.13 0.75-3.99 1.3 0.14 0.54 0.82 1.03 1.5 1.09s2.25 0.18 3.49 0.26c1.69 0.12 2.25 0.78 2.25 2.66 0 2.24-0.4 2.5-3.95 2.5-2.72 0-4.25-0.55-4.93-1.75-0.94-1.67-1.02-1.67-1.66 0-0.52 1.34-1.83 1.75-5.67 1.75-4.15 0-4.9-0.27-4.39-1.59zm23.6-2.3c0-3.01 0.55-4.24 2.43-5.47 1.33-0.88 2.57-2.62 2.75-3.87 0.3-2.14 0.82-2.29 9.09-2.54l8.78-0.26-0.61 2.76c-0.33 1.52-0.77 3.3-0.97 3.95-0.19 0.66-2.07 1.36-4.16 1.56l-3.81 0.37 3.25 1.29c2.41 0.96 3.25 1.92 3.25 3.69 0 2.04-0.49 2.41-3.17 2.41-1.74 0-3.99-0.75-5-1.66-1.7-1.54-1.83-1.54-1.83 0 0 1.32-1.01 1.66-5 1.66h-5v-3.89zm23.67 3.22c-1.66-1.66-0.59-7.25 1.72-9.07 1.32-1.03 2.56-2.75 2.76-3.82 0.33-1.73 1.38-1.98 9.36-2.24 7.15-0.23 8.72-0.04 7.73 0.95-0.68 0.69-1.24 2.51-1.24 4.05 0 2.54-0.32 2.8-3.58 2.8-4.08 0-4.32 2.08-0.34 3.01 1.51 0.35 2.54 1.4 2.74 2.78 0.29 1.97-0.12 2.21-3.78 2.21-3.32 0-4.27-0.43-5.01-2.25l-0.9-2.25-0.06 2.25c-0.06 1.97-0.59 2.25-4.4 2.25-2.38 0-4.63-0.3-5-0.67zm22.33-3.83c0-3.4 0.48-4.79 2-5.74 1.1-0.68 2-2.26 2-3.5 0-2.19 0.32-2.26 9.2-2.26 7.16 0 8.94 0.26 8 1.2-0.66 0.66-1.2 2.46-1.2 4 0 2.53-0.33 2.8-3.5 2.8-1.92 0-3.5 0.45-3.5 1 0 0.95 0.65 1.18 4 1.4 0.86 0.05 1.64 1.27 1.82 2.85 0.29 2.55 0.05 2.75-3.28 2.75-2.28 0-3.81-0.55-4.18-1.5-0.31-0.83-0.97-1.5-1.46-1.5-0.5 0-0.9 0.67-0.9 1.5 0 1.11-1.16 1.5-4.5 1.5h-4.5v-4.5zm22.85 2.75c-0.35-3.92 0.4-6.86 2.25-8.85 1.16-1.24 1.7-2.77 1.32-3.75-0.53-1.38 0.09-1.66 3.73-1.7 2.39-0.03 6.49-0.16 9.1-0.29 4.77-0.25 5.53 0.13 3.84 1.89-0.51 0.52-1.07 2.07-1.25 3.45-0.27 1.98-1.06 2.62-3.84 3.08-3.51 0.58-3.2 1 1.75 2.48 0.69 0.21 1.25 1.29 1.25 2.41 0 1.63-0.65 2.03-3.3 2.03-1.81 0-3.81-0.51-4.43-1.14-0.85-0.85-1.55-0.72-2.77 0.5-2.26 2.26-7.45 2.18-7.65-0.11zm-120.85-16.81v-2.44l14.25-0.02c7.84 0 42.71-0.3 77.5-0.65 56.5-0.57 63.25-0.47 63.25 0.9 0 2.74 2.88 2.64-98 3.35-23.92 0.17-46.54 0.53-50.25 0.81-6.62 0.48-6.75 0.45-6.75-1.95zm0.6-4.44c-0.12-0.28-0.04-2.99 0.17-6.02l0.39-5.52 18.67 0.02 18.67 0.02 0.3 4.58c0.19 2.91-0.19 4.99-1.02 5.69-1.31 1.08-36.75 2.26-37.18 1.23zm41.4-5.94v-6.06l12.25-0.05c6.74-0.02 23.64-0.29 37.55-0.6l25.3-0.56-0.3 6.35-0.3 6.36-3.75 0.31c-3.41 0.28-3.76 0.08-3.87-2.25-0.29-5.85-0.23-5.81-10.08-5.76-4.56 0.03-17.38 0.08-28.49 0.12l-20.19 0.08-0.31 3.75c-0.29 3.54-0.51 3.76-4.06 4.06l-3.75 0.31v-6.06zm77 0.84c0-7.46 1.04-7.9 18.7-7.9h15.04l1.05 5.25c0.58 2.88 0.75 5.56 0.38 5.93-0.37 0.38-8.43 0.83-17.92 1l-17.25 0.32v-4.6zm-117.29-10.7c-0.2-0.39-0.02-5.2 0.4-10.7s1.07-14.73 1.44-20.5c0.75-11.53 1.31-9.86-6.12-18.24-2.03-2.3-2.43-3.79-2.43-9.15 0-4.62 0.4-6.55 1.43-6.95 2.22-0.85 3.76 1.85 3.46 6.06-0.16 2.11 0.06 4.38 0.47 5.05 0.54 0.87 4.58 1.23 13.7 1.23h12.94v-5.07c0-8.96-0.05-8.93 16.54-8.93 8.79 0 14.46 0.38 14.46 0.98 0 1.49-3.46 2-15.5 2.27l-11 0.25-0.3 5.28-0.3 5.28 13.3-0.28 13.3-0.28 0.32-4.5c0.35-4.91 2.84-8.75 4.56-7.03 1.76 1.77 2.62 1.13 2.62-1.94 0-2.51 0.94-3.6 6.18-7.15l6.17-4.2 4.12 2.19c6.69 3.55 9.53 6.73 9.53 10.67 0 3.42-0.04 3.46-4.44 3.46-2.44 0-4.72 0.45-5.06 1-0.36 0.59 0.78 1 2.82 1 3.77 0 6.24 2.1 5.31 4.51-0.49 1.3-2.55 1.5-12.86 1.27-11.98-0.28-12.28-0.34-12.6-2.61-0.23-1.67 0.26-2.47 1.75-2.86 2.98-0.78 2.57-2-0.7-2.09-2.63-0.07-2.79 0.17-2.75 4.1l0.03 4.18 14.93 0.27c16.67 0.31 16.53 0.37 16.56-6.52 0.01-3.58 0.33-4.25 2.01-4.25 1.66 0 2 0.66 2 3.91 0 7.15-0.11 7.09 13.04 7.09h11.82l0.69-5.52c0.38-3.03 1.1-5.77 1.61-6.08 1.86-1.15 3.75 1.86 4.04 6.43l0.3 4.67 10 0.2c14.69 0.31 14.35 0.47 14.7-6.96 0.23-4.75 0.66-6.24 1.8-6.24 1.21 0 1.53 1.73 1.66 9 0.15 8.2-0.05 9.22-2.2 11.5-1.29 1.37-3.42 3.79-4.71 5.37l-2.35 2.87 2.25 17.13c1.24 9.42 2.28 17.91 2.31 18.88 0.04 1.59-1.4 1.75-16.54 1.75h-16.59l-1.13-3c-1.45-3.84-3.06-3.89-2.5-0.09 0.41 2.79 0.25 2.93-3.84 3.25l-4.27 0.34-0.29-5-0.3-5-6.4-0.31c-3.56-0.16-6.86 0.17-7.45 0.75-0.73 0.74 0.34 1.06 3.57 1.06 6.05 0 7.79 0.75 7.77 3.35-0.02 2.88-1.03 4.23-3.79 5.09-2.66 0.84-4.89-0.67-6.51-4.4l-1.1-2.54-0.35 3.25c-0.2 1.78-0.67 3.31-1.05 3.39-0.38 0.07-2.35 0.23-4.39 0.35l-3.7 0.22-0.3-5.11-0.3-5.1-5.75-0.3c-3.54-0.19-5.75 0.1-5.75 0.75 0 0.57 1.82 1.05 4.03 1.05 4.59 0 5.82 1.66 4.36 5.86-0.65 1.84-1.76 2.73-3.68 2.95-2.29 0.27-2.98-0.22-4.14-2.98l-1.39-3.31-0.34 2.99c-0.31 2.74-0.69 3.01-4.59 3.29l-4.25 0.31v-10.11h-6c-3.6 0-6 0.42-6 1.07 0 0.59 1.01 0.99 2.25 0.89 4.53-0.37 6.55 0.07 7.12 1.55 0.84 2.18-1.4 6.49-3.37 6.49-1.77 0-4.35-2.45-5.29-5-0.3-0.83-0.59-0.04-0.63 1.75-0.07 3.11-0.25 3.25-4.08 3.25h-4v-38.12l3.75 0.31c3.32 0.27 3.75 0.61 3.75 2.97 0 3.66 1.12 4.48 1.9 1.38 0.42-1.65 1.33-2.54 2.62-2.54 1.84 0 1.98 0.69 1.98 9.87 0 7.68-0.34 10.17-1.54 11.16-1.71 1.42-2.97 0.58-3.79-2.53-0.28-1.1-0.44-0.43-0.34 1.5l0.17 3.5 5.5-0.02 5.5-0.02 0.28-12.73 0.28-12.73h4.47c4.36 0 4.47 0.07 4.54 3.25 0.06 3.06 0.13 3.12 1.15 1 0.6-1.24 1.92-2.25 2.93-2.25 1.57 0 1.87 0.87 1.97 5.75 0.07 3.16 0.23 7.55 0.35 9.75s-0.15 4.74-0.6 5.64c-0.67 1.34-0.18 1.72 2.63 2.05 1.89 0.22 3.61-0.07 3.8-0.65 0.2-0.57 0.42-6.44 0.49-13.04l0.12-12 3.8-0.65c4.67-0.79 5.09-0.55 4.75 2.62-0.16 1.39 0.13 2.53 0.63 2.53s0.91-0.68 0.91-1.5c0-0.9 1.01-1.56 2.5-1.65 1.38-0.09 2.95-0.2 3.5-0.25 1.66-0.17 2.09 20.82 0.48 23.13-1.27 1.81-1.14 1.93 2.03 1.82 1.86-0.06 3.65-0.38 3.97-0.7s0.8-6.16 1.06-12.97l0.48-12.38 3.99-0.31c3.08-0.24 3.99 0.05 3.99 1.25 0 2.81 1.85 1.63 3.17-2.02l1.29-3.58 14.41 0.28 14.41 0.29 3.35-3.96c1.84-2.17 3.35-4.4 3.36-4.95 0.01-0.66-26.64-1-77.99-1-64.81 0-78 0.22-78 1.35 0 0.74 1.52 2.86 3.37 4.71l3.37 3.37 14.18-0.08c15.93-0.1 15.99-0.07 18.19 7.65 1.67 5.87 0.38 31.3-1.71 33.61-1.35 1.49-3.79 1.72-18.44 1.76-9.29 0.02-17.06-0.28-17.25-0.67zm72.29-11.66c0-1.27-2.43-5.54-3.16-5.54-1.06 0-1.05 0.3 0.14 3.43 0.81 2.13 3.02 3.68 3.02 2.11zm22.98-0.29c-0.01-0.42-0.9-1.88-1.98-3.25l-1.95-2.5-0.03 3.25c-0.01 2.59 0.39 3.25 1.98 3.25 1.1 0 1.99-0.34 1.98-0.75zm-13.48-54.75c0-2.97-0.05-3-5.48-3-4.5 0-5.55 0.32-5.84 1.8-0.74 3.87 0.54 4.82 6.06 4.5 5.11-0.29 5.26-0.39 5.26-3.3zm-43.79 26.87c-1.82-1.82-0.21-2.45 5.54-2.17 3.52 0.17 6.15 0.73 6.01 1.3-0.27 1.16-10.49 1.93-11.55 0.87zm21 0c-1.76-1.76-0.24-2.37 5.88-2.37 4.82 0 6.47 0.33 6.17 1.25-0.45 1.36-10.84 2.33-12.05 1.12zm44.88-0.12c-1.63-1.63 0-2.25 5.91-2.25 6.48 0 9.52 1.93 3.25 2.07-1.79 0.03-4.45 0.22-5.91 0.42-1.46 0.19-2.92 0.09-3.25-0.24zm-23.59-1.25c0-0.56 2.67-1 6-1 3.34 0 6 0.44 6 1 0 0.55-2.66 1-6 1-3.33 0-6-0.45-6-1zm-79.59-13.92c-1.09-1.1-0.21-4 1.34-4.45 2.44-0.7 16.71-0.09 18.1 0.78 0.64 0.39 1.15 1.32 1.15 2.08 0 1.05-2.35 1.45-10.09 1.69-5.54 0.17-10.27 0.13-10.5-0.1zm30.59-1.61c0-1.81 0.78-2.84 2.75-3.66l2.75-1.13-3-0.72c-2.66-0.65-2.48-0.74 1.63-0.85 3.09-0.07 5.06 0.4 5.93 1.45 0.8 0.97 2.15 1.35 3.55 1 3.24-0.81 7.39 1.03 7.39 3.27 0 1.53-0.99 2.01-5.25 2.52-2.89 0.35-7.61 0.63-10.5 0.64-4.95 0.01-5.25-0.14-5.25-2.52zm68.6 0.98c-1.49-1.49-1.48-1.85 0.13-4.57 0.96-1.63 1.9-2.49 2.09-1.92 0.45 1.33 4.18 1.36 4.18 0.04 0-0.58 2.65-0.94 6.25-0.85 3.44 0.08 5.01 0.33 3.5 0.56-3.33 0.51-3.51 1.48-0.5 2.8 1.26 0.55 2.25 1.87 2.25 2.99 0 1.81-0.76 2.02-8.14 2.29-6.44 0.22-8.48-0.05-9.76-1.34zm28.8-0.86c-0.92-2.39 2.74-6.53 5.79-6.56 1.48-0.02 2.95 0.37 3.25 0.87 0.31 0.5 2.28 0.68 4.38 0.39 4.21-0.56 7.54 1.62 6.97 4.58-0.44 2.32-19.52 2.99-20.39 0.72zm-124.4-5.64c6.02-1.07 18.73-1.03 14.5 0.05-1.65 0.42-6.6 0.76-11 0.75-7.1 0-7.49-0.09-3.5-0.8zm44.25-0.64c0.96-0.25 2.54-0.25 3.5 0s0.18 0.45-1.75 0.45c-1.92 0-2.71-0.2-1.75-0.45zm-49.25-1.85c0-0.29 0.65-1.53 1.44-2.75 1.14-1.74 1.26-3.67 0.58-9.1-0.56-4.49-0.47-8.71 0.25-12.15 0.95-4.52 1.58-5.5 4.45-6.87 1.84-0.88 3.99-1.59 4.77-1.59 2.01 0 2.83-5.66 1.6-11-1.27-5.49-1.28-6.15-0.21-7.85 0.71-1.1 1.22-1.11 2.94-0.03 2.44 1.52 3.99 0.55 2.32-1.46-1.58-1.9-0.36-7.61 2.25-10.55l2.11-2.38-2.18 1.13c-1.2 0.63-2.37 1.14-2.59 1.14-0.45 0-1.09-8.51-1.05-14 0.02-3.14 1.84-11.08 3.78-16.5 0.59-1.67 0.33-1.58-1.52 0.5l-2.23 2.5 0.58-7.85c0.66-9.09 4.01-17.04 8.89-21.15 1.69-1.42 2.85-2.81 2.57-3.09-0.27-0.27-1.92 0.7-3.66 2.17-1.75 1.47-3.43 2.41-3.75 2.09-1.47-1.47-1.38-9.75 0.17-15.67 0.93-3.58 1.81-7.5 1.95-8.71 0.14-1.22 1.03-3.39 1.98-4.84 0.95-1.44 1.43-2.92 1.07-3.28s-1.1 0.13-1.63 1.08c-1.57 2.8-2.88 2.02-2.88-1.69 0-1.9-0.42-3.7-0.93-4.02-0.91-0.57-0.68-8.86 0.49-17.4 0.41-2.99 0.26-4.15-0.48-3.69-1.84 1.14-1.21-3.17 1.42-9.64 1.37-3.38 2.21-6.41 1.86-6.73s-0.8-0.13-1 0.42c-1.44 3.91-4.47 7.39-5.95 6.82-1.31-0.5-1.52-1.5-1.04-4.98 0.33-2.4 1.22-5.37 1.98-6.6s2.4-5.53 3.66-9.55c1.25-4.02 3.97-10.09 6.04-13.5 2.06-3.41 3.54-6.42 3.27-6.69-0.77-0.8-3.31 3-6.54 9.78-2.06 4.32-3.35 6-4.14 5.39-0.62-0.5-2.42-1.2-3.98-1.58-1.57-0.37-4.16-2.11-5.75-3.86-3.43-3.75-3.78-8.11-1.26-15.45 0.9-2.63 1.79-6.06 1.99-7.61 0.36-2.97 7.02-17.37 10.02-21.67 0.96-1.38 1.4-2.22 0.99-1.86-0.42 0.35-2.19-0.66-3.93-2.25s-4.17-2.89-5.39-2.89c-1.7 0-2.46-0.84-3.2-3.52-0.54-1.93-2.12-4.87-3.51-6.53l-2.54-3.01 4.01-5.83c3.65-5.33 3.9-6.08 2.83-8.72-0.64-1.59-1.61-4.02-2.16-5.39-0.54-1.38-1.34-3.21-1.77-4.08-0.44-0.87-0.62-4.5-0.4-8.07 0.36-6.25 0.27-6.59-2.62-8.72-4.16-3.08-7.7-10.73-6.13-13.25 0.86-1.38 0.89-2.35 0.08-3.64-2.13-3.41 7.78-24.24 11.52-24.24 1.65 0 2.25-2.34 3.07-12 0.41-4.84 0.3-7.02-0.31-6.15-1.34 1.92-1.82 0.71-3.25-8.26-1.1-6.81-1.02-10.27 0.58-25.19 1.01-9.51 2.21-17.07 2.66-16.79s0.81 1.6 0.81 2.95c0 1.75 0.55 2.44 1.94 2.44 2.78 0 3.48-1.74 1.02-2.52-1.49-0.47-1.99-1.35-1.77-3.1 0.17-1.35 0.76-2.32 1.31-2.16 0.55 0.15 0.89 1.06 0.76 2.03-0.4 2.95 1.48 1.94 2.77-1.5 0.67-1.79 1.13-6.76 1.01-11.04-0.12-4.48 0.25-8.35 0.87-9.11 1.06-1.27 0.49-4.34-1.9-10.1-1.62-3.93-1.91-5.45-1.12-5.93 1.33-0.83 4.85 4.8 6.53 10.45 2.15 7.25 2.01 12.56-0.41 15.97-1.69 2.37-1.77 2.88-0.5 3.37 1.07 0.41 1.49 2.12 1.49 6.11 0 3.05 1.21 10.38 2.69 16.28 2.31 9.23 2.7 12.9 2.75 26 0.05 11.5 0.37 15.25 1.31 15.25 2.32 0 2.05 15.08-0.33 18.75-0.88 1.35-1.04 2.25-0.39 2.25 0.58 0 2.12-2.28 3.41-5.07 1.34-2.88 2.58-4.5 2.88-3.75 0.87 2.16 2.7-1.28 2.05-3.86-0.5-1.98-0.12-2.23 3.79-2.51 6.85-0.49 6.21-3.05-2.7-10.81-5.09-4.42-7.46-7.19-7.46-8.71 0-2.03 0.79-1.73 9.42 3.66 10.24 6.38 9.41 6.35 13.63 0.55 1.35-1.86 1.32-1.9-0.32-0.61-0.98 0.76-1.92 1.21-2.09 1-1.17-1.46-10.93-27.94-10.47-28.39 0.18-0.18 4.16 5.07 8.83 11.67 4.68 6.6 8.99 12.4 9.58 12.89 0.66 0.55 1.78 0.4 2.86-0.4 1.39-1.01 2.1-4.13 3.25-14.23 1.48-13.14 2.02-16.06 2.79-15.29 0.24 0.24 1.19 6.72 2.11 14.4 0.92 7.67 2.17 14.29 2.79 14.69 0.62 0.41 2.14 0.74 3.39 0.75 1.79 0.01 3.92-2.49 10.25-12.07 4.39-6.64 7.98-11.61 7.98-11.03 0 1.28-4.94 14.62-8.11 21.88-2.09 4.79-2.15 5.4-0.72 6.84 1.44 1.44 1.88 1.42 4.96-0.15 3.25-1.66 15.99-9.21 20.62-12.22 4.43-2.88 2.09-0.28-8 8.9-8.31 7.55-10.27 9.87-10.35 12.22l-0.1 2.9 7.6-0.67c18.6-1.63 18.7-1.64 16.1-0.65-1.37 0.53-7.12 2.37-12.77 4.1-9.81 3-10.34 3.3-11.81 6.8-0.84 2.02-1.76 5.47-2.04 7.67s-0.68 5.35-0.88 7c-0.21 1.65 0.34 6.5 1.21 10.77 1.57 7.66 1.56 7.81-0.56 10.07-1.18 1.26-2.15 3.02-2.15 3.91 0 0.9-0.46 1.91-1.01 2.26-0.56 0.34-0.75 1.07-0.42 1.6 0.39 0.62 1.13 0.56 2-0.17 1.12-0.93 1.6-0.6 2.43 1.7 3.12 8.61 4.34 10.28 10.14 13.86 6.89 4.25 8.56 7.35 9.51 17.66 0.36 3.8 1.03 7.14 1.5 7.43s0.87 1.96 0.88 3.72c0.02 1.75 0.7 4.06 1.5 5.13 0.81 1.07 1.47 2.74 1.47 3.71 0 4.38 7.9 5.13 11.67 1.1 4.72-5.04 5.72-7.08 4.31-8.78-1.49-1.8-1.44-1.85 2.85-3.3 2.61-0.88 3.79-0.83 5.5 0.25 1.19 0.75 7.34 2.57 13.66 4.03 12.56 2.9 16.01 4.98 16.01 9.66 0 1.52-0.45 3.05-1 3.39s-1 2.81-1 5.5c0 2.68-0.49 5.18-1.09 5.55-0.63 0.4-0.84 2-0.49 3.86 0.61 3.23 0.33 3.74-6.38 11.59l-2.14 2.5 1.56-3c0.85-1.65 2.28-4.02 3.17-5.25 0.89-1.24 1.18-2.25 0.65-2.25-1.28 0-6.42 9.52-5.59 10.35 0.36 0.36-0.29 1.67-1.44 2.9-1.15 1.24-3.06 4.72-4.23 7.75-1.17 3.02-3.45 6.76-5.07 8.3-2.3 2.18-2.95 3.67-2.95 6.77 0 3.03-0.71 4.75-2.98 7.2-7.48 8.08-7.32 7.58-7.34 23.18-0.02 14.03 2.73 35.55 4.54 35.55 0.43 0 0.78 1.16 0.78 2.59 0 1.75-0.65 2.76-2 3.12-1.92 0.5-2 1.36-2 22.97 0 14.47 0.39 23.18 1.11 24.51 0.93 1.75 0.68 2.4-1.67 4.27l-2.76 2.21 0.64 14.41c0.61 13.65 2.76 30.61 4.16 32.88 0.35 0.57 1.27 1.04 2.03 1.04 1.01 0 1.3 1.05 1.06 3.75-0.41 4.63 7.01 4.16-70.82 4.49l-60.75 0.26v-3.25c0-1.79-0.45-3.25-1-3.25s-1 1.35-1 3c0 1.69-0.89 3.89-2.06 5.06-2.57 2.57-2.35 7.59 0.31 7.14 1.46-0.24 1.75 0.48 1.75 4.25 0 2.5 0.45 4.55 1 4.55s1-2.43 1-5.39v-5.39l32.25-0.14c17.74-0.07 44.4-0.37 59.25-0.67s30.04-0.24 33.75 0.12l6.75 0.67v4.9c0 2.69 0.45 4.9 1 4.9s1-2.03 1-4.5c0-2.48 0.45-4.5 1-4.5 1.37 0 1.27-5.33-0.12-6.72-1.25-1.26-1.92-9.28-0.77-9.28 0.41 0 1.6 1.08 2.64 2.41 1.56 1.97 1.94 4.35 2.13 13.25 0.21 9.82 0.44 11 2.43 12.56 2.68 2.11 1.48 2.21-3.81 0.31-3.07-1.11-9.91-1.46-29.57-1.49l-25.58-0.04-2.35-2.5c-1.29-1.38-2.78-2.5-3.31-2.5s-3.21-1.38-5.94-3.07c-2.74-1.68-5.61-2.82-6.38-2.52-0.76 0.29-5.17 3.02-9.78 6.06l-8.4 5.53h-23.61c-23.47 0-23.64 0.01-27.58 2.5-4.02 2.54-5 2.92-5 1.96zm32.99-33.19c2.04-1.75 2.91-8.27 1.1-8.27-0.76 0-6.09 8.42-6.09 9.62 0 1.04 3.22 0.17 4.99-1.35zm93.81 0.22c1.03-0.37 1.04-0.92 0.08-2.73-0.78-1.45-1.17-6.49-1.09-14.01 0.07-6.87-0.28-11.75-0.83-11.75-0.53 0-0.96 1.65-0.96 3.66 0 2.02-0.26 3.41-0.58 3.08-0.33-0.32-0.08-6.36 0.55-13.41 0.76-8.6 0.84-17.29 0.25-26.33-0.49-7.43-0.69-18.82-0.44-25.33 0.5-13.3 1.45-14.91 6.06-10.28 2.45 2.46 2.66 3.33 2.66 10.89 0.01 26.95 0.48 34.72 2.08 34.72 1.19 0 1.44-0.68 1.02-2.75-0.3-1.52-0.78-12.2-1.06-23.75-0.31-12.86-0.9-21.12-1.52-21.33-1.56-0.52-1.21-7.96 0.5-10.57 1.5-2.28 1.13-5.6-0.62-5.6-0.5 0-0.9 1.02-0.9 2.26 0 2.72-8.46 8.5-20 13.67-4.12 1.84-10.33 4.92-13.8 6.83-3.47 1.9-6.51 3.26-6.76 3.01-0.25-0.26-0.07-4.02 0.42-8.37 0.87-7.89 0.7-9.87-0.78-8.95-0.66 0.4-1.49 6.46-2.38 17.43-0.2 2.43 2.68 3.93 3.86 2.03 0.31-0.5 2.53-0.91 4.93-0.91 3.55 0 4.5 0.39 5.04 2.07 1.1 3.49 0.55 3.54-9.4 0.8-0.76-0.2-1.58 0.17-1.82 0.84-0.26 0.7 0.75 1.48 2.37 1.83 5.57 1.22 8.32 2.71 8.32 4.49 0 2.88-8.28 10.58-15.08 14.01-5.18 2.61-5.99 3.34-4.58 4.13 0.94 0.52 1.51 1.27 1.27 1.66s-0.74 9.02-1.1 19.19c-0.92 25.66-2.01 29.83-9.47 36.22-2.22 1.89-3.84 3.62-3.62 3.85 0.56 0.56 55.76-0.02 57.38-0.6zm-45.26-2.43c-0.35-0.57 0.17-2.16 1.16-3.52 1.35-1.86 2.73-2.49 5.55-2.51 2.53-0.02 3.75 0.41 3.75 1.34 0 0.82 1.58 1.62 3.94 2 4.39 0.7 6.09 2.3 3.5 3.29-1.06 0.4-2.04 0.01-2.64-1.06-0.77-1.37-1.25-1.47-2.41-0.51s-1.9 0.77-3.73-0.95c-2.91-2.73-3.69-2.7-3.4 0.11 0.19 1.76-0.33 2.31-2.41 2.55-1.46 0.17-2.95-0.16-3.31-0.74zm17.04-3.93c-2.46-0.54-5.04-3.13-3.11-3.13 0.98 0 6.53 2.99 6.53 3.52 0 0.26-0.11 0.42-0.25 0.36-0.14-0.07-1.56-0.4-3.17-0.75zm8.82-4.71c-0.43-2.71-0.8-10.01-0.82-16.22-0.03-9.38-0.25-11-1.31-9.56-1.04 1.43-1.27-1.98-1.27-18.89 0-12.68 0.39-20.87 1-21.25 0.62-0.39 1.01 1.57 1.02 5.19 0 3.19 0.28 6.81 0.61 8.05 1.03 3.85 2.37 1.38 2.37-4.36 0-3.41 0.38-5.27 1-4.88 1.18 0.72 1.24-0.09 1.02-12.15-0.18-9.28 0.41-10.9 3.5-9.71 1.49 0.57 1.66 1.98 1.34 10.99-0.38 11.03 1.25 15.13 2.14 5.37 0.92-10.14 2.3-3.75 3.56 16.5 0.72 11.61 0.68 18.25-0.19 31.78-0.76 11.74-1.75 12.1-1.45 0.52 0.32-12.06-1.05-34.84-2.05-34.22-0.48 0.29-0.87 3.6-0.87 7.35 0 4.93-0.43 7.18-1.54 8.1-1.17 0.97-1.51 3.13-1.4 8.87 0.24 13.03 0.05 15.1-1.43 15.1-0.98 0-1.56 2.18-2.05 7.77-0.87 9.99-2.14 12.24-3.18 5.65zm-17.9 0.15c-2.62-1.16-2.77-1.43-1.16-2.09 1.26-0.53 2.49-0.1 3.97 1.38 2.43 2.43 1.55 2.65-2.81 0.71zm22.66-5.57c0-1.38 0.23-1.94 0.5-1.25 0.28 0.68 0.28 1.81 0 2.5-0.27 0.68-0.5 0.12-0.5-1.25zm-23.35 0.31c0.73-0.29 1.59-0.25 1.92 0.08s-0.26 0.57-1.31 0.53c-1.17-0.05-1.4-0.29-0.61-0.61zm6.28-7.31c-0.03-2.48 0.38-5.18 0.91-6 1.25-1.94 1.25 5.59 0 8.5-0.65 1.52-0.87 0.92-0.91-2.5zm-28.29 17.25c0.58-1.52 1.57-5.9 2.2-9.75 3.24-19.81 6.46-34.5 8.48-38.78 1.24-2.62 1.98-4.93 1.64-5.13-1.49-0.88-10.43 2.98-14.01 6.05-3.26 2.79-4.41 4.86-6.74 12.11-1.55 4.81-2.7 9.42-2.56 10.25 1.23 7.41 2.68 7.53 3.42 0.27 0.26-2.63 1.46-8.01 2.66-11.98 1.67-5.53 2.87-7.7 5.22-9.37 4.43-3.16 5.4-1.49 3.32 5.69-0.94 3.24-3.37 9.74-5.41 14.45-5.64 13.04-6.7 19.16-1.55 9.01 1.37-2.71 2.97-5.23 3.56-5.59 1.41-0.87 0.21 8.8-1.66 13.39-1.52 3.75-1.86 12.13-0.49 12.13 0.48 0 1.35-1.24 1.92-2.75zm-39.17-6.96c-0.59-0.59-4.63 2-4.63 2.97 0 0.43 1.14 0.04 2.53-0.88 1.4-0.91 2.34-1.85 2.1-2.09zm22.91-1.54c1.34-2.89 2.46-4.8 2.49-4.25 0.02 0.55 0.92-0.07 2.01-1.36 1.08-1.3 1.95-2.88 1.93-3.5-0.02-0.63-0.99-0.02-2.15 1.36l-2.11 2.5 0.66-4.25c0.41-2.64 0.27-4.25-0.36-4.25-0.55 0-1.01 0.61-1.01 1.36s-1.05 2.91-2.34 4.8c-2.51 3.7-4.35 12.84-2.59 12.84 0.56 0 2.12-2.37 3.47-5.25zm-19.54-2.31c0-0.8-0.45-1.44-1-1.44s-1 0.92-1 2.06c0 1.13 0.45 1.78 1 1.44s1-1.27 1-2.06zm27.5 1.56c0.34-0.55 0.14-1-0.44-1s-1.06 0.45-1.06 1 0.2 1 0.44 1c0.25 0 0.72-0.45 1.06-1zm-28.39-6.09c2.32-1.84 3.91-3.96 3.93-5.25 0.03-1.19 2.07-8.46 4.55-16.16s6.46-20.75 8.85-29 4.79-16.13 5.33-17.5c0.54-1.38 1.99-6.55 3.22-11.5 2.62-10.57 6.8-18.52 14.45-27.5 3.04-3.58 5.54-6.84 5.55-7.25 0.03-1.73-1.92-0.53-4.36 2.67-1.44 1.88-8.4 9.22-15.48 16.32-8.99 9-13.25 14.02-14.11 16.64-1.56 4.74-0.88 5.42 2.66 2.64 2.49-1.97 2.84-2.03 3.14-0.52 0.19 0.93-0.78 2.89-2.15 4.35-3.52 3.73-6.81 9.95-5.65 10.67 0.53 0.33 1.38 0.34 1.89 0.02 0.52-0.32 1.17-0.19 1.46 0.27 0.9 1.47-3.51 18.62-5.11 19.89-2.39 1.88-9.27 13.57-9.31 15.8-0.02 1.1-1.08 4.13-2.36 6.75-1.28 2.61-1.97 4.75-1.54 4.75 1.44 0 4.55-5.39 7.79-13.5 3.91-9.8 5.59-12.51 4.66-7.5-0.35 1.92-1 5.62-1.43 8.21-0.73 4.45-1.84 6.47-8.93 16.29-3.95 5.47-4.67 8.08-2.46 8.93 1.11 0.43 2.21 0.04 3.03-1.07 0.98-1.34 1.27-1.41 1.27-0.3 0 0.8-0.9 2.02-2 2.7-1.86 1.17-2.76 3.24-1.39 3.24 0.33 0 2.36-1.39 4.5-3.09zm9.58-1.79c1.2-0.62 3.06-1.12 4.12-1.12 1.07 0 2.51-0.68 3.19-1.5 1.08-1.31 0.62-1.42-3.63-0.87-5.07 0.65-10.37 4.34-10.37 7.23 0 1.15 0.51 1.02 2.25-0.56 1.24-1.13 3.24-2.56 4.44-3.18zm14.27-7.57c0.71-0.85 0.88-1.55 0.39-1.55-1.42 0-5.35 3-5.35 4.09 0 1.24 3.17-0.38 4.96-2.54zm-21.46-63.55c0.34-0.55-0.11-1-1-1s-1.34 0.45-1 1 0.79 1 1 1 0.66-0.45 1-1zm104.92-8.61c1.46-0.56 2.31-3.39 1.02-3.39-1.31 0-4.44 2.14-4.44 3.03 0 1.11 1.15 1.23 3.42 0.36zm-42.06-15.89c-0.31-0.83-0.7-1.5-0.86-1.5s-0.54 0.67-0.86 1.5c-0.35 0.9 0 1.5 0.86 1.5 0.87 0 1.21-0.6 0.86-1.5zm37.28-3.75c-1.81-10.05-1.83-11.35-0.23-12.67 2.22-1.85 1.99-3.81-0.76-6.38-1.9-1.79-2.67-4.29-4.07-13.2-1.81-11.51-3.39-20.33-6.65-36.94-1.44-7.34-1.65-10.12-0.79-10.65 0.76-0.47 0.94-2.49 0.54-6.06-0.65-5.64 0.11-4.73 2.38 2.9 0.69 2.33 1.64 4.25 2.1 4.25 1.13 0 1.06-2.29-0.15-5.48-1.22-3.22 0.73-16.51 2.67-18.13 1.43-1.2 1.8-3.4 0.57-3.39-0.41 0-2.05 1.05-3.63 2.31-2.57 2.06-2.75 2.57-1.67 4.59 1.22 2.27 0.56 4.46-0.75 2.49-0.38-0.57-1.46-1.32-2.4-1.66-0.95-0.36-2.16-2.51-2.75-4.93-2.04-8.31-3.85-13.37-3.95-11.05-0.16 3.65-1.78 2.59-4.19-2.75-2.37-5.23-3.99-6.01-7.28-3.52-2.28 1.73-1.43 4.96 1.13 4.29 1.15-0.29 2.48 0.67 3.9 2.82 1.19 1.8 1.64 3.08 1 2.83-0.8-0.3-1.19 1.59-1.25 6.13-0.11 7.39-0.88 8.59-6.91 10.75-2.2 0.78-4.86 1.79-5.91 2.23-1.82 0.77-1.88 0.41-1.24-7.86 0.37-4.91 0.28-8.67-0.23-8.67-1.04 0-2.03 7.53-2.31 17.72-0.17 6.03 0.13 7.6 1.83 9.5 1.78 1.99 1.99 3.32 1.65 10.53-0.21 4.56 0.03 8.25 0.53 8.25 1.17 0 2.18-7.42 2.18-15.91 0-8.73 2.34-13.37 7.15-14.15 5.54-0.9 5.85-1.42 5.89-9.75l0.04-7.69 1.56 3.5c3.71 8.3 6.33 17.33 5.37 18.49-0.65 0.78-0.51 3.01 0.42 6.59 0.77 2.98 2.35 11.04 3.51 17.92 1.16 6.87 2.54 14.97 3.07 18 0.52 3.02 1.17 7.52 1.45 10 1.35 12.18 2.82 22.08 4.11 27.7 0.79 3.41 1.43 7.13 1.43 8.25 0 1.22 0.66 2.05 1.61 2.05 1.27 0 1.49-0.69 1.03-3.25zm-40.1-11.98c0.45-2.9 0.92-5.95 1.05-6.77 0.21-1.37 0.5-5.25 1.89-25.25 0.36-5.27 0.17-6.75-0.9-6.75-1.71 0-2.58 2.19-2.58 6.5 0 2.01-0.92 4.47-2.31 6.17-3.53 4.32-7.95 12.4-7.19 13.15 0.38 0.37 1.67-0.56 2.88-2.07 1.21-1.52 2.69-2.75 3.3-2.75 1.63 0 2.17 5.39 1.56 15.4-0.61 9.88 0.92 11.45 2.3 2.37zm-35.54-0.15c0-0.76 1.15-3.98 2.56-7.16 2.9-6.56 8.95-24.23 11.1-32.44 0.79-3.01 3.04-9.44 5.01-14.29 1.96-4.86 3.29-9.11 2.95-9.45s-0.77-0.43-0.96-0.2c-1.21 1.47-12.66 28.01-12.66 29.36 0 0.91-0.62 2.87-1.39 4.36-0.77 1.48-2.1 6.44-2.96 11.01-0.86 4.58-2.71 10.82-4.11 13.88-2.99 6.53-2.95 6.31-1.04 6.31 0.83 0 1.5-0.62 1.5-1.38zm75.06-26.72c-1.13-2.63-2.06-5.73-2.06-6.9s-0.38-1.88-0.85-1.59c-0.95 0.58 0.42 10.92 1.79 13.47 0.47 0.89 1.25 3.87 1.71 6.62l0.85 5 0.31-5.91c0.22-4.28-0.27-7.23-1.75-10.69zm6.43-5.4c0.22-1.1 0.69-5.04 1.04-8.75 0.46-4.87 1.03-6.75 2.05-6.75 1.73 0 1.75 0.79 0.23 8.16-1.18 5.72-0.56 8.65 1.23 5.81 0.51-0.81 0.94-3.1 0.95-5.08 0.01-3.56 3.59-8.89 5.96-8.89 0.58 0 1.07-0.79 1.08-1.75 0.02-0.97 1.09-3.91 2.38-6.55 1.3-2.63 2.07-4.66 1.72-4.49-6.39 3.03-11.16 6.19-12.54 8.29-2.03 3.1-3.88 5.43-8.45 10.65-1.86 2.12-2.85 3.85-2.21 3.85 0.79 0 0.95 1.13 0.5 3.51-0.85 4.54 0.86 6.94 3.69 5.19 1.08-0.66 2.14-2.1 2.37-3.2zm-100.08-16.56c4.66-10.21 18.85-35.45 25.29-45.01 6.65-9.86 9.69-15.94 8.55-17.08-0.55-0.56-2.6 1.49-5.17 5.15-2.34 3.34-5.59 7.06-7.23 8.27-3.39 2.5-13.15 16.86-15.28 22.47-0.78 2.07-2.42 6.68-3.63 10.26-2.52 7.46-7.3 20.66-8.41 23.26-0.56 1.32-0.38 1.62 0.75 1.18 0.83-0.31 3.13-4.14 5.13-8.5zm94.59 6.61c0-0.8 0.61-1.81 1.34-2.25 0.74-0.44 3.03-3.28 5.1-6.3 2.06-3.03 4.06-5.73 4.44-6 0.38-0.28 2.46-2.95 4.62-5.93 2.51-3.46 3.49-5.58 2.72-5.83-0.67-0.23-1.22-0.85-1.22-1.39 0-0.55 0.91-0.7 2.01-0.35 1.43 0.45 2.85-0.21 4.95-2.3 2.81-2.82 2.95-2.85 3.31-0.82 0.35 1.97 0.45 1.93 1.5-0.55 0.62-1.47 1.84-3.07 2.71-3.56 2.01-1.13 2.51-6.38 0.67-7.03-0.98-0.35-1.17 0.1-0.69 1.63 1.13 3.56-0.42 4.51-3.2 1.95l-2.54-2.32 0.66 2.75c0.72 3.02-0.25 3.47-3.35 1.53-2.67-1.67-3.56-0.38-1.63 2.37 1.99 2.84 2.02 3.85 0.14 3.85-2.13 0-3.83-3.8-3.17-7.09 0.31-1.56 0.13-3.11-0.4-3.43-1.83-1.14-0.96-2.21 1.42-1.75 1.32 0.25 3.56-0.31 4.99-1.25 2.09-1.37 2.48-2.22 1.97-4.34l-0.63-2.64 2.87 2.5c1.58 1.37 3.47 3.28 4.2 4.25 0.73 0.96 1.75 1.75 2.27 1.75 1.63 0 1.03-2.28-1.23-4.69-1.39-1.47-1.7-2.31-0.86-2.31 1.63 0 3.96-2.97 4-5.1 0.05-2.29-3.56-5.38-4.5-3.86-0.4 0.65-0.17 1.52 0.5 1.94 0.93 0.57 0.83 1.5-0.45 3.97-1.58 3.06-1.76 3.14-3.52 1.55-2.43-2.2-5.42-1.56-5.82 1.26-0.18 1.3-1.02 2.24-2 2.24-0.92 0-2.99 1.06-4.6 2.34-2.24 1.8-2.72 2.77-2.09 4.25 0.46 1.05 0.75 2.27 0.65 2.72s0.3 2.6 0.89 4.79l1.07 3.97-10.05 14.45c-5.53 7.96-10.05 14.91-10.05 15.47 0 0.55 0.68 1.01 1.5 1.01 0.83 0 1.5-0.66 1.5-1.45zm-5-1.66c0-1.16-0.71-4.87-1.59-8.24-0.87-3.38-1.37-7.51-1.1-9.17 0.41-2.5 0.05-3.24-2.01-4.21-2.33-1.1-2.47-1.02-1.93 1.02 0.32 1.21 1.57 6.82 2.77 12.46 2.01 9.4 3.86 13.3 3.86 8.14zm-105.99-11.14c0.76-4.17 2.98-10.6 5.22-15.11 3.86-7.77 4.3-11.17 1.31-10.02-2.35 0.9-1.87-1.37 1.59-7.5 1.98-3.52 2.71-5.68 1.98-5.92-0.7-0.23 0.01-1.96 1.84-4.44 4.11-5.59 2.71-6.8-2.31-2-2.28 2.17-4.84 4.19-5.69 4.49-2.82 0.97-10.9 18.15-10.93 23.26-0.01 1.11-0.9 3.66-1.97 5.66-1.08 2.01-2.26 5.98-2.64 8.84-0.65 4.89-0.52 5.32 2.2 7.55 1.59 1.3 4.06 2.38 5.48 2.4 2.43 0.03 2.67-0.4 3.92-7.21zm22.49-26.03c5.93-9.11 7.65-12.55 5.69-11.34-1.2 0.74-9.16 12.7-11.56 17.37-3.3 6.4-0.02 3.03 5.87-6.03zm-5.83-4.22c2.06-2.48 6.48-6.5 9.8-8.94 6.97-5.12 24.53-22.69 24.53-24.55 0-0.68-1.7 0.27-3.77 2.12-2.08 1.85-8.25 6.74-13.72 10.87-10.12 7.63-24.87 20.97-24.06 21.77 0.24 0.25 1.93-0.6 3.74-1.88l3.31-2.33-2.8 3.72c-3.96 5.26-1.56 4.63 2.97-0.78zm64.79-2.84c1.4-2.39 2.54-4.99 2.54-5.78 0-1.71-5.43-7.88-6.94-7.88-1.27 0-1.41 1.66-0.2 2.41 0.48 0.29 1.44 2.56 2.13 5.04 1.08 3.87 1.04 4.86-0.31 6.92-1.31 2-1.33 3.63-0.05 3.63 0.16 0 1.43-1.96 2.83-4.34zm-77.46-12.66c0.78-1.46 0.76-2-0.07-2-0.67 0-0.87-0.72-0.48-1.75 0.44-1.16 0.34-1.41-0.32-0.75-0.54 0.55-1.29 2.23-1.67 3.75-0.8 3.24 0.93 3.76 2.54 0.75zm-3.52-5.75c0.35-3.17 1.54-8.58 2.65-12.04 2.83-8.81 1.76-9.92-2.13-2.21-4.7 9.31-5.74 20-1.95 20 0.45 0 1.09-2.59 1.43-5.75zm72.03-10c0.46-9.14 0.36-14.25-0.26-14.25-0.54 0-1.28 3.26-1.63 7.25-0.36 3.98-0.92 9.17-1.24 11.52-0.68 4.92 0.37 11.91 1.59 10.61 0.46-0.49 1.15-7.3 1.54-15.13zm-52.3 10.97c1.94-3.28 15.38-17.14 25.28-26.06 3.84-3.47 10.03-7.9 13.75-9.86 3.72-1.95 6.76-3.96 6.76-4.46s-0.67-2.52-1.5-4.5c-0.82-1.97-1.5-4.63-1.5-5.91 0-4.1-1.87-3.62-3.07 0.79-0.85 3.14-0.87 5.05-0.06 7.21 0.6 1.61 0.99 2.98 0.86 3.03-0.12 0.05-1.93 0.87-4.01 1.82-2.08 0.94-4.26 1.72-4.84 1.72-0.59 0-2.21 0.9-3.6 2-1.4 1.1-2.91 2-3.35 2-0.43 0-1.08-0.9-1.43-2s-1.25-2-2-2c-1 0-1.22 0.91-0.83 3.36 0.45 2.75 0.12 3.67-1.78 5-1.28 0.9-3.73 1.64-5.43 1.64-2.53 0-3.6 0.76-5.81 4.13-1.49 2.28-2.47 4.38-2.18 4.67s2.41-0.98 4.71-2.82c4.64-3.73 4.52-3.4-2.07 5.56-4 5.45-9.87 14.42-10.93 16.71-0.97 2.09 1.62 0.36 3.03-2.03zm69.71-4.64c-0.65-2.56-1.4-4.43-1.68-4.15s0.06 2.56 0.76 5.07c1.66 5.93 2.45 5.15 0.92-0.92zm27.65 4.3c0.74-1.19-1.48-3.06-2.73-2.29-0.93 0.58 0.07 3.41 1.21 3.41 0.46 0 1.14-0.5 1.52-1.12zm-122.57-3.88c0-1.1-0.45-2-1-2-1.73 0-1.08-3.62 0.98-5.48 1.09-0.99 1.77-2.12 1.53-2.51-0.25-0.4 0.66-1.77 2.02-3.04 1.36-1.28 2.47-2.86 2.47-3.53 0-0.66 0.75-1.82 1.66-2.57 2.2-1.83 11.93-16.96 12.84-19.99 0.96-3.17-0.48-1.68-4.13 4.28-2.16 3.51-17.04 20.18-26.18 29.32-0.3 0.3 0.97 2.11 2.83 4.03 3.79 3.92 6.98 4.6 6.98 1.49zm17.75-1.25c1.9-2.05 2.05-3.14 1.64-11.86-0.43-9.06-0.26-10.16 3.08-19.37 4-11.04 3.87-10.52 2.53-10.52-0.55 0-1 0.59-1 1.31s-2.46 6.19-5.46 12.16c-3.01 5.96-5.76 12.91-6.13 15.44-0.37 2.52-1.33 6.26-2.13 8.3-2.62 6.63-0.68 6.47 2.6-0.21 2.17-4.43 3.02-5.55 2.69-3.5-0.28 1.65-0.79 4.68-1.14 6.75-0.74 4.29 0.28 4.76 3.32 1.5zm51.74-11.69c6.85-16.88 6.31-16.26 9.17-10.47 1.66 3.34 2.52 6.96 2.7 11.34 0.17 4.26 0.71 6.59 1.58 6.88 1.98 0.66 0.97-16.12-1.11-18.54-0.84-0.97-1.8-2.56-2.14-3.52-0.35-0.97-1.31-1.75-2.16-1.75-0.84 0-1.53-0.72-1.53-1.59 0-3.12-2.36-0.71-4.06 4.14-0.96 2.72-3.36 9.44-5.34 14.94-1.98 5.49-3.6 10.42-3.6 10.95 0 2.4 2.19-1.77 6.49-12.38zm-10.49 7.32c0-0.83-0.45-1.22-1-0.88s-1 1.29-1 2.11c0 0.83 0.45 1.23 1 0.89s1-1.3 1-2.12zm5.95-10.53c2.27-3.93 3.97-7.61 3.78-8.17-0.19-0.57-2.43 1.68-4.98 5-3.35 4.34-4.48 6.62-4.08 8.17 0.31 1.18 0.7 2.15 0.86 2.15 0.17 0 2.15-3.22 4.42-7.15zm28.55 4.15c0.34-0.55 0.14-1-0.44-1s-1.06 0.45-1.06 1 0.2 1 0.44 1c0.25 0 0.72-0.45 1.06-1zm-91.58-11.39c3.08-3.88 3.78-5.61 2.29-5.61-1.1 0-8.21 8.64-8.21 9.99 0 1.76 2.53-0.11 5.92-4.38zm-3.99-7.9c0.04-0.99 0.91-3.46 1.93-5.5 1.03-2.04 1.68-4.22 1.46-4.84-0.41-1.16 5.11-6.37 6.76-6.37 1.38 0 1.25 0.39-3.14 9.12-2.24 4.45-3.8 8.34-3.49 8.66 0.32 0.32 2.15-0.94 4.07-2.8 2.46-2.38 3.31-3.95 2.89-5.28-0.39-1.24 0.26-2.81 1.89-4.55 3.64-3.87 6.62-9.21 6.02-10.78-0.29-0.74 0.44-2.99 1.62-4.99 3.3-5.6 1.57-5.31-4.06 0.69-5.72 6.1-4.73 4.21 2.14-4.07 2.51-3.03 5.14-6.84 5.85-8.48 1.1-2.53 1.44-2.73 2.22-1.33 0.56 1 0.56 2.59 0.01 4.06-0.84 2.2-0.67 2.41 1.88 2.41 7.34 0 8.04-17.04 0.91-22.03-3.04-2.13-3.89-2.06-3.89 0.31 0 1.06-0.45 2.22-1 2.56s-1 1.58-1 2.76c0 1.66 0.27 1.87 1.2 0.94 2-2.01 3.06-1.36 2.35 1.45-0.79 3.17-5.74 9.58-13.96 18.1-3.32 3.43-5.62 6.25-5.12 6.25 1.65 0-4.89 6.13-9.36 8.76-4.14 2.44-4.26 2.64-2.13 3.42 1.86 0.69 2.04 1.1 1.01 2.33-0.99 1.2-0.96 1.49 0.19 1.49 0.78 0 1.96-0.54 2.62-1.2 0.87-0.87 1.2-0.89 1.2-0.06 0 0.63-0.79 1.74-1.75 2.46s-2.6 2.32-3.64 3.54c-1.52 1.79-1.65 2.51-0.66 3.69 0.67 0.82 0.95 1.93 0.61 2.48s-0.3 2.25 0.08 3.78l0.7 2.78 1.76-3.99c0.96-2.19 1.79-4.79 1.83-5.77zm86.2 5.02c-1.66-1.67-2.61-0.02-1.06 1.85 0.94 1.13 1.48 1.27 1.76 0.44 0.22-0.66-0.1-1.69-0.7-2.29zm-23.13-9.85c0-0.45-0.9-1.29-2-1.88s-2-1.73-2-2.54c0-1.78-0.46-1.82-2.97-0.25-1.06 0.67-2.19 0.95-2.51 0.64-0.77-0.77 3.18-9.85 4.29-9.85 1.28 0 10.22-8.64 9.59-9.27-0.29-0.29-3.18-0.29-6.43 0-6.21 0.57-13.32-1.28-10.84-2.81 0.7-0.43 2.03-0.37 2.97 0.13 1.23 0.66 1.87 0.47 2.31-0.68 0.43-1.12 1.34-1.4 3.1-0.96 3.23 0.81 3.41-1.63 0.24-3.28-1.98-1.03-1.81-1.1 1.5-0.6 2.09 0.31 3.75 0.14 3.75-0.39 0-0.52-1.69-1.37-3.75-1.9l-3.75-0.96 2.91-1.18c3.21-1.3 2.59-2.73-1.41-3.27-2.34-0.31-2.48-0.65-2.22-5.53 0.23-4.45-0.04-5.37-1.86-6.35-1.18-0.63-3.22-0.94-4.53-0.69-3.78 0.73-2.83-1.48 2.36-5.48 3.81-2.94 4.9-3.38 5.55-2.22 1.28 2.28 2.47 1.67 1.96-1.01-0.68-3.57-3.37-3.61-6.48-0.11-1.87 2.1-2.97 2.69-3.5 1.89-0.95-1.4-5.87 0.4-8.62 3.15-2.41 2.41-3.29 1.13-1.3-1.9 2.92-4.46 6.92-7.46 10.86-8.12 3.18-0.54 3.76-0.99 3.32-2.56-0.3-1.05-0.78-2.77-1.08-3.82-0.66-2.34 0.49-3.17 3.37-2.42 2.54 0.67 2.69 1.82 0.73 5.59-1.38 2.64-1.35 2.75 1.03 2.75 6.67 0 15.93 6.9 17.01 12.68 0.34 1.83 1.07 3.32 1.62 3.32s0.75-0.65 0.45-1.44c-0.31-0.79-0.15-1.58 0.34-1.75s1-2.18 1.13-4.45c0.2-3.39-0.29-4.71-2.7-7.25-3.27-3.48-4.61-3.81-6.44-1.61-1.99 2.39-4 1.74-4.65-1.5-0.33-1.65-0.99-3-1.47-3s-0.88-0.89-0.88-1.98c0-2.74-4.01-3.56-10.37-2.14-7.13 1.6-11.15 4.3-14.68 9.86-4.6 7.26-5.63 11.57-3.51 14.8 1.64 2.51 1.78 2.54 3.2 0.79 1.38-1.71 1.4-1.69 0.42 0.35-0.58 1.2-1.06 4.89-1.06 8.19s-0.45 7.17-0.99 8.61c-0.62 1.63-0.66 4.11-0.11 6.57 0.67 2.98 0.58 3.95-0.37 3.95-0.75 0-1.55 1.94-1.95 4.75-0.99 6.89-0.86 8.4 0.87 10.13 1.4 1.39 1.55 1.14 1.55-2.61 0-2.29 0.4-4.4 0.88-4.7s4.59 2.94 9.14 7.19c7.87 7.38 8.48 7.74 13.12 7.84 2.67 0.05 4.86-0.27 4.86-0.72zm-18.34-40.71c-2.02-2.23-2.15-4.17-0.27-4.17 0.76 0 1.6-0.84 1.86-1.85 0.55-2.1 3.89-3.31 5.83-2.11 1.06 0.66 1.06 1.09-0.01 2.38-0.99 1.19-1.03 1.91-0.17 2.95 3.17 3.82-3.86 6.54-7.24 2.8zm29.39-18.08c-0.66-1.23-0.69-2.19-0.1-2.56 0.52-0.32 1.43 0.3 2 1.38 0.66 1.22 0.7 2.19 0.11 2.55-0.53 0.33-1.43-0.29-2.01-1.37zm-27.05-10.09c-0.64-1.2-0.93-2.4-0.66-2.67 0.28-0.28 1.02 0.47 1.66 1.67 0.64 1.19 0.94 2.39 0.66 2.67-0.27 0.27-1.02-0.48-1.66-1.67zm2.67-2.67c-0.37-0.37-0.67-1.13-0.67-1.7 0-0.63 0.47-0.57 1.19 0.15 0.65 0.65 0.95 1.42 0.66 1.7-0.28 0.28-0.81 0.22-1.18-0.15zm-27.99 64.1c1.85-1.41 4.71-5.23 6.35-8.5 3.21-6.35 2.29-8.27-1.16-2.43-2.31 3.91-3.87 4.51-3.87 1.5 0-1.1-0.45-2-1-2s-1 1.25-1 2.77c0 1.53-0.61 3.67-1.36 4.75-1.74 2.52-2.99 6.48-2.05 6.48 0.4 0 2.24-1.16 4.09-2.57zm51.29-12.93c-0.42-3.85-0.52-8.46-0.23-10.25s0.23-3.25-0.13-3.25c-1.23 0-2.68 5.31-3.16 11.55-0.37 4.94-0.16 6.34 1.04 6.8 0.83 0.32 1.51 1.36 1.51 2.32 0 1.04 0.35 1.35 0.87 0.78 0.48-0.53 0.53-4.1 0.1-7.95zm-75.97 6.5c1.12-0.73 0.56-0.98-2.19-0.99-4.16-0.02-5.88-1.54-2.82-2.51 1.11-0.35 2.5-1.54 3.09-2.65 0.59-1.1 1.7-1.77 2.45-1.48 0.83 0.32 3.79-2.1 7.43-6.07 5.93-6.47 7.04-8.3 5.04-8.3-0.55 0-1 0.33-1 0.75 0 1.16-7.64 9.25-8.74 9.25-1.18 0-3.26-12.04-3.26-18.91 0-4.69-0.14-4.98-2.1-4.25-1.15 0.42-2.84 2-3.75 3.5-1.45 2.4-1.47 2.84-0.15 3.66 1.27 0.8 1.16 1.18-0.75 2.52-3.08 2.17-2.88 4.12 0.22 2.09 5.03-3.3 4.8-1.2-0.55 4.99-3.56 4.11-3.88 4.84-2.43 5.65 1.18 0.66 2.24 0.4 3.69-0.91 1.64-1.48 1.43-0.65-1.07 4.28-3.11 6.12-3.69 8.46-2.44 9.71 1.01 1.01 7.62 0.77 9.33-0.33zm-6.5-6c0.34-0.55 1.07-1 1.62-1s0.72 0.45 0.38 1-1.07 1-1.62 1-0.72-0.45-0.38-1zm4.5-6.42c0-3.72 1.89-5.11 2.15-1.58 0.08 1.1 0.2 2.52 0.25 3.16 0.06 0.64-0.46 1.36-1.15 1.59-0.84 0.28-1.25-0.75-1.25-3.17zm11 8.33c1.2-0.68 1.09-0.86-0.56-0.88-1.13-0.02-2.93 0.66-4 1.52-1.86 1.49-1.84 1.52 0.56 0.88 1.38-0.37 3.18-1.06 4-1.52zm69.12-20.66c0.5-3.25 0.31-9.94-0.31-10.75-3.38-4.46-5.77-6.38-8.56-6.88-3.51-0.62-4.51 0.84-1.27 1.87 2.36 0.75 6.02 5.17 6.02 7.28 0 0.99-0.67 0.64-1.98-1.02-2.33-2.97-7.55-4.08-9.59-2.04-1.2 1.2-1.15 1.78 0.34 4.06 1.7 2.61 1.74 2.62 2.05 0.44 0.41-2.86 4.16-3.03 4.89-0.21 0.34 1.29 1.37 2 2.91 2 1.83 0 2.38 0.54 2.38 2.33 0 1.28 0.3 2.63 0.67 3 0.89 0.89 2.3 0.85 2.45-0.08zm-83.12 351.25c1.6-0.92 5.51-1.45 10.87-1.47 7.34-0.03 8.22 0.15 7.13 1.47-0.95 1.14-3.5 1.49-10.87 1.46-8.85-0.03-9.43-0.15-7.13-1.46zm89.77 0.12c-3.33-2.53 44.31-3.64 49.73-1.16 2.79 1.27 2.26 1.38-7.31 1.46-5.68 0.04-11.22-0.41-12.32-0.99-1.52-0.82-2.57-0.7-4.4 0.5-3.13 2.05-23.05 2.2-25.7 0.19zm-4.27-1.62c0.34-0.55 0.82-1 1.06-1s0.44 0.45 0.44 1-0.47 1-1.06 1c-0.58 0-0.78-0.45-0.44-1zm-56.75-366.34c-1.19-2.9-0.95-7.27 0.32-5.99 0.6 0.59 0.93 2.59 0.75 4.45-0.25 2.62-0.49 2.96-1.07 1.54zm-25.75-68.84c0-0.37 0.98-0.83 2.17-1 2.02-0.3 2.15-0.81 1.94-7.94-0.19-6.13 0.08-7.74 1.33-8.22 0.86-0.33 1.56-1.74 1.56-3.13s0.42-2.53 0.94-2.53c0.54 0 0.85 4.86 0.75 11.41l-0.19 11.42-4.25 0.34c-2.34 0.19-4.25 0.03-4.25-0.35zm-3.38-6.99c-1.96-4.83-2.83-16.42-1.32-17.65 0.66-0.54 3.17-1.51 5.58-2.16 3.36-0.9 4.64-0.89 5.5 0.02 0.86 0.9 0.53 1.02-1.38 0.52-2.28-0.61-2.34-0.54-0.75 0.74 2.84 2.3 2.12 3.63-1.64 3.02-1.86-0.3-4.22-0.04-5.25 0.58-1.69 1.02-1.63 1.11 0.64 0.95 5.06-0.34 7 0.15 7 1.76 0 1.22-0.72 1.51-3 1.17-1.96-0.29-3.52 0.13-4.49 1.21-1.33 1.47-1.22 2.01 1.04 5.07 2.6 3.53 2.91 6.96 0.69 7.7-0.71 0.23-1.86-1.05-2.62-2.93zm-2.62-20.19c0-2.26 3.98-4.64 7.72-4.64 4.64 0 4.07 1.41-1.46 3.61-2.61 1.04-5.09 2.04-5.5 2.22-0.42 0.18-0.76-0.35-0.76-1.19zm0.24-6.81c-0.61-2.34-1.65-3.37-4.27-4.22-3.7-1.21-4-2.39-2.63-10.34 0.31-1.77 0.13-3.48-0.39-3.81-1.47-0.9-1.12-3.46 0.47-3.46 0.78 0 1.59-0.53 1.8-1.16 0.29-0.87 0.88-0.88 2.34-0.03 1.6 0.93 1.65 1.13 0.3 1.16-2.01 0.03-2.91 2.11-2.17 4.96 0.43 1.62 1.06 1.97 2.69 1.47 1.17-0.36 2.24-0.75 2.38-0.87 0.14-0.11-0.2-2.59-0.75-5.51-1.37-7.2-1.27-9.02 0.49-9.02 0.83 0 1.5-0.87 1.5-1.93s1.23-2.9 2.73-4.08 3.24-3.35 3.87-4.82l1.13-2.67 1.26 2.66c0.69 1.47 2.11 2.89 3.15 3.16 2.78 0.73 5.13 7.12 4.34 11.8-0.57 3.36-0.4 3.88 1.23 3.88 1.04 0 2.41-0.52 3.05-1.16 0.88-0.88 1.53-0.85 2.7 0.12 1.95 1.62 1.96 3.44 0.04 5.04-1.75 1.45-1.98 5.12-0.41 6.68 0.59 0.6 0.93 2.12 0.75 3.39-0.25 1.69-1.27 2.54-3.84 3.17-1.92 0.47-4.29 1.78-5.25 2.92-0.96 1.13-1.75 1.71-1.75 1.29s-0.87 0.03-1.93 0.99c-2.26 2.04-4.07 1.32-4.07-1.62 0-1.66 0.49-1.96 2.53-1.57 1.38 0.26 2.75 0.1 3.04-0.36 0.94-1.52-4.69-2.17-8.62-1-3.61 1.08-3.81 1.34-2.91 3.7 1.22 3.21 1.24 3.09-0.52 3.76-1.03 0.4-1.72-0.37-2.28-2.52zm12.09-7.11c4.32 0.88 10.77-0.5 11.42-2.46 0.18-0.55-1.37-1.82-3.46-2.83-7.27-3.5-24.19-1.47-25.95 3.12-0.79 2.07 1.43 3.62 4.44 3.1 1.25-0.21 2.51 0 2.8 0.48 0.3 0.47 1.89 0.16 3.55-0.7 2.28-1.18 4.05-1.35 7.2-0.71zm10.54-11.22c2.31-3.93 1.26-4.63-2.03-1.35l-2.15 2.16 0.56-2.16c0.72-2.76-0.9-2.84-1.77-0.08-0.45 1.41-0.07 2.52 1.18 3.47 1.01 0.77 1.91 1.41 1.99 1.42 0.09 0.02 1.08-1.54 2.22-3.46zm-17.87-0.94c0-1.35-0.49-2.75-1.08-3.12-1.68-1.03-3.19 1.11-2.45 3.46 0.93 2.93 3.53 2.68 3.53-0.34z"/>
  </g>
  <metadata>
    <rdf:RDF>
      <cc:Work>
        <dc:format>image/svg+xml</dc:format>
        <dc:type rdf:resource="http://purl.org/dc/dcmitype/StillImage"/>
        <cc:license rdf:resource="http://creativecommons.org/licenses/publicdomain/"/>
        <dc:publisher>
          <cc:Agent rdf:about="http://openclipart.org/">
            <dc:title>Openclipart</dc:title>
          </cc:Agent>
        </dc:publisher>
        <dc:title>Statue of Liberty</dc:title>
        <dc:date>2010-05-23T18:02:35</dc:date>
        <dc:description>The Statue of Liberty looks out on us all, stuck on her pedistal, wishing to run free. And her arm is hurting after holding it in the air SO long!</dc:description>
        <dc:source>http://openclipart.org/detail/62491/statue-of-liberty-by-j4p4n</dc:source>
        <dc:creator>
          <cc:Agent>
            <dc:title>j4p4n</dc:title>
          </cc:Agent>
        </dc:creator>
        <dc:subject>
          <rdf:Bag>
            <rdf:li>Statue of Liberty</rdf:li>
            <rdf:li>america</rdf:li>
            <rdf:li>black and white</rdf:li>
            <rdf:li>clip art</rdf:li>
            <rdf:li>clipart</rdf:li>
            <rdf:li>landmark</rdf:li>
          </rdf:Bag>
        </dc:subject>
      </cc:Work>
      <cc:License rdf:about="http://creativecommons.org/licenses/publicdomain/">
        <cc:permits rdf:resource="http://creativecommons.org/ns#Reproduction"/>
        <cc:permits rdf:resource="http://creativecommons.org/ns#Distribution"/>
        <cc:permits rdf:resource="http://creativecommons.org/ns#DerivativeWorks"/>
      </cc:License>
    </rdf:RDF>
  </metadata>
</svg>
