<?xml version="1.0"?>
<svg xmlns:rdf="http://www.w3.org/1999/02/22-rdf-syntax-ns#" xmlns="http://www.w3.org/2000/svg" xmlns:cc="http://web.resource.org/cc/" xmlns:dc="http://purl.org/dc/elements/1.1/" xmlns:svg="http://www.w3.org/2000/svg" id="Layer_1" xml:space="preserve" overflow="visible" viewBox="0 0 567.23 758.923" version="1.0" enable-background="new 0 0 567.23 758.923">
<g id="g3353" transform="translate(-7.7598 2.6683)" fill="#808284"><path id="path3130" d="m171.6 560.41s4.33 13.53 1.62 19.48c-2.7 5.96 225.22 3.25 225.22 3.25s-1.09-15.16 1.08-18.94c2.16-3.79 0.54-2.71 0.54-2.71l-228.46-1.08z"/><path id="path3132" d="m196.5 537.67s42.23-115.86 42.23-119.65 5.41-3.25 5.41-3.25l-28.69 123.44-18.95-0.54z"/><polygon id="polygon3134" points="231.15 406.65 240.35 401.24 337.26 402.86 345.92 406.11 347 401.24 337.8 397.99 241.98 396.91 230.06 399.62"/><path id="path3136" d="m245.76 390.95l11.92 1.63 24.36-304.8-4.88 3.249s-9.2 117.48-9.2 122.35-21.11 175.95-22.2 177.57z"/><path id="path3138" d="m289.08 45.823l8.12 0.541s-1.62-40.062-2.17-43.852c-0.54-3.789-2.7-2.165-2.7-2.165l-3.25 45.476z"/><path id="path3140" d="m278.25 60.709c-1.19 1.107 11.91-24.361 28.69-3.789l-0.13 5.145s-13.13-15.703-28.56-1.356z"/><path id="path3142" d="m273.78 68.425l0.27 7.308 6.63-5.684h23.69l0.81 12.993s4.47-7.038 5.55-7.85c1.08-0.813 1.22-6.632 1.22-6.632l-5.28-5.142-27.2 0.27-5.69 4.737z"/><path id="path3144" d="m290.7 87.781l4.33-1.084s-3.25 282.6 8.12 304.25h-29.23s25.44-297.76 16.78-303.17z"/><path id="path3146" d="m237.1 538.21l7.04 0.54s21.66-97.45 21.12-96.36c-0.54 1.08-5.42-0.54-5.42-0.54s-21.11 95.28-22.74 96.36z"/><path id="path3148" d="m309.11 444.01c1.62 0 5.41 1.08 5.41 1.08s30.86 85 32.48 90.41c1.63 5.42 1.63 3.8 1.63 3.8l-15.7 0.54-23.82-95.83z"/><path id="path3150" d="m337.8 416.94c0 1.62 37.9 121.27 37.9 121.27l-8.12 1.63s-39.52-121.82-41.15-121.82c-1.62 0 11.37-1.08 11.37-1.08z"/><path id="path3152" d="m313.44 390.96h16.24s-25.44-290.18-25.44-292.35c0-2.166 8.12 290.72 9.2 292.35z"/><path id="path3154" d="m235.75 408.28s2.17 2.44 1.89 3.79c-0.27 1.35 100.97 1.62 100.97 1.62s1.09-2.98 1.9-3.52-104.76-1.89-104.76-1.89z"/><path id="path3156" d="m172.95 539.56c0.81 0 226.84 1.63 226.84 1.63s-2.17 3.52-2.17 5.68c0 2.17-218.17-0.54-218.99 1.09-0.81 1.62-5.68-8.4-5.68-8.4z"/><path id="path3158" d="m170.78 585.31c-0.27 0.81-59.55 86.89-59.55 86.89s6.77 6.23 7.58 5.96 40.61-64.43 42.5-64.7 13.81-22.74 12.99-24.09c-0.81-1.35-3.52-4.06-3.52-4.06z"/><path id="path3160" d="m180.26 729.86c0-1.08 14.89-47.91 41.41-66.59 26.53-18.68 47.92-21.93 50.35-22.2 2.44-0.27 25.18-0.27 35.46 1.9 10.29 2.16 43.04 20.84 45.48 24.09s17.05 23.82 20.57 28.96c3.52 5.15 10.02 25.18 11.64 36.01 1.63 10.82 2.44 15.97 2.44 15.97s-4.6-39.8-1.09-41.69c3.52-1.9 8.4-3.79 8.4-3.79s-18.68-35.46-51.98-61.44c-33.29-25.99-142.38-32.22-164.85 88.51l2.17 0.27z"/><path id="path3162" d="m403.31 590.72s55.76 83.92 56.3 85.54c0.54 1.63-12.45 7.85-12.45 7.85l-46.83-92.57 2.98-0.82z"/><path id="path3164" d="m174.37 614.95c-1.01 1.42-6.9 11.37-6.9 11.37l-5.69-8.93 12.59-2.44z"/><path id="path3166" d="m144.73 644.8c0.61-0.21 9.95 0.2 9.95 0.2l6.49-11.17-16.44 10.97z"/><path id="path3168" d="m140.87 650.07l9.95 0.82-7.51 10.35-2.85-10.56c0.01 0 0.62-1.01 0.41-0.61z"/><polygon id="polygon3170" points="180.87 642.97 187.97 632.82 172.95 631.4"/><polygon id="polygon3172" points="177.01 626.73 191.63 627.54 197.31 617.18"/><polygon id="polygon3174" points="180.26 613.53 171.53 624.49 193.05 615.15"/><polygon id="polygon3176" points="175.99 652.92 168.69 663.47 150.42 663.88"/><polygon id="polygon3178" points="165.44 668.75 157.72 679.51 149.2 668.34"/><polygon id="polygon3180" points="144.12 669.97 152.65 681.34 127.88 676.87"/><polygon id="polygon3182" points="135.59 657.79 125.44 671.8 140.26 664.49"/><polygon id="polygon3184" points="168.08 634.64 160.36 645 175.59 645"/><path id="path3186" d="m247.15 424.62c0.71 0.81 3.56 4.87 3.56 4.87l1.11-8.73-4.67 3.86z"/><path id="path3188" d="m242.38 417.82l3.76 4.77 5.38-5.07-9.34-1.73s-3.86 15.43-3.56 15.53c0.31 0.1 9.44 0.3 9.44 0.3l-2.94-5.48-4.77 2.03 2.03-10.35z"/><polygon id="polygon3190" points="257.3 416.91 266.34 417.52 261.26 422.59"/><polygon id="polygon3192" points="260.35 425.74 254.56 431.32 262.89 431.32"/><polygon id="polygon3194" points="254.36 419.34 253.34 429.09 258.62 424.62"/><path id="path3196" d="m267.05 420.56c0 0.31-0.81 8.32-0.81 8.32l-3.66-4.26 4.47-4.06z"/><polygon id="polygon3198" points="271.01 419.85 269.28 429.49 275.88 424.93"/><polygon id="polygon3200" points="273.24 417.41 285.12 417.72 278.82 423.2"/><path id="path3202" d="m278.01 425.84c-0.4 0.3-6.7 5.38-6.7 5.38l12.79 0.51-6.09-6.19v0.3z"/><polygon id="polygon3204" points="280.85 424.42 286.64 430.41 287.15 418.73"/><polygon id="polygon3206" points="289.38 419.24 289.08 430.92 295.06 425.33"/><polygon id="polygon3208" points="291.31 432.23 297.7 426.65 305.01 432.13"/><polygon id="polygon3210" points="305.62 420.36 305.62 429.39 300.34 424.82"/><polygon id="polygon3212" points="316.38 444.31 326.43 450.4 326.33 443.91"/><polygon id="polygon3214" points="282.04 73.164 303.42 73.028 293.54 85.208"/><path id="path3216" d="m311.27 77.494c-0.4 0.677-5.95 9.745-5.95 9.745l0.67 20.571 1.49-12.856 3.12-4.196 0.67-13.264z"/><path id="path3218" d="m274.59 77.494s5.69 7.039 5.42 8.256c-0.27 1.218-3.79 3.519-3.79 3.519l-2.03-0.542 0.4-11.233z"/><path id="path3220" d="m267.83 474.19c0.4 0 40.19 0.81 40.19 0.81l9.07 61.72 9.2-0.13-18-67.68-40.73 2.71 0.27 2.57z"/><path id="path3222" d="m266.47 471.76c0 0.4-4.33 52.51-10.01 64.56l-5.42 0.13 14.08-64.69h1.35z"/><polygon id="polygon3224" points="268.91 453.35 267.56 465.66 306.26 466.48 307.48 454.7 306.4 454.57 304.64 462.96 272.16 462.82 270.94 453.89 290.7 453.62 298.41 453.76 268.77 450.91"/><path id="path3226" d="m314.66 447.94c1.08 0.4 12.45 6.9 12.45 6.9s-7.17 6.5-7.45 6.9c-0.27 0.41-5-13.8-5-13.8z"/><polygon id="polygon3228" points="319.39 466.48 328.6 459.03 330.36 467.29 319.26 467.29"/><polygon id="polygon3230" points="347.95 516.39 359.12 524.61 351.91 527.96"/><path id="path3232" d="m322.78 470.6c0.71 0.21 8.42 0.21 8.42 0.21l2.54 7.81-10.96-8.02z"/><path id="path3234" d="m248.37 454.46c0.1-0.3 11.07-6.59 11.07-6.59l-3.05 14.72-8.02-8.13z"/><polygon id="polygon3236" points="249.59 442.89 248.06 450.3 258.42 443.4"/><polygon id="polygon3238" points="245.83 443.91 236.29 442.49 243.8 450.3"/><path id="path3240" d="m234.77 447.87c0.51 0.4 7.41 6.19 7.41 6.19l-10.66 6.8 3.25-12.99z"/><polygon id="polygon3242" points="246.64 457.81 244 466.34 255.17 467.05"/><polygon id="polygon3244" points="253.34 474.36 240.56 482.79 249.69 491.21"/><polygon id="polygon3246" points="247.46 503.29 232.23 511.92 242.99 522.58"/><path id="path3248" d="m229.69 516.59c-0.3 0.4-7.31 19.79-7.31 19.79l15.33-8.52-8.02-11.27z"/><polygon id="polygon3250" points="238.02 486.85 232.54 506.13 244.21 499.74 245.93 493.65"/><path id="path3252" d="m241.67 459.85c-0.1 0.3-1.73 7.71-1.73 7.71l-10.15-1.42 11.88-6.29z"/><path id="path3254" d="m220.52 614.88l-4.16-6.61c-0.58-1.13-1.78-1.91-3.18-1.91-1.96 0-3.55 1.53-3.55 3.42 0 0.7 0.22 1.36 0.6 1.9 0.11 0.16 0.23 0.3 0.36 0.43l4.38 6.02 5.55-3.25z"/><path id="path3256" d="m228.92 611.25l-3.49-6.27c-0.48-1.06-1.54-1.85-2.84-1.93-1.83-0.11-3.4 1.19-3.51 2.9-0.04 0.65 0.13 1.26 0.46 1.78 0.09 0.14 0.2 0.27 0.31 0.4l3.72 5.74 5.35-2.62z"/><path id="path3258" d="m231.62 610.82l6.56-2.03s-2.7-7.64-6.15-5.61-3.59 2.43-0.48 7.51c3.12 5.07 0.07 0.13 0.07 0.13z"/><path id="path3260" d="m198.53 627.13c-0.01 0.25 5.21-3.25 5.21-3.25s-5.08-0.67-5.21 3.25z"/><path id="path3262" d="m206.18 622.4c0.54-0.48 5.61-3.46 5.61-3.46l-1.76-2.84s-6.49-2.23-5.89 3.45l2.04 2.85z"/><path id="path3264" d="m240.56 608.05l6.83-1.22-0.27-1.9s-4.6-3.92-6.77 0.89l0.21 2.23z"/><path id="path3266" d="m250.03 605.95l6.77-1.22s-3.46-3.31-6.77 1.22z"/><path id="path3268" d="m230.34 468.51c1.35 0.4 7.71 1.62 7.71 1.62l-1.9 7.31-7.44-6.5 1.63-2.43z"/><path id="path3270" d="m228.44 475.41c-0.64 1.91 6.36 6.9 6.36 6.9l-9.2 4.47s2.98-11.78 2.84-11.37z"/><path id="path3272" d="m223.3 495.17c0.54 0 8.12 0.68 8.12 0.68l2.03-9.07-10.15 5.68 0.13 2.17 6.77 4.74-2.84 8.39-5.82-9.07 3.65 17.05-10.42 13 8.53-33.57z"/><polygon id="polygon3274" points="312.02 432.44 321.15 432.03 315.67 427.16"/><polygon id="polygon3276" points="170.31 609.06 203.6 610.08 219.24 586.12 200.56 603.79"/><path id="path3278" d="m324.6 606.42l6.7 2.03s-0.2-7.51-6.7-2.03z"/><path id="path3280" d="m373.73 619.82c0.41 0.82 5.28 9.95 5.28 9.95l16.65-0.61-14.21-2.64-7.72-6.7z"/><path id="path3282" d="m382.67 634.64c0.81 1.22 6.49 10.36 6.49 10.36l8.12-9.75-8.12 4.06-6.49-4.67z"/><path id="path3284" d="m394.04 654.34c0.61 1.01 6.9 11.16 6.9 11.16l9.34-0.2-8.12-3.05-8.12-7.91z"/><path id="path3286" d="m333.94 609.88l37.97 20.3s-31.07-26.19-34.31-25.99c-3.25 0.2-3.86 4.47-3.86 5.08"/><polygon id="polygon3288" points="325.01 477.51 334.55 483.8 328.66 490.7"/><polygon id="polygon3290" points="336.18 488.27 330.29 496.8 339.02 500.25"/><polygon id="polygon3292" points="337.8 513.04 346.12 522.58 341.86 526.64"/><polygon id="polygon3294" points="331.71 426.96 328.05 431.63 334.15 432.23"/><path id="path3296" d="m255.98 383.51c1.42 1.22 5.69 5.08 5.69 5.08l11.16-11.78-5.27-7.51-11.78 8.73 0.2 5.48z"/><path id="path3298" d="m259.03 360.16c0.61 1.02 4.87 8.33 4.87 8.33l-7.51 5.07 2.64-13.4z"/><path id="path3300" d="m258.62 349.2c0.61 1.22 7.72 11.17 7.72 11.17l9.34-9.55-6.91-10.15-10.15 8.53z"/><polygon id="polygon3302" points="259.84 344.53 265.93 337.63 259.84 329.71"/><polygon id="polygon3304" points="260.45 320.78 269.99 314.08 262.48 304.94"/><polygon id="polygon3306" points="263.9 283.83 261.67 297.84 272.43 290.53"/><polygon id="polygon3308" points="264.31 276.11 274.66 267.79 266.14 259.06 263.9 277.13"/><polygon id="polygon3310" points="266.54 253.58 266.74 254.59 277.5 246.27 267.56 237.54"/><polygon id="polygon3312" points="269.79 215.82 267.96 233.28 277.5 226.37"/><polygon id="polygon3314" points="270.6 213.58 278.72 206.68 271.01 198.97"/><polygon id="polygon3316" points="272.02 195.72 279.94 190.24 272.63 182.12"/><polygon id="polygon3318" points="273.04 179.68 280.96 173.39 273.85 165.06"/><polygon id="polygon3320" points="274.26 163.44 280.96 158.97 275.27 150.85"/><polygon id="polygon3322" points="275.88 148.62 282.38 143.54 277.1 138.67"/><path id="path3324" d="m276.9 135.62l5.68-4.26s-4.26-6.5-4.26-5.68c-0.01 0.81-1.42 9.94-1.42 9.94z"/><polygon id="polygon3326" points="277.5 122.43 283.8 119.18 278.31 112.89"/><polygon id="polygon3328" points="279.33 111.67 284.41 107.81 279.33 102.33"/><polygon id="polygon3330" points="280.55 100.1 284.2 97.864 281.56 93.397"/><path id="path3332" d="m265.25 329.78c0.82 0.54 3.52 6.22 3.52 6.22l8.67-10.01-7.31-0.54-4.33-5.69-0.55 10.02z"/><polygon id="polygon3334" points="266.88 304.87 271.75 310.83 278.25 305.15 272.83 304.6 268.23 297.3 266.34 297.84"/><polygon id="polygon3336" points="268.5 282.41 274.19 287.82 279.6 281.6 273.1 281.06 271.21 273.47 268.5 275.1"/><polygon id="polygon3338" points="270.67 259.13 277.16 265.62 280.96 263.46 275.54 259.67 279.6 249.11 270.4 255.88"/><polygon id="polygon3340" points="278.52 243.7 271.75 238.83 272.02 235.04 280.14 228.27 277.44 235.31"/><path id="path3342" d="m567.23 621.69c-6.11-3.19-14.14-6.49-24.78-9.99-30.86-10.15-22.74 23.96-22.74 23.96-37.76-15.03-56.85 27.2-56.85 27.2-32.07-8.53-53.6 32.89-53.6 32.89-57.24 6.09-35.32 62.53-35.32 62.53l9.3 0.64c0.52-15.95 8.18-34.27 39.43-37.59 0 0 21.52-41.42 53.59-32.89 0 0 19.09-42.23 56.85-27.21 0 0-8.12-34.1 22.74-23.95 4.19 1.38 7.96 2.72 11.38 4.04v-19.63z"/><path id="path3344" d="m188.98 718.29c2.16-7.04-9.21-14.08-9.21-14.08-5.41-12.45-64.15-23.55-64.15-23.55-18.678-26.79-73.899-27.34-73.899-27.34-10.506-26.51-35.808-17.7-41.721-16.39v25.99c9.044-2.21 29.344-5.84 38.473 17.2 0 0 55.22 0.54 73.897 27.34 0 0 57.62 12.13 64.66 23.09 0 0 3.65 3.04 6.46 6.63h10.9c-0.02-12.39-7.58-11.86-5.41-18.89z"/><path id="path3346" d="m422.83 705.5c-140.6-233.06-277.89-0.01-275.87-2.44 140.75-169.02 229.1-53.23 259.84 2.44h16.03z"/></g>
<metadata><rdf:RDF><cc:Work><dc:format>image/svg+xml</dc:format><dc:type rdf:resource="http://purl.org/dc/dcmitype/StillImage"/><cc:license rdf:resource="http://creativecommons.org/licenses/publicdomain/"/><dc:publisher><cc:Agent rdf:about="http://openclipart.org/"><dc:title>Openclipart</dc:title></cc:Agent></dc:publisher><dc:title>Eiffle tower Paris</dc:title><dc:date>2007-09-25T21:28:39</dc:date><dc:description>Eiffel tower</dc:description><dc:source>http://openclipart.org/detail/6069/eiffle-tower-paris-by-shokunin</dc:source><dc:creator><cc:Agent><dc:title>shokunin</dc:title></cc:Agent></dc:creator><dc:subject><rdf:Bag><rdf:li>clip art</rdf:li><rdf:li>clipart</rdf:li><rdf:li>eiffel tower</rdf:li><rdf:li>image</rdf:li><rdf:li>media</rdf:li><rdf:li>paris</rdf:li><rdf:li>png</rdf:li><rdf:li>public domain</rdf:li><rdf:li>svg</rdf:li><rdf:li>tourism</rdf:li></rdf:Bag></dc:subject></cc:Work><cc:License rdf:about="http://creativecommons.org/licenses/publicdomain/"><cc:permits rdf:resource="http://creativecommons.org/ns#Reproduction"/><cc:permits rdf:resource="http://creativecommons.org/ns#Distribution"/><cc:permits rdf:resource="http://creativecommons.org/ns#DerivativeWorks"/></cc:License></rdf:RDF></metadata></svg>
